<?xml version="1.0" encoding="UTF-8"?>
<svg xmlns="http://www.w3.org/2000/svg" xmlns:xlink="http://www.w3.org/1999/xlink" width="30pt" height="30.000001pt" viewBox="0 0 30 30.000001" version="1.2">
<defs>
<clipPath id="clip1">
  <path d="M 2.179688 4.550781 L 26.175781 4.550781 L 26.175781 25.78125 L 2.179688 25.78125 Z M 2.179688 4.550781 "/>
</clipPath>
<clipPath id="clip2">
  <path d="M 2.988281 20.953125 C 1.433594 16.476562 2.71875 12.4375 4.421875 10.777344 C 6.125 9.121094 7.707031 7.6875 9.679688 6.601562 C 11.652344 5.515625 21.058594 1.355469 24.015625 9.8125 C 26.972656 18.269531 26.285156 19 25.03125 21.320312 C 23.773438 23.640625 18.542969 25.535156 14.695312 25.71875 C 10.847656 25.898438 3.871094 23.511719 2.988281 20.953125 Z M 2.988281 20.953125 "/>
</clipPath>
<clipPath id="clip3">
  <path d="M 7 15 L 21 15 L 21 25.78125 L 7 25.78125 Z M 7 15 "/>
</clipPath>
<clipPath id="clip4">
  <path d="M 2.988281 20.953125 C 1.433594 16.476562 2.71875 12.4375 4.421875 10.777344 C 6.125 9.121094 7.707031 7.6875 9.679688 6.601562 C 11.652344 5.515625 21.058594 1.355469 24.015625 9.8125 C 26.972656 18.269531 26.285156 19 25.03125 21.320312 C 23.773438 23.640625 18.542969 25.535156 14.695312 25.71875 C 10.847656 25.898438 3.871094 23.511719 2.988281 20.953125 Z M 2.988281 20.953125 "/>
</clipPath>
<clipPath id="clip5">
  <path d="M 8 15 L 20 15 L 20 25 L 8 25 Z M 8 15 "/>
</clipPath>
<clipPath id="clip6">
  <path d="M 2.988281 20.953125 C 1.433594 16.476562 2.71875 12.4375 4.421875 10.777344 C 6.125 9.121094 7.707031 7.6875 9.679688 6.601562 C 11.652344 5.515625 21.058594 1.355469 24.015625 9.8125 C 26.972656 18.269531 26.285156 19 25.03125 21.320312 C 23.773438 23.640625 18.542969 25.535156 14.695312 25.71875 C 10.847656 25.898438 3.871094 23.511719 2.988281 20.953125 Z M 2.988281 20.953125 "/>
</clipPath>
<clipPath id="clip7">
  <path d="M 7 22 L 21 22 L 21 25.78125 L 7 25.78125 Z M 7 22 "/>
</clipPath>
<clipPath id="clip8">
  <path d="M 2.988281 20.953125 C 1.433594 16.476562 2.71875 12.4375 4.421875 10.777344 C 6.125 9.121094 7.707031 7.6875 9.679688 6.601562 C 11.652344 5.515625 21.058594 1.355469 24.015625 9.8125 C 26.972656 18.269531 26.285156 19 25.03125 21.320312 C 23.773438 23.640625 18.542969 25.535156 14.695312 25.71875 C 10.847656 25.898438 3.871094 23.511719 2.988281 20.953125 Z M 2.988281 20.953125 "/>
</clipPath>
<clipPath id="clip9">
  <path d="M 7 15 L 21 15 L 21 25.78125 L 7 25.78125 Z M 7 15 "/>
</clipPath>
<clipPath id="clip10">
  <path d="M 2.988281 20.953125 C 1.433594 16.476562 2.71875 12.4375 4.421875 10.777344 C 6.125 9.121094 7.707031 7.6875 9.679688 6.601562 C 11.652344 5.515625 21.058594 1.355469 24.015625 9.8125 C 26.972656 18.269531 26.285156 19 25.03125 21.320312 C 23.773438 23.640625 18.542969 25.535156 14.695312 25.71875 C 10.847656 25.898438 3.871094 23.511719 2.988281 20.953125 Z M 2.988281 20.953125 "/>
</clipPath>
<clipPath id="clip11">
  <path d="M 10 20 L 15 20 L 15 25.78125 L 10 25.78125 Z M 10 20 "/>
</clipPath>
<clipPath id="clip12">
  <path d="M 2.988281 20.953125 C 1.433594 16.476562 2.71875 12.4375 4.421875 10.777344 C 6.125 9.121094 7.707031 7.6875 9.679688 6.601562 C 11.652344 5.515625 21.058594 1.355469 24.015625 9.8125 C 26.972656 18.269531 26.285156 19 25.03125 21.320312 C 23.773438 23.640625 18.542969 25.535156 14.695312 25.71875 C 10.847656 25.898438 3.871094 23.511719 2.988281 20.953125 Z M 2.988281 20.953125 "/>
</clipPath>
<clipPath id="clip13">
  <path d="M 9 20 L 15 20 L 15 25.78125 L 9 25.78125 Z M 9 20 "/>
</clipPath>
<clipPath id="clip14">
  <path d="M 2.988281 20.953125 C 1.433594 16.476562 2.71875 12.4375 4.421875 10.777344 C 6.125 9.121094 7.707031 7.6875 9.679688 6.601562 C 11.652344 5.515625 21.058594 1.355469 24.015625 9.8125 C 26.972656 18.269531 26.285156 19 25.03125 21.320312 C 23.773438 23.640625 18.542969 25.535156 14.695312 25.71875 C 10.847656 25.898438 3.871094 23.511719 2.988281 20.953125 Z M 2.988281 20.953125 "/>
</clipPath>
<clipPath id="clip15">
  <path d="M 15 20 L 20 20 L 20 25.78125 L 15 25.78125 Z M 15 20 "/>
</clipPath>
<clipPath id="clip16">
  <path d="M 2.988281 20.953125 C 1.433594 16.476562 2.71875 12.4375 4.421875 10.777344 C 6.125 9.121094 7.707031 7.6875 9.679688 6.601562 C 11.652344 5.515625 21.058594 1.355469 24.015625 9.8125 C 26.972656 18.269531 26.285156 19 25.03125 21.320312 C 23.773438 23.640625 18.542969 25.535156 14.695312 25.71875 C 10.847656 25.898438 3.871094 23.511719 2.988281 20.953125 Z M 2.988281 20.953125 "/>
</clipPath>
<clipPath id="clip17">
  <path d="M 14 20 L 20 20 L 20 25.78125 L 14 25.78125 Z M 14 20 "/>
</clipPath>
<clipPath id="clip18">
  <path d="M 2.988281 20.953125 C 1.433594 16.476562 2.71875 12.4375 4.421875 10.777344 C 6.125 9.121094 7.707031 7.6875 9.679688 6.601562 C 11.652344 5.515625 21.058594 1.355469 24.015625 9.8125 C 26.972656 18.269531 26.285156 19 25.03125 21.320312 C 23.773438 23.640625 18.542969 25.535156 14.695312 25.71875 C 10.847656 25.898438 3.871094 23.511719 2.988281 20.953125 Z M 2.988281 20.953125 "/>
</clipPath>
</defs>
<g id="surface1">
<g clip-path="url(#clip1)" clip-rule="nonzero">
<g clip-path="url(#clip2)" clip-rule="nonzero">
<path style=" stroke:none;fill-rule:nonzero;fill:rgb(94.119263%,92.158508%,30.589294%);fill-opacity:1;" d="M 1.695312 18.5 C 1.695312 18.5 0.707031 13.5625 2.757812 11.59375 C 4.8125 9.628906 5.488281 7.5 7.863281 6.210938 C 10.234375 4.925781 23.53125 -0.117188 25.449219 10.34375 C 26.636719 16.796875 28.578125 18.820312 27.070312 21.570312 C 25.558594 24.320312 19.183594 26.472656 14.550781 26.683594 C 9.917969 26.898438 0.722656 23.039062 1.695312 18.5 Z M 1.695312 18.5 "/>
</g>
</g>
<g clip-path="url(#clip3)" clip-rule="nonzero">
<g clip-path="url(#clip4)" clip-rule="nonzero">
<path style=" stroke:none;fill-rule:nonzero;fill:rgb(100%,100%,100%);fill-opacity:1;" d="M 20.609375 25.910156 C 20.277344 28.953125 18.816406 30.328125 15.101562 30.46875 C 10.144531 30.652344 8.183594 29.5 7.59375 26.71875 C 6.925781 23.570312 8.027344 19.796875 8.570312 18.230469 C 8.730469 17.761719 8.839844 17.492188 8.839844 17.492188 L 9.527344 16.464844 L 18.816406 15.707031 C 19.144531 16.441406 19.421875 17.195312 19.652344 17.96875 C 20.328125 20.226562 20.894531 23.265625 20.609375 25.910156 Z M 20.609375 25.910156 "/>
</g>
</g>
<g clip-path="url(#clip5)" clip-rule="nonzero">
<g clip-path="url(#clip6)" clip-rule="nonzero">
<path style=" stroke:none;fill-rule:nonzero;fill:rgb(83.918762%,83.918762%,83.918762%);fill-opacity:1;" d="M 17.171875 21.117188 C 17.171875 21.117188 15.234375 23.125 14.914062 24.109375 C 14.070312 23.125 13.171875 22.191406 12.21875 21.3125 C 10.882812 21.136719 9.09375 19.628906 8.570312 18.230469 C 8.730469 17.761719 8.839844 17.492188 8.839844 17.492188 L 9.527344 16.464844 L 18.816406 15.707031 C 19.144531 16.441406 19.421875 17.195312 19.652344 17.96875 C 19 19.160156 18.175781 20.210938 17.171875 21.117188 Z M 17.171875 21.117188 "/>
</g>
</g>
<g clip-path="url(#clip7)" clip-rule="nonzero">
<g clip-path="url(#clip8)" clip-rule="nonzero">
<path style=" stroke:none;fill-rule:nonzero;fill:rgb(83.918762%,83.918762%,83.918762%);fill-opacity:1;" d="M 20.609375 25.910156 C 20.277344 28.953125 18.816406 30.328125 15.101562 30.46875 C 10.144531 30.652344 8.183594 29.5 7.59375 26.71875 C 7.667969 26.773438 9.300781 27.910156 9.710938 25.964844 C 9.929688 24.875 10.222656 23.808594 10.601562 22.765625 L 12.070312 27.011719 L 13.683594 27.410156 L 13.859375 27.199219 L 13.886719 23.191406 L 15.488281 23.117188 L 15.570312 27.261719 L 18.96875 23.25 C 18.96875 23.25 19.65625 26.195312 20.609375 25.917969 Z M 20.609375 25.910156 "/>
</g>
</g>
<g clip-path="url(#clip9)" clip-rule="nonzero">
<g clip-path="url(#clip10)" clip-rule="nonzero">
<path style=" stroke:none;fill-rule:nonzero;fill:rgb(2.749634%,3.138733%,5.488586%);fill-opacity:1;" d="M 14.554688 30.65625 C 11.671875 30.65625 9.613281 29.773438 8.410156 28.039062 C 5.585938 23.9375 8.550781 17.726562 8.675781 17.417969 C 8.679688 17.40625 8.6875 17.394531 8.691406 17.382812 L 9.378906 16.359375 C 9.410156 16.308594 9.457031 16.28125 9.519531 16.28125 L 18.808594 15.519531 C 18.890625 15.515625 18.949219 15.550781 18.984375 15.625 C 20.210938 18.277344 22.105469 24.265625 19.761719 28.132812 C 18.796875 29.722656 17.234375 30.566406 15.101562 30.644531 C 14.917969 30.648438 14.734375 30.65625 14.554688 30.65625 Z M 9 17.570312 C 8.84375 17.964844 6.054688 23.984375 8.703125 27.832031 C 9.902344 29.570312 12.050781 30.394531 15.09375 30.28125 C 17.089844 30.207031 18.554688 29.425781 19.449219 27.945312 C 21.566406 24.453125 20.03125 18.847656 18.707031 15.890625 L 9.628906 16.632812 Z M 9 17.570312 "/>
</g>
</g>
<g clip-path="url(#clip11)" clip-rule="nonzero">
<g clip-path="url(#clip12)" clip-rule="nonzero">
<path style=" stroke:none;fill-rule:nonzero;fill:rgb(100%,100%,100%);fill-opacity:1;" d="M 10.542969 20.851562 L 10.753906 27.144531 C 10.753906 27.144531 10.125 27.207031 10.125 27.636719 C 10.125 28.0625 13.339844 29.414062 13.972656 29.050781 C 14.609375 28.6875 14.355469 27.484375 13.882812 27.242188 L 13.882812 22.941406 "/>
</g>
</g>
<g clip-path="url(#clip13)" clip-rule="nonzero">
<g clip-path="url(#clip14)" clip-rule="nonzero">
<path style=" stroke:none;fill-rule:nonzero;fill:rgb(2.749634%,3.138733%,5.488586%);fill-opacity:1;" d="M 13.652344 29.285156 C 12.78125 29.285156 11.175781 28.605469 10.527344 28.222656 C 10.015625 27.921875 9.941406 27.753906 9.941406 27.636719 C 9.941406 27.25 10.28125 27.066406 10.566406 27 L 10.367188 20.855469 C 10.363281 20.734375 10.421875 20.675781 10.539062 20.671875 C 10.660156 20.667969 10.722656 20.726562 10.722656 20.847656 L 10.929688 27.140625 C 10.933594 27.253906 10.878906 27.316406 10.769531 27.328125 C 10.769531 27.328125 10.324219 27.378906 10.304688 27.613281 C 10.414062 27.792969 11.375 28.324219 12.480469 28.679688 C 13.316406 28.949219 13.753906 28.964844 13.882812 28.890625 C 14.144531 28.746094 14.175781 28.414062 14.167969 28.234375 C 14.15625 27.875 13.992188 27.5 13.792969 27.398438 C 13.730469 27.363281 13.695312 27.3125 13.699219 27.238281 L 13.699219 22.941406 C 13.699219 22.820312 13.757812 22.761719 13.875 22.761719 C 13.996094 22.761719 14.054688 22.820312 14.054688 22.941406 L 14.054688 27.136719 C 14.351562 27.359375 14.515625 27.835938 14.523438 28.226562 C 14.535156 28.671875 14.363281 29.027344 14.054688 29.203125 C 13.925781 29.265625 13.792969 29.292969 13.652344 29.285156 Z M 13.652344 29.285156 "/>
</g>
</g>
<g clip-path="url(#clip15)" clip-rule="nonzero">
<g clip-path="url(#clip16)" clip-rule="nonzero">
<path style=" stroke:none;fill-rule:nonzero;fill:rgb(100%,100%,100%);fill-opacity:1;" d="M 18.90625 20.851562 L 18.695312 27.144531 C 18.695312 27.144531 19.320312 27.207031 19.320312 27.628906 C 19.320312 28.050781 16.105469 29.40625 15.476562 29.046875 C 14.84375 28.683594 15.09375 27.476562 15.566406 27.238281 L 15.566406 22.941406 "/>
</g>
</g>
<g clip-path="url(#clip17)" clip-rule="nonzero">
<g clip-path="url(#clip18)" clip-rule="nonzero">
<path style=" stroke:none;fill-rule:nonzero;fill:rgb(2.749634%,3.138733%,5.488586%);fill-opacity:1;" d="M 15.800781 29.285156 C 15.65625 29.292969 15.519531 29.265625 15.386719 29.203125 C 15.082031 29.027344 14.910156 28.671875 14.921875 28.226562 C 14.929688 27.835938 15.09375 27.359375 15.386719 27.136719 L 15.386719 22.941406 C 15.390625 22.824219 15.449219 22.761719 15.566406 22.761719 C 15.6875 22.761719 15.746094 22.824219 15.746094 22.941406 L 15.746094 27.238281 C 15.746094 27.3125 15.714844 27.367188 15.648438 27.398438 C 15.453125 27.5 15.285156 27.875 15.277344 28.234375 C 15.277344 28.414062 15.304688 28.742188 15.5625 28.890625 C 15.6875 28.960938 16.125 28.949219 16.960938 28.679688 C 18.070312 28.324219 19.03125 27.792969 19.140625 27.613281 C 19.121094 27.378906 18.679688 27.328125 18.675781 27.328125 C 18.566406 27.316406 18.511719 27.253906 18.515625 27.140625 L 18.722656 20.847656 C 18.726562 20.726562 18.789062 20.667969 18.90625 20.667969 C 19.027344 20.671875 19.085938 20.734375 19.082031 20.855469 L 18.875 26.996094 C 19.160156 27.0625 19.5 27.246094 19.5 27.628906 C 19.5 27.753906 19.429688 27.921875 18.917969 28.222656 C 18.269531 28.605469 16.667969 29.285156 15.800781 29.285156 Z M 19.152344 27.601562 Z M 19.152344 27.601562 "/>
</g>
</g>
<path style=" stroke:none;fill-rule:nonzero;fill:rgb(83.918762%,17.248535%,16.468811%);fill-opacity:1;" d="M 8.601562 16.6875 C 8.601562 16.6875 9.144531 20.511719 14.335938 20.511719 C 18.90625 20.511719 19.65625 16.46875 19.65625 16.46875 Z M 8.601562 16.6875 "/>
<path style=" stroke:none;fill-rule:nonzero;fill:rgb(2.749634%,3.138733%,5.488586%);fill-opacity:1;" d="M 14.34375 20.695312 L 14.335938 20.695312 C 9.050781 20.695312 8.433594 16.753906 8.425781 16.707031 C 8.417969 16.652344 8.433594 16.605469 8.46875 16.5625 C 8.503906 16.523438 8.546875 16.5 8.601562 16.5 L 19.652344 16.289062 C 19.710938 16.289062 19.757812 16.308594 19.792969 16.355469 C 19.828125 16.394531 19.839844 16.441406 19.832031 16.496094 C 19.824219 16.550781 19.003906 20.695312 14.34375 20.695312 Z M 8.824219 16.863281 C 9.015625 17.640625 9.996094 20.332031 14.328125 20.335938 L 14.339844 20.335938 C 18.09375 20.335938 19.183594 17.484375 19.421875 16.660156 Z M 8.824219 16.863281 "/>
<path style=" stroke:none;fill-rule:nonzero;fill:rgb(100%,100%,100%);fill-opacity:1;" d="M 20.953125 15.4375 C 20.277344 16.179688 19.445312 17.132812 18.488281 17.945312 C 17.375 18.882812 16.085938 19.632812 14.675781 19.628906 C 13.386719 19.628906 11.828125 19.058594 10.46875 18.296875 C 9.242188 17.617188 8.179688 16.785156 7.613281 16.085938 C 6.417969 14.609375 4.175781 11.863281 6.925781 8.125 C 6.925781 8.125 5.402344 2.09375 7.042969 1.339844 C 8.6875 0.585938 10.984375 4.332031 10.984375 4.332031 C 10.984375 4.332031 13.316406 4.003906 13.914062 4.183594 C 13.914062 4.183594 14.988281 3.671875 16.542969 3.882812 C 16.542969 3.882812 18.183594 0.65625 19.886719 0.957031 C 21.589844 1.257812 20.875 7.796875 20.875 7.796875 C 20.875 7.796875 23.558594 12.574219 20.953125 15.4375 Z M 20.953125 15.4375 "/>
<path style=" stroke:none;fill-rule:nonzero;fill:rgb(83.918762%,83.918762%,83.918762%);fill-opacity:1;" d="M 12.484375 9.519531 C 12.324219 9.652344 12.144531 9.6875 11.945312 9.625 C 11.515625 9.5 11.082031 9.457031 10.636719 9.5 C 10.109375 9.539062 9.921875 8.21875 10.605469 7.933594 C 11.222656 7.6875 13.144531 8.929688 12.484375 9.519531 Z M 12.484375 9.519531 "/>
<path style=" stroke:none;fill-rule:nonzero;fill:rgb(83.918762%,83.918762%,83.918762%);fill-opacity:1;" d="M 16.507812 9.570312 C 16.699219 9.652344 16.878906 9.636719 17.050781 9.515625 C 17.425781 9.277344 17.835938 9.113281 18.269531 9.027344 C 18.785156 8.917969 19.011719 7.351562 17.832031 7.285156 C 17.171875 7.246094 15.710938 9.1875 16.507812 9.570312 Z M 16.507812 9.570312 "/>
<path style=" stroke:none;fill-rule:nonzero;fill:rgb(2.749634%,3.138733%,5.488586%);fill-opacity:1;" d="M 10.328125 10.363281 C 10.269531 10.292969 10.246094 10.210938 10.253906 10.121094 C 10.257812 10.03125 10.292969 9.957031 10.355469 9.890625 C 10.574219 9.667969 10.945312 9.363281 11.292969 9.421875 C 11.636719 9.480469 11.945312 9.820312 12.140625 10.078125 C 12.203125 10.15625 12.226562 10.246094 12.214844 10.347656 C 12.199219 10.449219 12.152344 10.53125 12.070312 10.59375 C 11.828125 10.789062 11.554688 10.898438 11.242188 10.929688 C 10.855469 10.949219 10.519531 10.609375 10.328125 10.363281 Z M 10.328125 10.363281 "/>
<path style=" stroke:none;fill-rule:nonzero;fill:rgb(2.749634%,3.138733%,5.488586%);fill-opacity:1;" d="M 18.320312 10.210938 C 18.375 10.140625 18.398438 10.058594 18.394531 9.972656 C 18.390625 9.882812 18.355469 9.804688 18.292969 9.742188 C 18.074219 9.519531 17.699219 9.210938 17.355469 9.269531 C 17.007812 9.328125 16.691406 9.679688 16.496094 9.9375 C 16.4375 10.011719 16.414062 10.101562 16.425781 10.199219 C 16.4375 10.292969 16.484375 10.375 16.558594 10.433594 C 16.804688 10.632812 17.085938 10.746094 17.398438 10.777344 C 17.792969 10.796875 18.128906 10.457031 18.320312 10.210938 Z M 18.320312 10.210938 "/>
<path style=" stroke:none;fill-rule:nonzero;fill:rgb(2.749634%,3.138733%,5.488586%);fill-opacity:1;" d="M 15.078125 14.542969 C 14.878906 14.6875 14.65625 14.765625 14.410156 14.777344 C 14.167969 14.792969 13.9375 14.742188 13.722656 14.625 C 13.140625 14.304688 12.425781 13.796875 12.515625 13.25 C 12.664062 12.34375 16.1875 12.40625 16.160156 13.070312 C 16.136719 13.585938 15.765625 14.054688 15.078125 14.542969 Z M 15.078125 14.542969 "/>
<path style=" stroke:none;fill-rule:nonzero;fill:rgb(83.918762%,83.918762%,83.918762%);fill-opacity:1;" d="M 8.855469 6.890625 C 8.855469 6.890625 7.378906 6.574219 7.246094 5.847656 C 7.109375 5.125 6.484375 2.953125 7.246094 2.683594 C 8.007812 2.410156 10.023438 4.3125 10.15625 4.785156 C 10.292969 5.261719 8.855469 6.890625 8.855469 6.890625 Z M 8.855469 6.890625 "/>
<path style=" stroke:none;fill-rule:nonzero;fill:rgb(83.918762%,83.918762%,83.918762%);fill-opacity:1;" d="M 17.855469 4.773438 C 17.855469 4.773438 18.96875 6.707031 19.921875 7.257812 C 20.398438 5.878906 20.5625 4.460938 20.414062 3.007812 C 20.148438 0.738281 18.566406 1.4375 17.855469 4.773438 Z M 17.855469 4.773438 "/>
<path style=" stroke:none;fill-rule:nonzero;fill:rgb(83.918762%,83.918762%,83.918762%);fill-opacity:1;" d="M 14.054688 7 C 14.054688 7 13.992188 9.488281 13.855469 9.761719 C 13.71875 9.972656 13.546875 10.144531 13.335938 10.28125 C 13.335938 10.28125 14.257812 9.835938 14.75 10.171875 C 14.75 10.171875 14.367188 9.964844 14.335938 9.625 C 14.300781 9.285156 14.054688 7 14.054688 7 Z M 14.054688 7 "/>
<path style=" stroke:none;fill-rule:nonzero;fill:rgb(100%,100%,100%);fill-opacity:1;" d="M 11.910156 10.066406 C 11.910156 10.207031 11.839844 10.277344 11.703125 10.277344 C 11.566406 10.277344 11.496094 10.207031 11.496094 10.066406 C 11.496094 9.929688 11.566406 9.859375 11.703125 9.859375 C 11.839844 9.859375 11.910156 9.929688 11.910156 10.066406 Z M 11.910156 10.066406 "/>
<path style=" stroke:none;fill-rule:nonzero;fill:rgb(83.918762%,83.918762%,83.918762%);fill-opacity:1;" d="M 14.636719 18.074219 C 13.507812 18.054688 12.25 17.050781 12.210938 15.597656 C 12.324219 16.109375 12.917969 15.773438 13.535156 15.882812 L 14.253906 16.324219 C 14.253906 16.324219 15.75 16.511719 16.25 16.003906 C 16.753906 15.492188 17.050781 15.457031 17.050781 15.457031 C 16.890625 16.527344 16.070312 18.097656 14.636719 18.074219 Z M 14.636719 18.074219 "/>
<path style=" stroke:none;fill-rule:nonzero;fill:rgb(100%,100%,100%);fill-opacity:1;" d="M 17.171875 9.859375 C 17.171875 9.996094 17.105469 10.066406 16.96875 10.066406 C 16.828125 10.066406 16.761719 9.996094 16.761719 9.859375 C 16.761719 9.71875 16.828125 9.652344 16.96875 9.652344 C 17.105469 9.652344 17.171875 9.71875 17.171875 9.859375 Z M 17.171875 9.859375 "/>
<path style=" stroke:none;fill-rule:nonzero;fill:rgb(100%,100%,100%);fill-opacity:1;" d="M 15.863281 12.976562 C 15.863281 13.066406 15.800781 13.140625 15.679688 13.203125 C 15.558594 13.261719 15.410156 13.292969 15.234375 13.292969 C 15.0625 13.292969 14.914062 13.261719 14.792969 13.203125 C 14.671875 13.140625 14.609375 13.066406 14.609375 12.976562 C 14.609375 12.890625 14.671875 12.816406 14.792969 12.753906 C 14.914062 12.691406 15.0625 12.660156 15.234375 12.660156 C 15.410156 12.660156 15.558594 12.691406 15.679688 12.753906 C 15.800781 12.816406 15.863281 12.890625 15.863281 12.976562 Z M 15.863281 12.976562 "/>
<path style=" stroke:none;fill-rule:nonzero;fill:rgb(20.779419%,20.779419%,20.779419%);fill-opacity:1;" d="M 12.484375 15.890625 C 12.484375 15.890625 14.085938 15.902344 14.496094 15.105469 C 14.496094 15.105469 15.511719 16.007812 16.644531 15.828125 C 16.644531 15.828125 16.011719 17.953125 14.617188 17.953125 C 13.222656 17.953125 12.484375 15.890625 12.484375 15.890625 Z M 12.484375 15.890625 "/>
<path style=" stroke:none;fill-rule:nonzero;fill:rgb(64.709473%,23.919678%,23.919678%);fill-opacity:1;" d="M 15.882812 15.890625 C 15.867188 16.171875 15.835938 16.457031 15.78125 16.734375 C 15.648438 17.449219 15.335938 18.328125 14.609375 18.328125 C 13.820312 18.328125 13.519531 17.3125 13.40625 16.609375 C 13.367188 16.390625 13.34375 16.171875 13.332031 15.949219 C 13.332031 15.949219 14.273438 15.695312 14.484375 15.09375 C 14.492188 15.105469 14.707031 15.707031 15.882812 15.890625 Z M 15.882812 15.890625 "/>
<path style=" stroke:none;fill-rule:nonzero;fill:rgb(54.119873%,16.079712%,16.468811%);fill-opacity:1;" d="M 15.882812 15.890625 C 15.867188 16.171875 15.835938 16.457031 15.78125 16.734375 C 15.523438 16.707031 15.242188 16.652344 15.15625 16.550781 C 15.046875 16.417969 14.914062 16.332031 14.746094 16.296875 C 14.582031 16.261719 14.421875 16.285156 14.273438 16.363281 C 13.996094 16.484375 13.707031 16.570312 13.40625 16.609375 C 13.367188 16.390625 13.34375 16.171875 13.332031 15.949219 C 13.332031 15.949219 14.273438 15.695312 14.484375 15.09375 C 14.492188 15.105469 14.707031 15.707031 15.882812 15.890625 Z M 15.882812 15.890625 "/>
<path style=" stroke:none;fill-rule:nonzero;fill:rgb(2.749634%,3.138733%,5.488586%);fill-opacity:1;" d="M 13.136719 16.070312 C 11.617188 16.070312 11.363281 14.738281 11.359375 14.726562 C 11.339844 14.605469 11.386719 14.535156 11.503906 14.515625 C 11.621094 14.492188 11.691406 14.542969 11.710938 14.660156 C 11.710938 14.703125 11.921875 15.707031 13.136719 15.707031 C 13.464844 15.726562 13.746094 15.625 13.984375 15.398438 C 14.203125 15.148438 14.3125 14.859375 14.320312 14.527344 C 14.316406 14.40625 14.375 14.34375 14.492188 14.339844 C 14.609375 14.339844 14.671875 14.398438 14.675781 14.515625 C 14.679688 14.949219 14.539062 15.328125 14.253906 15.65625 C 13.941406 15.957031 13.570312 16.097656 13.136719 16.070312 Z M 13.136719 16.070312 "/>
<path style=" stroke:none;fill-rule:nonzero;fill:rgb(2.749634%,3.138733%,5.488586%);fill-opacity:1;" d="M 15.882812 16.070312 C 15.453125 16.089844 15.082031 15.945312 14.777344 15.644531 C 14.492188 15.316406 14.351562 14.9375 14.351562 14.503906 C 14.355469 14.382812 14.417969 14.324219 14.535156 14.328125 C 14.65625 14.332031 14.714844 14.390625 14.710938 14.511719 C 14.714844 14.847656 14.820312 15.140625 15.039062 15.390625 C 15.277344 15.617188 15.558594 15.71875 15.882812 15.699219 C 17.109375 15.699219 17.304688 14.695312 17.308594 14.652344 C 17.332031 14.535156 17.402344 14.488281 17.515625 14.511719 C 17.632812 14.53125 17.679688 14.601562 17.660156 14.71875 C 17.65625 14.738281 17.40625 16.070312 15.882812 16.070312 Z M 15.882812 16.070312 "/>
<path style=" stroke:none;fill-rule:nonzero;fill:rgb(64.709473%,23.919678%,23.919678%);fill-opacity:1;" d="M 14.527344 14.957031 L 14.558594 17.382812 "/>
<path style=" stroke:none;fill-rule:nonzero;fill:rgb(2.749634%,3.138733%,5.488586%);fill-opacity:1;" d="M 14.558594 17.472656 C 14.5 17.472656 14.46875 17.441406 14.46875 17.382812 L 14.4375 14.960938 C 14.429688 14.890625 14.460938 14.859375 14.527344 14.859375 C 14.597656 14.859375 14.625 14.890625 14.617188 14.960938 L 14.644531 17.382812 C 14.648438 17.441406 14.617188 17.472656 14.558594 17.472656 Z M 14.558594 17.472656 "/>
<path style=" stroke:none;fill-rule:nonzero;fill:rgb(82.749939%,12.548828%,15.289307%);fill-opacity:1;" d="M 13.894531 23.808594 L 11.921875 21.503906 L 12.875 20.554688 L 16.386719 20.554688 L 17.339844 21.519531 L 15.390625 23.808594 Z M 13.894531 23.808594 "/>
<path style=" stroke:none;fill-rule:nonzero;fill:rgb(13.729858%,12.159729%,12.548828%);fill-opacity:1;" d="M 16.347656 20.644531 L 17.21875 21.523438 L 15.347656 23.71875 L 13.9375 23.71875 L 12.046875 21.507812 L 12.914062 20.644531 L 16.347656 20.644531 M 16.421875 20.460938 L 12.835938 20.460938 L 12.785156 20.515625 L 11.917969 21.378906 L 11.800781 21.5 L 11.910156 21.628906 L 13.800781 23.835938 L 13.851562 23.898438 L 15.429688 23.898438 L 15.484375 23.835938 L 17.355469 21.640625 L 17.460938 21.511719 L 17.34375 21.394531 L 16.476562 20.511719 L 16.421875 20.457031 Z M 16.421875 20.460938 "/>
<path style=" stroke:none;fill-rule:nonzero;fill:rgb(94.119263%,91.758728%,17.248535%);fill-opacity:1;" d="M 13.148438 20.96875 L 16.191406 20.96875 L 16.75 21.558594 L 15.21875 23.351562 L 14.078125 23.371094 L 12.542969 21.570312 Z M 13.148438 20.96875 "/>
<path style=" stroke:none;fill-rule:nonzero;fill:rgb(1.959229%,2.349854%,2.349854%);fill-opacity:1;" d="M 14.058594 23.417969 L 12.484375 21.566406 L 13.128906 20.921875 L 16.210938 20.921875 L 16.808594 21.554688 L 16.78125 21.582031 L 15.242188 23.394531 Z M 12.605469 21.574219 L 14.101562 23.328125 L 15.199219 23.308594 L 16.6875 21.558594 L 16.171875 21.015625 L 13.167969 21.015625 Z M 12.605469 21.574219 "/>
<path style=" stroke:none;fill-rule:nonzero;fill:rgb(82.749939%,12.548828%,15.289307%);fill-opacity:1;" d="M 13.597656 22.503906 L 13.597656 22.394531 L 13.921875 22.394531 L 13.921875 22.527344 C 13.921875 22.667969 13.992188 22.714844 14.101562 22.714844 C 14.210938 22.714844 14.28125 22.664062 14.28125 22.519531 C 14.28125 22.375 14.210938 22.261719 13.984375 22.09375 C 13.703125 21.871094 13.601562 21.714844 13.601562 21.496094 C 13.601562 21.195312 13.78125 21.019531 14.117188 21.019531 C 14.453125 21.019531 14.621094 21.195312 14.621094 21.5 L 14.621094 21.582031 L 14.292969 21.582031 L 14.292969 21.480469 C 14.292969 21.339844 14.230469 21.292969 14.121094 21.292969 C 14.011719 21.292969 13.949219 21.34375 13.949219 21.476562 C 13.949219 21.605469 14.019531 21.71875 14.246094 21.890625 C 14.527344 22.113281 14.625 22.265625 14.625 22.503906 C 14.625 22.816406 14.445312 22.992188 14.105469 22.992188 C 13.765625 22.992188 13.597656 22.816406 13.597656 22.503906 Z M 13.597656 22.503906 "/>
<path style=" stroke:none;fill-rule:nonzero;fill:rgb(13.729858%,12.159729%,12.548828%);fill-opacity:1;" d="M 14.105469 23.035156 C 13.75 23.035156 13.550781 22.851562 13.550781 22.507812 L 13.550781 22.355469 L 13.972656 22.355469 L 13.972656 22.53125 C 13.972656 22.632812 14.011719 22.671875 14.109375 22.671875 C 14.203125 22.671875 14.25 22.648438 14.25 22.53125 C 14.25 22.414062 14.1875 22.296875 13.96875 22.132812 C 13.671875 21.90625 13.566406 21.742188 13.566406 21.5 C 13.566406 21.171875 13.769531 20.980469 14.132812 20.980469 C 14.492188 20.980469 14.679688 21.167969 14.679688 21.507812 L 14.679688 21.632812 L 14.253906 21.632812 L 14.253906 21.488281 C 14.253906 21.371094 14.203125 21.347656 14.128906 21.347656 C 14.050781 21.347656 14 21.386719 14 21.488281 C 14 21.59375 14.042969 21.6875 14.28125 21.867188 C 14.578125 22.09375 14.679688 22.257812 14.679688 22.515625 C 14.671875 22.84375 14.460938 23.035156 14.105469 23.035156 Z M 13.640625 22.445312 L 13.640625 22.503906 C 13.640625 22.789062 13.796875 22.941406 14.105469 22.941406 C 14.414062 22.941406 14.582031 22.789062 14.582031 22.5 C 14.582031 22.273438 14.492188 22.132812 14.21875 21.921875 C 13.984375 21.742188 13.902344 21.628906 13.902344 21.472656 C 13.894531 21.40625 13.910156 21.351562 13.957031 21.304688 C 14 21.257812 14.054688 21.234375 14.121094 21.242188 C 14.21875 21.242188 14.339844 21.285156 14.339844 21.476562 L 14.339844 21.53125 L 14.574219 21.53125 L 14.574219 21.507812 C 14.574219 21.222656 14.421875 21.070312 14.117188 21.070312 C 13.8125 21.070312 13.648438 21.21875 13.648438 21.496094 C 13.648438 21.707031 13.738281 21.851562 14.011719 22.058594 C 14.25 22.238281 14.324219 22.355469 14.324219 22.527344 C 14.335938 22.59375 14.316406 22.652344 14.269531 22.703125 C 14.226562 22.75 14.167969 22.773438 14.101562 22.765625 C 14.035156 22.773438 13.980469 22.753906 13.933594 22.703125 C 13.886719 22.65625 13.867188 22.601562 13.878906 22.535156 L 13.878906 22.449219 Z M 13.640625 22.445312 "/>
<path style=" stroke:none;fill-rule:nonzero;fill:rgb(82.749939%,12.548828%,15.289307%);fill-opacity:1;" d="M 14.625 22.503906 L 14.625 22.394531 L 14.953125 22.394531 L 14.953125 22.527344 C 14.953125 22.667969 15.023438 22.714844 15.132812 22.714844 C 15.242188 22.714844 15.3125 22.664062 15.3125 22.519531 C 15.3125 22.375 15.242188 22.261719 15.015625 22.09375 C 14.730469 21.871094 14.632812 21.714844 14.632812 21.496094 C 14.632812 21.195312 14.8125 21.019531 15.148438 21.019531 C 15.484375 21.019531 15.648438 21.195312 15.648438 21.5 L 15.648438 21.582031 L 15.324219 21.582031 L 15.324219 21.480469 C 15.324219 21.339844 15.261719 21.292969 15.148438 21.292969 C 15.039062 21.292969 14.976562 21.34375 14.976562 21.476562 C 14.976562 21.605469 15.050781 21.71875 15.277344 21.890625 C 15.558594 22.113281 15.65625 22.265625 15.65625 22.503906 C 15.65625 22.816406 15.472656 22.992188 15.132812 22.992188 C 14.796875 22.992188 14.625 22.816406 14.625 22.503906 Z M 14.625 22.503906 "/>
<path style=" stroke:none;fill-rule:nonzero;fill:rgb(13.729858%,12.159729%,12.548828%);fill-opacity:1;" d="M 15.132812 23.035156 C 14.777344 23.035156 14.582031 22.851562 14.582031 22.507812 L 14.582031 22.355469 L 15.003906 22.355469 L 15.003906 22.53125 C 15.003906 22.632812 15.042969 22.671875 15.144531 22.671875 C 15.25 22.671875 15.28125 22.648438 15.28125 22.53125 C 15.28125 22.414062 15.21875 22.296875 14.996094 22.132812 C 14.703125 21.90625 14.597656 21.742188 14.597656 21.5 C 14.597656 21.171875 14.800781 20.980469 15.160156 20.980469 C 15.519531 20.980469 15.707031 21.167969 15.707031 21.507812 L 15.707031 21.632812 L 15.277344 21.632812 L 15.277344 21.488281 C 15.277344 21.371094 15.226562 21.347656 15.148438 21.347656 C 15.074219 21.347656 15.023438 21.386719 15.023438 21.488281 C 15.023438 21.59375 15.066406 21.6875 15.304688 21.867188 C 15.601562 22.09375 15.703125 22.257812 15.703125 22.515625 C 15.699219 22.84375 15.496094 23.035156 15.132812 23.035156 Z M 14.671875 22.445312 L 14.671875 22.503906 C 14.671875 22.789062 14.828125 22.941406 15.132812 22.941406 C 15.441406 22.941406 15.609375 22.789062 15.609375 22.5 C 15.609375 22.273438 15.523438 22.132812 15.25 21.921875 C 15.011719 21.742188 14.933594 21.628906 14.933594 21.472656 C 14.921875 21.40625 14.941406 21.351562 14.984375 21.304688 C 15.03125 21.257812 15.085938 21.234375 15.148438 21.242188 C 15.25 21.242188 15.367188 21.285156 15.367188 21.476562 L 15.367188 21.53125 L 15.605469 21.53125 L 15.605469 21.507812 C 15.605469 21.222656 15.449219 21.070312 15.148438 21.070312 C 14.84375 21.070312 14.675781 21.21875 14.675781 21.496094 C 14.675781 21.707031 14.769531 21.851562 15.042969 22.058594 C 15.277344 22.238281 15.355469 22.355469 15.355469 22.527344 C 15.363281 22.59375 15.347656 22.652344 15.300781 22.703125 C 15.253906 22.75 15.199219 22.773438 15.132812 22.765625 C 15.066406 22.773438 15.007812 22.753906 14.964844 22.707031 C 14.917969 22.65625 14.898438 22.601562 14.90625 22.535156 L 14.90625 22.449219 Z M 14.671875 22.445312 "/>
<path style=" stroke:none;fill-rule:nonzero;fill:rgb(82.749939%,12.548828%,15.289307%);fill-opacity:1;" d="M 14.417969 20.101562 L 14.832031 20.101562 L 14.832031 20.863281 L 14.417969 20.863281 Z M 14.417969 20.101562 "/>
<path style=" stroke:none;fill-rule:nonzero;fill:rgb(13.729858%,12.159729%,12.548828%);fill-opacity:1;" d="M 14.882812 20.90625 L 14.378906 20.90625 L 14.378906 20.054688 L 14.882812 20.054688 Z M 14.46875 20.816406 L 14.792969 20.816406 L 14.792969 20.148438 L 14.460938 20.148438 Z M 14.46875 20.816406 "/>
<path style=" stroke:none;fill-rule:nonzero;fill:rgb(2.749634%,3.138733%,5.488586%);fill-opacity:1;" d="M 14.679688 19.8125 C 12.109375 19.8125 8.640625 17.636719 7.480469 16.199219 L 7.46875 16.183594 C 6.253906 14.679688 3.996094 11.890625 6.738281 8.085938 C 6.507812 7.15625 5.308594 1.941406 6.976562 1.175781 C 8.601562 0.429688 10.683594 3.515625 11.078125 4.132812 C 11.574219 4.0625 13.277344 3.847656 13.902344 3.988281 C 14.722656 3.675781 15.570312 3.574219 16.441406 3.683594 C 16.761719 3.09375 18.277344 0.484375 19.917969 0.777344 C 21.691406 1.089844 21.152344 6.847656 21.058594 7.757812 C 21.359375 8.316406 23.628906 12.761719 21.082031 15.5625 L 20.828125 15.847656 C 19.402344 17.421875 17.242188 19.8125 14.679688 19.8125 Z M 7.757812 15.964844 C 8.875 17.347656 12.210938 19.441406 14.679688 19.441406 C 17.082031 19.441406 19.097656 17.214844 20.566406 15.59375 L 20.820312 15.308594 C 23.308594 12.574219 20.75 7.921875 20.722656 7.875 C 20.703125 7.84375 20.695312 7.808594 20.699219 7.769531 C 20.96875 5.304688 20.984375 1.320312 19.863281 1.121094 C 18.308594 0.847656 16.722656 3.917969 16.707031 3.949219 C 16.667969 4.027344 16.609375 4.058594 16.523438 4.046875 C 15.65625 3.914062 14.8125 4.007812 13.996094 4.332031 C 13.957031 4.351562 13.914062 4.355469 13.867188 4.34375 C 13.410156 4.199219 11.652344 4.410156 11.015625 4.5 C 10.9375 4.511719 10.878906 4.484375 10.835938 4.414062 C 10.226562 3.417969 8.355469 0.941406 7.121094 1.503906 C 5.882812 2.070312 6.695312 6.445312 7.105469 8.082031 C 7.117188 8.136719 7.109375 8.1875 7.074219 8.234375 C 4.421875 11.84375 6.582031 14.527344 7.742188 15.949219 Z M 7.757812 15.964844 "/>
<path style=" stroke:none;fill-rule:nonzero;fill:rgb(2.749634%,3.138733%,5.488586%);fill-opacity:1;" d="M 14.609375 18.421875 C 13.332031 18.421875 13.25 16.058594 13.25 15.957031 C 13.246094 15.910156 13.269531 15.882812 13.3125 15.871094 C 13.324219 15.871094 14.210938 15.617188 14.40625 15.074219 C 14.421875 15.035156 14.449219 15.015625 14.492188 15.015625 C 14.53125 15.015625 14.5625 15.035156 14.574219 15.074219 C 14.574219 15.074219 14.796875 15.628906 15.894531 15.800781 C 15.945312 15.808594 15.972656 15.839844 15.972656 15.890625 C 15.96875 15.996094 15.886719 18.421875 14.609375 18.421875 Z M 13.429688 16.023438 C 13.453125 16.40625 13.617188 18.242188 14.609375 18.242188 C 15.605469 18.242188 15.765625 16.375 15.789062 15.960938 C 14.996094 15.816406 14.644531 15.492188 14.5 15.292969 C 14.238281 15.730469 13.636719 15.949219 13.429688 16.023438 Z M 13.429688 16.023438 "/>
<path style=" stroke:none;fill-rule:nonzero;fill:rgb(98.429871%,96.469116%,74.899292%);fill-opacity:1;" d="M 15.71875 21.183594 L 16.136719 21.183594 L 16.53125 21.597656 L 15.898438 22.316406 C 15.898438 22.316406 16.390625 21.632812 16.15625 21.40625 C 16.039062 21.277344 15.894531 21.203125 15.71875 21.183594 Z M 15.71875 21.183594 "/>
</g>
</svg>
