<?xml version="1.0" encoding="UTF-8"?>
<svg xmlns="http://www.w3.org/2000/svg" xmlns:xlink="http://www.w3.org/1999/xlink" width="253.5pt" height="83.999999pt" viewBox="0 0 253.5 83.999999" version="1.2">
<defs>
<clipPath id="clip1">
  <path d="M 82 0.0820312 L 127 0.0820312 L 127 31 L 82 31 Z M 82 0.0820312 "/>
</clipPath>
<clipPath id="clip2">
  <path d="M 79.140625 49 L 126 49 L 126 83 L 79.140625 83 Z M 79.140625 49 "/>
</clipPath>
<clipPath id="clip3">
  <path d="M 127 48 L 174.390625 48 L 174.390625 82 L 127 82 Z M 127 48 "/>
</clipPath>
</defs>
<g id="surface1">
<path style=" stroke:none;fill-rule:nonzero;fill:rgb(100%,100%,100%);fill-opacity:1;" d="M 114.785156 19.574219 L 93.398438 19.574219 C 93.398438 19.574219 93.566406 15.882812 99.160156 16.546875 C 99.160156 16.546875 97.996094 11.976562 102.9375 11.308594 C 107.433594 10.703125 108.808594 14.949219 108.808594 14.949219 C 108.808594 14.949219 109.941406 13.609375 112.238281 14.894531 C 113.320312 15.496094 113.175781 16.960938 113.175781 16.960938 C 113.175781 16.960938 114.972656 16.972656 115.367188 18.304688 C 115.761719 19.636719 114.785156 19.574219 114.785156 19.574219 Z M 114.785156 19.574219 "/>
<g clip-path="url(#clip1)" clip-rule="nonzero">
<path style="fill:none;stroke-width:8;stroke-linecap:butt;stroke-linejoin:miter;stroke:rgb(13.729858%,12.159729%,12.548828%);stroke-opacity:1;stroke-miterlimit:10;" d="M 374.089429 322.311913 L 149.63978 322.311913 C 149.63978 322.311913 151.402581 283.571289 210.10795 290.540502 C 210.10795 290.540502 197.89133 242.575919 249.750473 235.565711 C 296.936143 229.211429 311.366513 273.773396 311.366513 273.773396 C 311.366513 273.773396 323.25517 259.711984 347.360448 273.19946 C 358.716165 279.512747 357.199336 294.886011 357.199336 294.886011 C 357.199336 294.886011 376.057206 295.008997 380.197739 308.988418 C 384.338271 322.967839 374.089429 322.311913 374.089429 322.311913 Z M 374.089429 322.311913 " transform="matrix(0.0952852,0,0,0.0952852,79.139988,-11.137321)"/>
</g>
<path style=" stroke:none;fill-rule:nonzero;fill:rgb(83.918762%,83.918762%,83.918762%);fill-opacity:1;" d="M 149.335938 45.558594 L 141.847656 54.226562 C 141.847656 54.226562 140.339844 58.164062 136.613281 59.851562 C 132.890625 61.535156 130.082031 60.78125 127.847656 60.886719 C 125.613281 60.992188 123.253906 60.675781 120.648438 60.570312 C 118.039062 60.464844 113.589844 60.964844 110.636719 54.601562 C 108.332031 49.636719 105.101562 46.558594 103.816406 45.460938 C 103.867188 45.210938 103.917969 44.976562 103.960938 44.753906 C 104.339844 44.625 104.84375 44.457031 105.425781 44.277344 C 107.636719 48.085938 111.269531 54.648438 114.503906 54.925781 C 118.65625 55.277344 117.683594 53.117188 120.164062 52.292969 C 122.640625 51.46875 131.214844 51.484375 135.597656 53.753906 C 139.371094 55.710938 142.34375 50.703125 142.34375 50.703125 C 142.34375 50.703125 144.449219 47.257812 146.121094 44.546875 Z M 149.335938 45.558594 "/>
<path style=" stroke:none;fill-rule:nonzero;fill:rgb(66.268921%,12.159729%,13.729858%);fill-opacity:1;" d="M 102.265625 31.945312 C 102.125 31.671875 96.078125 29.449219 96.078125 29.449219 C 96.078125 29.449219 93.125 29.703125 90.734375 32.65625 C 90.734375 32.65625 98.3125 32.734375 104.429688 38.351562 C 110.542969 43.964844 146.214844 38.984375 146.214844 38.984375 C 146.214844 38.984375 161.605469 30.03125 165.542969 30.429688 C 165.542969 30.429688 161.324219 27.027344 157.667969 26.605469 C 154.011719 26.1875 135.914062 35.046875 135.914062 35.046875 C 135.914062 35.046875 111.40625 36.078125 110.984375 35.773438 C 110.5625 35.46875 102.265625 31.945312 102.265625 31.945312 Z M 102.265625 31.945312 "/>
<path style=" stroke:none;fill-rule:nonzero;fill:rgb(2.749634%,3.138733%,5.488586%);fill-opacity:1;" d="M 119.636719 41.449219 C 112.664062 41.449219 106.445312 40.773438 104.144531 38.660156 C 98.226562 33.230469 90.804688 33.078125 90.730469 33.078125 C 90.554688 33.074219 90.429688 32.996094 90.355469 32.835938 C 90.28125 32.675781 90.296875 32.527344 90.40625 32.390625 C 92.886719 29.335938 95.914062 29.039062 96.042969 29.027344 C 96.105469 29.023438 96.164062 29.03125 96.226562 29.054688 C 100.785156 30.730469 102.0625 31.308594 102.453125 31.566406 C 104.351562 32.371094 110.28125 34.902344 111.148438 35.378906 C 112.304688 35.539062 126.429688 35.019531 135.808594 34.625 C 137.285156 33.90625 154.058594 25.753906 157.71875 26.1875 C 161.453125 26.617188 165.632812 29.957031 165.808594 30.097656 C 165.972656 30.230469 166.015625 30.394531 165.933594 30.585938 C 165.855469 30.78125 165.710938 30.867188 165.5 30.847656 C 162.492188 30.546875 151.710938 36.277344 146.425781 39.347656 C 146.378906 39.375 146.328125 39.390625 146.273438 39.398438 C 145.351562 39.53125 131.410156 41.449219 119.636719 41.449219 Z M 91.621094 32.289062 C 93.828125 32.488281 99.710938 33.445312 104.710938 38.039062 C 110.472656 43.328125 144.164062 38.835938 146.070312 38.578125 C 147.25 37.894531 159.316406 30.960938 164.367188 30.085938 C 162.949219 29.09375 160.121094 27.316406 157.617188 27.027344 C 154.707031 26.703125 141.097656 32.976562 136.097656 35.425781 C 136.042969 35.453125 135.988281 35.464844 135.929688 35.46875 C 111.277344 36.503906 110.882812 36.21875 110.738281 36.117188 C 110.363281 35.875 105.242188 33.667969 102.101562 32.332031 C 102.046875 32.3125 102 32.28125 101.957031 32.238281 C 101.535156 31.964844 98.292969 30.714844 96.027344 29.882812 C 95.585938 29.945312 93.515625 30.34375 91.621094 32.289062 Z M 111.203125 35.414062 L 111.230469 35.429688 Z M 111.113281 35.375 L 101.890625 32.140625 Z M 111.113281 35.375 Z M 111.113281 35.375 "/>
<path style=" stroke:none;fill-rule:nonzero;fill:rgb(83.918762%,17.248535%,16.468811%);fill-opacity:1;" d="M 112.300781 45.734375 C 112.300781 45.734375 108.664062 42.433594 105.25 41.34375 C 101.835938 40.25 100.15625 33.695312 96.078125 29.453125 C 96.078125 29.453125 100.019531 28.671875 104.429688 29.835938 C 110.835938 31.519531 137.628906 33.914062 140.054688 31.953125 C 142.480469 29.992188 146.839844 26.972656 151.480469 26.9375 C 156.121094 26.902344 157.667969 26.617188 157.667969 26.617188 C 157.667969 26.617188 149.140625 38.929688 144.613281 41.351562 C 140.085938 43.773438 136.128906 48.308594 136.128906 48.308594 Z M 112.300781 45.734375 "/>
<path style=" stroke:none;fill-rule:nonzero;fill:rgb(2.749634%,3.138733%,5.488586%);fill-opacity:1;" d="M 136.128906 48.722656 L 136.085938 48.722656 L 112.261719 46.152344 C 112.171875 46.140625 112.09375 46.105469 112.023438 46.042969 C 111.988281 46.011719 108.414062 42.796875 105.132812 41.742188 C 103.039062 41.074219 101.632812 38.648438 100 35.835938 C 98.832031 33.820312 97.507812 31.539062 95.777344 29.738281 C 95.664062 29.617188 95.628906 29.476562 95.679688 29.316406 C 95.730469 29.160156 95.835938 29.0625 96 29.03125 C 96.164062 29 100.089844 28.242188 104.542969 29.414062 C 111.117188 31.144531 137.636719 33.355469 139.796875 31.613281 C 143.960938 28.246094 147.894531 26.527344 151.484375 26.5 C 156.007812 26.464844 157.582031 26.191406 157.597656 26.1875 C 157.785156 26.152344 157.925781 26.214844 158.03125 26.375 C 158.132812 26.53125 158.128906 26.6875 158.023438 26.84375 C 157.671875 27.347656 149.382812 39.265625 144.820312 41.707031 C 140.414062 44.066406 136.492188 48.527344 136.453125 48.570312 C 136.367188 48.671875 136.261719 48.722656 136.128906 48.722656 Z M 112.484375 45.328125 L 135.960938 47.859375 C 136.726562 47 140.3125 43.167969 144.417969 40.96875 C 148.152344 38.96875 154.832031 29.863281 156.777344 27.140625 C 155.851562 27.222656 154.191406 27.328125 151.484375 27.347656 C 148.089844 27.375 144.332031 29.03125 140.320312 32.273438 C 137.535156 34.527344 110.101562 31.757812 104.320312 30.234375 C 101.1875 29.410156 98.265625 29.59375 96.925781 29.75 C 98.460938 31.507812 99.65625 33.570312 100.726562 35.414062 C 102.269531 38.074219 103.601562 40.367188 105.382812 40.941406 C 108.558594 41.957031 111.851562 44.769531 112.484375 45.328125 Z M 112.484375 45.328125 "/>
<path style=" stroke:none;fill-rule:nonzero;fill:rgb(2.749634%,3.138733%,5.488586%);fill-opacity:1;" d="M 131.234375 61.386719 C 130.660156 61.386719 130.128906 61.363281 129.625 61.339844 C 128.996094 61.308594 128.40625 61.28125 127.863281 61.308594 C 126.398438 61.375 124.898438 61.269531 123.308594 61.15625 C 122.445312 61.09375 121.546875 61.027344 120.625 60.992188 C 120.40625 60.980469 120.175781 60.976562 119.933594 60.972656 C 117.195312 60.917969 113.0625 60.839844 110.25 54.777344 C 107.980469 49.886719 104.796875 46.855469 103.535156 45.78125 C 103.203125 45.496094 103.007812 45.347656 103 45.34375 C 102.863281 45.242188 102.808594 45.109375 102.832031 44.945312 C 102.855469 44.777344 102.945312 44.664062 103.105469 44.605469 C 103.105469 44.605469 103.371094 44.511719 103.816406 44.351562 C 104.199219 44.222656 104.707031 44.054688 105.292969 43.867188 C 107.351562 43.226562 110.144531 42.492188 111.765625 42.644531 C 114.308594 42.878906 139.367188 42.101562 139.621094 42.09375 C 139.667969 42.089844 139.714844 42.097656 139.761719 42.113281 L 149.460938 45.15625 C 149.527344 45.179688 149.585938 45.214844 149.636719 45.265625 C 149.683594 45.316406 149.71875 45.375 149.738281 45.445312 C 149.757812 45.511719 149.757812 45.582031 149.742188 45.652344 C 149.726562 45.71875 149.699219 45.78125 149.652344 45.835938 L 142.21875 54.449219 C 141.984375 55.019531 140.398438 58.601562 136.789062 60.230469 C 134.664062 61.191406 132.820312 61.386719 131.234375 61.386719 Z M 128.328125 60.453125 C 128.757812 60.453125 129.203125 60.472656 129.664062 60.496094 C 131.574219 60.582031 133.738281 60.6875 136.4375 59.464844 C 139.964844 57.867188 141.441406 54.109375 141.453125 54.074219 C 141.472656 54.027344 141.496094 53.988281 141.527344 53.949219 L 148.601562 45.769531 L 139.582031 42.9375 C 137.808594 42.992188 114.238281 43.71875 111.691406 43.484375 C 110.511719 43.367188 108.390625 43.78125 105.546875 44.671875 C 104.976562 44.855469 104.46875 45.023438 104.097656 45.148438 C 105.40625 46.269531 108.679688 49.394531 111.015625 54.417969 C 113.605469 60 117.269531 60.074219 119.949219 60.125 C 120.199219 60.128906 120.433594 60.136719 120.660156 60.144531 C 121.59375 60.183594 122.496094 60.246094 123.371094 60.308594 C 124.933594 60.421875 126.410156 60.527344 127.824219 60.460938 C 127.988281 60.457031 128.15625 60.453125 128.328125 60.453125 Z M 128.328125 60.453125 "/>
<path style=" stroke:none;fill-rule:nonzero;fill:rgb(83.918762%,17.248535%,16.468811%);fill-opacity:1;" d="M 112.863281 45.375 C 112.863281 45.375 114.136719 54.289062 126.355469 54.300781 C 137.121094 54.316406 138.878906 44.878906 138.878906 44.878906 Z M 112.863281 45.375 "/>
<path style=" stroke:none;fill-rule:nonzero;fill:rgb(2.749634%,3.138733%,5.488586%);fill-opacity:1;" d="M 126.375 54.722656 L 126.355469 54.722656 C 113.917969 54.710938 112.460938 45.523438 112.441406 45.433594 C 112.425781 45.308594 112.457031 45.195312 112.539062 45.097656 C 112.621094 45.003906 112.726562 44.953125 112.851562 44.953125 L 138.863281 44.457031 C 138.996094 44.460938 139.105469 44.511719 139.195312 44.609375 C 139.28125 44.710938 139.3125 44.828125 139.289062 44.957031 C 139.273438 45.054688 137.34375 54.722656 126.375 54.722656 Z M 113.378906 45.785156 C 113.832031 47.59375 116.144531 53.867188 126.355469 53.882812 L 126.375 53.882812 C 135.332031 53.882812 137.808594 47.25 138.339844 45.316406 Z M 113.378906 45.785156 "/>
<path style=" stroke:none;fill-rule:nonzero;fill:rgb(100%,100%,100%);fill-opacity:1;" d="M 141.933594 42.453125 C 140.347656 44.183594 138.390625 46.410156 136.128906 48.300781 C 133.511719 50.492188 130.492188 52.238281 127.171875 52.234375 C 124.136719 52.234375 120.472656 50.898438 117.269531 49.128906 C 114.386719 47.542969 111.878906 45.601562 110.546875 43.964844 C 107.730469 40.523438 102.460938 34.125 108.925781 25.402344 C 108.925781 25.402344 105.339844 11.34375 109.210938 9.585938 C 113.082031 7.828125 118.484375 16.542969 118.484375 16.542969 C 118.484375 16.542969 123.976562 15.769531 125.382812 16.191406 C 125.382812 16.191406 127.914062 14.996094 131.570312 15.488281 C 131.570312 15.488281 135.4375 7.964844 139.445312 8.667969 C 143.453125 9.375 141.761719 24.632812 141.761719 24.632812 C 141.761719 24.632812 148.066406 35.777344 141.933594 42.453125 Z M 141.933594 42.453125 "/>
<path style=" stroke:none;fill-rule:nonzero;fill:rgb(83.918762%,83.918762%,83.918762%);fill-opacity:1;" d="M 122 28.660156 C 121.625 28.972656 121.203125 29.054688 120.738281 28.898438 C 120.179688 28.726562 119.128906 28.503906 117.648438 28.613281 C 116.414062 28.710938 115.96875 25.613281 117.582031 24.964844 C 119.027344 24.382812 123.550781 27.277344 122 28.660156 Z M 122 28.660156 "/>
<path style=" stroke:none;fill-rule:nonzero;fill:rgb(83.918762%,83.918762%,83.918762%);fill-opacity:1;" d="M 131.46875 28.777344 C 131.917969 28.972656 132.34375 28.933594 132.746094 28.652344 C 133.234375 28.332031 134.175781 27.820312 135.628906 27.507812 C 136.839844 27.25 137.371094 23.597656 134.59375 23.441406 C 133.035156 23.355469 129.589844 27.886719 131.46875 28.777344 Z M 131.46875 28.777344 "/>
<path style=" stroke:none;fill-rule:nonzero;fill:rgb(2.749634%,3.138733%,5.488586%);fill-opacity:1;" d="M 116.921875 30.625 C 116.789062 30.460938 116.730469 30.273438 116.746094 30.0625 C 116.757812 29.851562 116.839844 29.671875 116.984375 29.523438 C 117.503906 29 118.378906 28.292969 119.191406 28.429688 C 119.972656 28.558594 120.730469 29.363281 121.191406 29.953125 C 121.339844 30.140625 121.398438 30.351562 121.367188 30.589844 C 121.335938 30.828125 121.222656 31.015625 121.03125 31.160156 C 120.566406 31.507812 119.871094 31.902344 119.085938 31.941406 C 118.164062 31.988281 117.371094 31.199219 116.921875 30.625 Z M 116.921875 30.625 "/>
<path style=" stroke:none;fill-rule:nonzero;fill:rgb(2.749634%,3.138733%,5.488586%);fill-opacity:1;" d="M 135.738281 30.269531 C 135.867188 30.105469 135.925781 29.917969 135.914062 29.710938 C 135.902344 29.503906 135.820312 29.324219 135.675781 29.175781 C 135.15625 28.652344 134.28125 27.9375 133.464844 28.078125 C 132.671875 28.207031 131.90625 29.03125 131.445312 29.625 C 131.304688 29.808594 131.25 30.011719 131.28125 30.238281 C 131.308594 30.464844 131.414062 30.648438 131.59375 30.789062 C 132.0625 31.144531 132.765625 31.550781 133.570312 31.59375 C 134.492188 31.636719 135.285156 30.84375 135.738281 30.269531 Z M 135.738281 30.269531 "/>
<path style=" stroke:none;fill-rule:nonzero;fill:rgb(2.749634%,3.138733%,5.488586%);fill-opacity:1;" d="M 128.109375 40.375 C 127.636719 40.707031 127.113281 40.890625 126.539062 40.925781 C 125.960938 40.957031 125.421875 40.839844 124.914062 40.5625 C 123.542969 39.820312 121.863281 38.632812 122.074219 37.363281 C 122.425781 35.253906 130.722656 35.394531 130.648438 36.941406 C 130.59375 38.144531 129.726562 39.238281 128.109375 40.375 Z M 128.109375 40.375 "/>
<path style=" stroke:none;fill-rule:nonzero;fill:rgb(83.918762%,83.918762%,83.918762%);fill-opacity:1;" d="M 113.460938 22.523438 C 113.460938 22.523438 109.980469 21.785156 109.664062 20.097656 C 109.347656 18.410156 107.871094 13.347656 109.664062 12.714844 C 111.457031 12.082031 116.203125 16.511719 116.519531 17.617188 C 116.835938 18.726562 113.460938 22.523438 113.460938 22.523438 Z M 113.460938 22.523438 "/>
<path style=" stroke:none;fill-rule:nonzero;fill:rgb(83.918762%,83.918762%,83.918762%);fill-opacity:1;" d="M 134.640625 17.585938 C 134.640625 17.585938 137.261719 22.101562 139.511719 23.367188 C 139.511719 23.367188 141.304688 18.726562 140.671875 13.457031 C 140.035156 8.1875 136.3125 9.804688 134.640625 17.585938 Z M 134.640625 17.585938 "/>
<path style=" stroke:none;fill-rule:nonzero;fill:rgb(83.918762%,83.918762%,83.918762%);fill-opacity:1;" d="M 125.695312 22.785156 C 125.695312 22.785156 125.554688 28.585938 125.226562 29.21875 C 124.902344 29.851562 124.007812 30.429688 124.007812 30.429688 C 124.007812 30.429688 126.167969 29.394531 127.328125 30.175781 C 127.328125 30.175781 126.433594 29.691406 126.355469 28.902344 C 126.273438 28.109375 125.695312 22.785156 125.695312 22.785156 Z M 125.695312 22.785156 "/>
<path style=" stroke:none;fill-rule:nonzero;fill:rgb(100%,100%,100%);fill-opacity:1;" d="M 120.644531 29.933594 C 120.644531 30.070312 120.597656 30.183594 120.503906 30.277344 C 120.40625 30.375 120.292969 30.421875 120.160156 30.421875 C 120.023438 30.421875 119.910156 30.375 119.816406 30.277344 C 119.71875 30.183594 119.671875 30.070312 119.671875 29.933594 C 119.671875 29.800781 119.71875 29.6875 119.816406 29.589844 C 119.910156 29.496094 120.023438 29.449219 120.160156 29.449219 C 120.292969 29.449219 120.40625 29.496094 120.503906 29.589844 C 120.597656 29.6875 120.644531 29.800781 120.644531 29.933594 Z M 120.644531 29.933594 "/>
<path style=" stroke:none;fill-rule:nonzero;fill:rgb(83.918762%,83.918762%,83.918762%);fill-opacity:1;" d="M 127.070312 48.605469 C 124.425781 48.566406 121.445312 46.214844 121.363281 42.832031 C 121.621094 44.023438 123.027344 43.238281 124.476562 43.507812 L 126.167969 44.535156 C 126.167969 44.535156 129.683594 44.976562 130.867188 43.789062 C 132.050781 42.601562 132.753906 42.511719 132.753906 42.511719 C 132.375 45.003906 130.441406 48.660156 127.070312 48.605469 Z M 127.070312 48.605469 "/>
<path style=" stroke:none;fill-rule:nonzero;fill:rgb(100%,100%,100%);fill-opacity:1;" d="M 133.035156 29.449219 C 133.035156 29.582031 132.988281 29.699219 132.894531 29.792969 C 132.800781 29.886719 132.683594 29.933594 132.550781 29.933594 C 132.414062 29.933594 132.300781 29.886719 132.207031 29.792969 C 132.113281 29.699219 132.0625 29.582031 132.0625 29.449219 C 132.0625 29.316406 132.113281 29.199219 132.207031 29.105469 C 132.300781 29.011719 132.414062 28.964844 132.550781 28.964844 C 132.683594 28.964844 132.800781 29.011719 132.894531 29.105469 C 132.988281 29.199219 133.035156 29.316406 133.035156 29.449219 Z M 133.035156 29.449219 "/>
<path style=" stroke:none;fill-rule:nonzero;fill:rgb(100%,100%,100%);fill-opacity:1;" d="M 129.953125 36.722656 C 129.953125 36.820312 129.914062 36.914062 129.839844 37.003906 C 129.765625 37.09375 129.660156 37.175781 129.519531 37.242188 C 129.382812 37.3125 129.222656 37.367188 129.042969 37.402344 C 128.859375 37.441406 128.671875 37.460938 128.476562 37.460938 C 128.28125 37.460938 128.09375 37.441406 127.914062 37.402344 C 127.734375 37.367188 127.574219 37.3125 127.433594 37.242188 C 127.296875 37.175781 127.191406 37.09375 127.117188 37.003906 C 127.042969 36.914062 127.003906 36.820312 127.003906 36.722656 C 127.003906 36.625 127.042969 36.53125 127.117188 36.441406 C 127.191406 36.351562 127.296875 36.269531 127.433594 36.203125 C 127.574219 36.132812 127.734375 36.078125 127.914062 36.042969 C 128.09375 36.003906 128.28125 35.984375 128.476562 35.984375 C 128.671875 35.984375 128.859375 36.003906 129.042969 36.042969 C 129.222656 36.078125 129.382812 36.132812 129.519531 36.203125 C 129.660156 36.269531 129.765625 36.351562 129.839844 36.441406 C 129.914062 36.53125 129.953125 36.625 129.953125 36.722656 Z M 129.953125 36.722656 "/>
<path style=" stroke:none;fill-rule:nonzero;fill:rgb(20.779419%,20.779419%,20.779419%);fill-opacity:1;" d="M 121.980469 43.507812 C 121.980469 43.507812 125.746094 43.546875 126.722656 41.683594 C 126.722656 41.683594 129.105469 43.789062 131.773438 43.371094 C 131.773438 43.371094 130.285156 48.324219 127 48.324219 C 123.761719 48.328125 121.980469 43.507812 121.980469 43.507812 Z M 121.980469 43.507812 "/>
<path style=" stroke:none;fill-rule:nonzero;fill:rgb(64.709473%,23.919678%,23.919678%);fill-opacity:1;" d="M 129.996094 43.507812 C 129.964844 44.171875 129.890625 44.832031 129.765625 45.484375 C 129.453125 47.128906 128.714844 49.199219 127.003906 49.199219 C 125.148438 49.199219 124.433594 46.828125 124.167969 45.1875 C 124.085938 44.683594 124.03125 44.175781 124.007812 43.664062 C 124.007812 43.664062 126.21875 43.070312 126.722656 41.679688 C 126.722656 41.683594 127.234375 43.085938 129.996094 43.507812 Z M 129.996094 43.507812 "/>
<path style=" stroke:none;fill-rule:nonzero;fill:rgb(54.119873%,16.079712%,16.468811%);fill-opacity:1;" d="M 129.996094 43.507812 C 129.964844 44.171875 129.890625 44.832031 129.765625 45.484375 C 129.152344 45.417969 128.488281 45.292969 128.285156 45.058594 C 127.859375 44.582031 127.070312 44.160156 126.207031 44.613281 C 125.648438 44.914062 124.734375 45.101562 124.167969 45.191406 C 124.085938 44.6875 124.03125 44.179688 124.007812 43.667969 C 124.007812 43.667969 126.21875 43.074219 126.722656 41.6875 C 126.722656 41.683594 127.234375 43.085938 129.996094 43.507812 Z M 129.996094 43.507812 "/>
<path style=" stroke:none;fill-rule:nonzero;fill:rgb(2.749634%,3.138733%,5.488586%);fill-opacity:1;" d="M 123.542969 43.933594 C 119.960938 43.933594 119.363281 40.828125 119.355469 40.796875 C 119.335938 40.679688 119.359375 40.578125 119.425781 40.480469 C 119.492188 40.386719 119.582031 40.328125 119.699219 40.304688 C 119.8125 40.285156 119.917969 40.308594 120.011719 40.375 C 120.109375 40.441406 120.167969 40.53125 120.1875 40.648438 C 120.207031 40.742188 120.679688 43.089844 123.542969 43.089844 C 124.402344 43.089844 125.066406 42.847656 125.535156 42.371094 C 126.324219 41.566406 126.304688 40.332031 126.304688 40.320312 C 126.304688 40.203125 126.34375 40.105469 126.421875 40.019531 C 126.503906 39.9375 126.601562 39.894531 126.71875 39.890625 C 126.832031 39.890625 126.933594 39.929688 127.015625 40.007812 C 127.097656 40.085938 127.144531 40.183594 127.148438 40.300781 C 127.148438 40.363281 127.179688 41.890625 126.144531 42.953125 C 125.507812 43.601562 124.632812 43.933594 123.542969 43.933594 Z M 123.542969 43.933594 "/>
<path style=" stroke:none;fill-rule:nonzero;fill:rgb(2.749634%,3.138733%,5.488586%);fill-opacity:1;" d="M 129.996094 43.933594 C 128.902344 43.933594 128.023438 43.601562 127.394531 42.953125 C 126.359375 41.890625 126.386719 40.363281 126.390625 40.300781 C 126.398438 40.1875 126.441406 40.09375 126.527344 40.015625 C 126.609375 39.9375 126.707031 39.902344 126.820312 39.90625 C 126.933594 39.90625 127.03125 39.949219 127.109375 40.03125 C 127.191406 40.109375 127.230469 40.207031 127.234375 40.320312 C 127.234375 40.332031 127.214844 41.566406 128.003906 42.371094 C 128.46875 42.847656 129.140625 43.089844 129.996094 43.089844 C 132.882812 43.089844 133.332031 40.746094 133.351562 40.648438 C 133.375 40.535156 133.433594 40.445312 133.527344 40.378906 C 133.621094 40.316406 133.726562 40.292969 133.839844 40.3125 C 133.953125 40.335938 134.042969 40.390625 134.109375 40.484375 C 134.175781 40.578125 134.199219 40.683594 134.183594 40.796875 C 134.175781 40.828125 133.582031 43.933594 129.996094 43.933594 Z M 129.996094 43.933594 "/>
<path style=" stroke:none;fill-rule:nonzero;fill:rgb(2.749634%,3.138733%,5.488586%);fill-opacity:1;" d="M 126.878906 47.199219 C 126.738281 47.199219 126.667969 47.132812 126.667969 46.992188 L 126.601562 41.34375 C 126.597656 41.203125 126.667969 41.132812 126.808594 41.132812 C 126.945312 41.132812 127.015625 41.203125 127.023438 41.339844 L 127.089844 46.988281 C 127.089844 47.128906 127.023438 47.199219 126.878906 47.199219 Z M 126.878906 47.199219 "/>
<path style=" stroke:none;fill-rule:nonzero;fill:rgb(82.749939%,12.548828%,15.289307%);fill-opacity:1;" d="M 125.320312 61.980469 L 120.679688 56.605469 L 122.917969 54.390625 L 131.183594 54.390625 L 133.429688 56.636719 L 128.839844 61.980469 Z M 125.320312 61.980469 "/>
<path style=" stroke:none;fill-rule:nonzero;fill:rgb(13.729858%,12.159729%,12.548828%);fill-opacity:1;" d="M 131.09375 54.601562 L 133.144531 56.648438 L 128.746094 61.765625 L 125.417969 61.765625 L 120.96875 56.621094 L 123.003906 54.605469 L 131.09375 54.605469 M 131.269531 54.183594 L 122.832031 54.183594 L 122.710938 54.304688 L 120.671875 56.320312 L 120.390625 56.597656 L 120.648438 56.898438 L 125.097656 62.042969 L 125.222656 62.1875 L 128.9375 62.1875 L 129.066406 62.042969 L 133.464844 56.921875 L 133.71875 56.625 L 131.394531 54.300781 L 131.269531 54.179688 Z M 131.269531 54.183594 "/>
<path style=" stroke:none;fill-rule:nonzero;fill:rgb(94.119263%,91.758728%,17.248535%);fill-opacity:1;" d="M 123.5625 55.363281 L 130.722656 55.363281 L 132.035156 56.730469 L 128.4375 60.914062 L 125.753906 60.964844 L 122.140625 56.761719 Z M 123.5625 55.363281 "/>
<path style=" stroke:none;fill-rule:nonzero;fill:rgb(1.959229%,2.349854%,2.349854%);fill-opacity:1;" d="M 125.707031 61.070312 L 121.996094 56.757812 L 123.523438 55.257812 L 130.773438 55.257812 L 132.179688 56.726562 L 132.117188 56.800781 L 128.488281 61.023438 Z M 122.285156 56.769531 L 125.804688 60.855469 L 128.390625 60.8125 L 131.894531 56.734375 L 130.679688 55.46875 L 123.605469 55.46875 Z M 122.285156 56.769531 "/>
<path style=" stroke:none;fill-rule:nonzero;fill:rgb(82.749939%,12.548828%,15.289307%);fill-opacity:1;" d="M 124.617188 58.949219 L 124.617188 58.695312 L 125.382812 58.695312 L 125.382812 59 C 125.382812 59.320312 125.546875 59.4375 125.804688 59.4375 C 126.0625 59.4375 126.226562 59.320312 126.226562 58.988281 C 126.226562 58.617188 126.066406 58.378906 125.535156 57.980469 C 124.851562 57.460938 124.632812 57.097656 124.632812 56.585938 C 124.632812 55.882812 125.054688 55.472656 125.84375 55.472656 C 126.632812 55.472656 127.027344 55.882812 127.027344 56.597656 L 127.027344 56.789062 L 126.257812 56.789062 L 126.257812 56.554688 C 126.257812 56.234375 126.109375 56.113281 125.851562 56.113281 C 125.589844 56.113281 125.445312 56.234375 125.445312 56.539062 C 125.445312 56.867188 125.613281 57.101562 126.144531 57.507812 C 126.828125 58.023438 127.039062 58.378906 127.039062 58.933594 C 127.039062 59.664062 126.613281 60.074219 125.8125 60.074219 C 125.015625 60.074219 124.617188 59.667969 124.617188 58.949219 Z M 124.617188 58.949219 "/>
<path style=" stroke:none;fill-rule:nonzero;fill:rgb(13.729858%,12.159729%,12.548828%);fill-opacity:1;" d="M 125.8125 60.179688 C 124.972656 60.179688 124.511719 59.742188 124.511719 58.949219 L 124.511719 58.589844 L 125.492188 58.589844 L 125.492188 59 C 125.492188 59.238281 125.578125 59.332031 125.804688 59.332031 C 125.996094 59.332031 126.121094 59.273438 126.121094 58.988281 C 126.121094 58.652344 125.976562 58.445312 125.46875 58.0625 C 124.773438 57.53125 124.527344 57.144531 124.527344 56.585938 C 124.527344 55.8125 125.003906 55.367188 125.84375 55.367188 C 126.683594 55.367188 127.132812 55.804688 127.132812 56.597656 L 127.132812 56.886719 L 126.152344 56.886719 L 126.152344 56.554688 C 126.152344 56.273438 126.03125 56.21875 125.851562 56.21875 C 125.632812 56.21875 125.550781 56.3125 125.550781 56.539062 C 125.550781 56.792969 125.652344 57 126.210938 57.421875 C 126.910156 57.953125 127.144531 58.335938 127.144531 58.9375 C 127.144531 59.726562 126.660156 60.179688 125.8125 60.179688 Z M 124.722656 58.800781 L 124.722656 58.953125 C 124.722656 59.628906 125.089844 59.972656 125.8125 59.972656 C 126.539062 59.972656 126.933594 59.613281 126.933594 58.9375 C 126.933594 58.410156 126.726562 58.082031 126.078125 57.59375 C 125.523438 57.171875 125.335938 56.90625 125.335938 56.542969 C 125.335938 56.179688 125.511719 56.011719 125.847656 56.011719 C 126.078125 56.011719 126.359375 56.105469 126.359375 56.554688 L 126.359375 56.679688 L 126.914062 56.679688 L 126.914062 56.601562 C 126.914062 55.925781 126.554688 55.582031 125.839844 55.582031 C 125.121094 55.582031 124.730469 55.929688 124.730469 56.589844 C 124.730469 57.078125 124.949219 57.40625 125.589844 57.898438 C 126.148438 58.320312 126.324219 58.585938 126.324219 58.992188 C 126.324219 59.351562 126.144531 59.542969 125.800781 59.542969 C 125.453125 59.542969 125.273438 59.355469 125.273438 59.003906 L 125.273438 58.800781 Z M 124.722656 58.800781 "/>
<path style=" stroke:none;fill-rule:nonzero;fill:rgb(82.749939%,12.548828%,15.289307%);fill-opacity:1;" d="M 127.039062 58.949219 L 127.039062 58.695312 L 127.808594 58.695312 L 127.808594 59 C 127.808594 59.320312 127.972656 59.4375 128.230469 59.4375 C 128.488281 59.4375 128.652344 59.320312 128.652344 58.988281 C 128.652344 58.617188 128.488281 58.378906 127.957031 57.980469 C 127.277344 57.460938 127.054688 57.097656 127.054688 56.585938 C 127.054688 55.882812 127.476562 55.472656 128.265625 55.472656 C 129.058594 55.472656 129.449219 55.882812 129.449219 56.597656 L 129.449219 56.789062 L 128.679688 56.789062 L 128.679688 56.554688 C 128.679688 56.234375 128.535156 56.113281 128.277344 56.113281 C 128.015625 56.113281 127.867188 56.234375 127.867188 56.539062 C 127.867188 56.867188 128.039062 57.101562 128.570312 57.507812 C 129.25 58.023438 129.464844 58.378906 129.464844 58.933594 C 129.464844 59.664062 129.035156 60.074219 128.238281 60.074219 C 127.441406 60.074219 127.039062 59.667969 127.039062 58.949219 Z M 127.039062 58.949219 "/>
<path style=" stroke:none;fill-rule:nonzero;fill:rgb(13.729858%,12.159729%,12.548828%);fill-opacity:1;" d="M 128.238281 60.179688 C 127.398438 60.179688 126.933594 59.742188 126.933594 58.949219 L 126.933594 58.589844 L 127.914062 58.589844 L 127.914062 59 C 127.914062 59.238281 128.003906 59.332031 128.230469 59.332031 C 128.421875 59.332031 128.546875 59.273438 128.546875 58.988281 C 128.546875 58.652344 128.398438 58.445312 127.894531 58.0625 C 127.195312 57.53125 126.949219 57.148438 126.949219 56.585938 C 126.949219 55.8125 127.425781 55.367188 128.265625 55.367188 C 129.109375 55.367188 129.554688 55.804688 129.554688 56.597656 L 129.554688 56.886719 L 128.574219 56.886719 L 128.574219 56.554688 C 128.574219 56.273438 128.457031 56.21875 128.273438 56.21875 C 128.058594 56.21875 127.972656 56.3125 127.972656 56.539062 C 127.972656 56.792969 128.074219 57 128.632812 57.421875 C 129.332031 57.953125 129.570312 58.335938 129.570312 58.9375 C 129.570312 59.726562 129.082031 60.179688 128.238281 60.179688 Z M 127.144531 58.800781 L 127.144531 58.953125 C 127.144531 59.628906 127.511719 59.972656 128.238281 59.972656 C 128.960938 59.972656 129.355469 59.613281 129.355469 58.9375 C 129.355469 58.410156 129.148438 58.078125 128.503906 57.589844 C 127.945312 57.167969 127.761719 56.902344 127.761719 56.542969 C 127.761719 56.179688 127.9375 56.007812 128.273438 56.007812 C 128.503906 56.007812 128.785156 56.101562 128.785156 56.554688 L 128.785156 56.679688 L 129.339844 56.679688 L 129.339844 56.601562 C 129.339844 55.921875 128.980469 55.582031 128.265625 55.582031 C 127.550781 55.582031 127.164062 55.925781 127.164062 56.585938 C 127.164062 57.074219 127.378906 57.40625 128.019531 57.894531 C 128.578125 58.316406 128.757812 58.582031 128.757812 58.988281 C 128.757812 59.351562 128.574219 59.542969 128.230469 59.542969 C 127.886719 59.542969 127.703125 59.351562 127.703125 59 L 127.703125 58.800781 Z M 127.144531 58.800781 "/>
<path style=" stroke:none;fill-rule:nonzero;fill:rgb(82.749939%,12.548828%,15.289307%);fill-opacity:1;" d="M 126.554688 53.335938 L 127.527344 53.335938 L 127.527344 55.109375 L 126.554688 55.109375 Z M 126.554688 53.335938 "/>
<path style=" stroke:none;fill-rule:nonzero;fill:rgb(13.729858%,12.159729%,12.548828%);fill-opacity:1;" d="M 127.632812 55.214844 L 126.449219 55.214844 L 126.449219 53.234375 L 127.632812 53.234375 Z M 126.660156 55.003906 L 127.421875 55.003906 L 127.421875 53.441406 L 126.660156 53.441406 Z M 126.660156 55.003906 "/>
<path style=" stroke:none;fill-rule:nonzero;fill:rgb(2.749634%,3.138733%,5.488586%);fill-opacity:1;" d="M 127.171875 52.65625 C 121.113281 52.65625 112.953125 47.585938 110.21875 44.234375 L 110.1875 44.195312 C 107.328125 40.691406 102.011719 34.183594 108.46875 25.316406 C 107.933594 23.148438 105.105469 10.988281 109.035156 9.203125 C 112.863281 7.457031 117.765625 14.65625 118.691406 16.089844 C 119.859375 15.933594 123.871094 15.433594 125.34375 15.75 C 125.925781 15.507812 128.195312 14.679688 131.332031 15.039062 C 132.082031 13.664062 135.648438 7.582031 139.515625 8.257812 C 143.691406 8.988281 142.425781 22.421875 142.199219 24.542969 C 142.90625 25.847656 148.246094 36.214844 142.25 42.742188 L 141.648438 43.394531 C 138.285156 47.082031 133.203125 52.65625 127.171875 52.65625 Z M 110.292969 9.78125 C 109.972656 9.777344 109.671875 9.839844 109.382812 9.96875 C 106.472656 11.292969 108.363281 21.484375 109.335938 25.300781 C 109.367188 25.429688 109.34375 25.550781 109.265625 25.65625 C 103.015625 34.082031 108.105469 40.3125 110.839844 43.664062 L 110.871094 43.703125 C 113.507812 46.933594 121.351562 51.816406 127.171875 51.816406 C 132.828125 51.816406 137.566406 46.625 141.027344 42.832031 L 141.625 42.175781 C 147.484375 35.792969 141.453125 24.953125 141.394531 24.84375 C 141.347656 24.765625 141.332031 24.679688 141.339844 24.589844 C 141.976562 18.84375 142.003906 9.554688 139.367188 9.089844 C 135.714844 8.449219 131.976562 15.617188 131.941406 15.6875 C 131.851562 15.863281 131.707031 15.941406 131.507812 15.914062 C 128.015625 15.445312 125.582031 16.570312 125.558594 16.582031 C 125.460938 16.625 125.359375 16.632812 125.257812 16.601562 C 124.175781 16.277344 120.039062 16.753906 118.539062 16.96875 C 118.355469 16.992188 118.214844 16.929688 118.121094 16.773438 C 116.816406 14.664062 113.125 9.777344 110.292969 9.777344 Z M 110.292969 9.78125 "/>
<path style=" stroke:none;fill-rule:nonzero;fill:rgb(2.749634%,3.138733%,5.488586%);fill-opacity:1;" d="M 127.003906 49.417969 C 123.996094 49.417969 123.804688 43.910156 123.796875 43.675781 C 123.792969 43.5625 123.84375 43.492188 123.953125 43.464844 C 123.972656 43.460938 126.066406 42.878906 126.523438 41.609375 C 126.5625 41.527344 126.628906 41.484375 126.722656 41.484375 C 126.816406 41.484375 126.882812 41.527344 126.921875 41.609375 C 126.925781 41.621094 127.441406 42.90625 130.027344 43.300781 C 130.148438 43.320312 130.210938 43.390625 130.207031 43.515625 C 130.199219 43.757812 130.011719 49.417969 127.003906 49.417969 Z M 124.226562 43.820312 C 124.28125 44.714844 124.660156 48.996094 127.003906 48.996094 C 129.328125 48.996094 129.71875 44.644531 129.777344 43.6875 C 127.917969 43.367188 127.085938 42.59375 126.742188 42.128906 C 126.125 43.140625 124.710938 43.667969 124.226562 43.820312 Z M 124.226562 43.820312 "/>
<path style=" stroke:none;fill-rule:nonzero;fill:rgb(83.918762%,83.918762%,83.918762%);fill-opacity:1;" d="M 112.851562 52.285156 C 112.851562 52.691406 112.773438 53.085938 112.617188 53.460938 C 112.460938 53.839844 112.238281 54.171875 111.949219 54.460938 C 111.660156 54.75 111.328125 54.972656 110.949219 55.128906 C 110.574219 55.285156 110.179688 55.363281 109.769531 55.363281 C 109.363281 55.363281 108.96875 55.285156 108.59375 55.128906 C 108.214844 54.972656 107.882812 54.75 107.59375 54.460938 C 107.304688 54.171875 107.082031 53.839844 106.925781 53.460938 C 106.769531 53.085938 106.691406 52.691406 106.691406 52.285156 C 106.691406 51.875 106.769531 51.484375 106.925781 51.105469 C 107.082031 50.726562 107.304688 50.394531 107.59375 50.105469 C 107.882812 49.816406 108.214844 49.59375 108.59375 49.4375 C 108.96875 49.28125 109.363281 49.203125 109.769531 49.203125 C 110.179688 49.203125 110.574219 49.28125 110.949219 49.4375 C 111.328125 49.59375 111.660156 49.816406 111.949219 50.105469 C 112.238281 50.394531 112.460938 50.726562 112.617188 51.105469 C 112.773438 51.484375 112.851562 51.875 112.851562 52.285156 Z M 112.851562 52.285156 "/>
<path style=" stroke:none;fill-rule:nonzero;fill:rgb(2.749634%,3.138733%,5.488586%);fill-opacity:1;" d="M 109.769531 55.785156 C 109.308594 55.785156 108.859375 55.695312 108.429688 55.515625 C 108.003906 55.339844 107.625 55.085938 107.296875 54.757812 C 106.96875 54.429688 106.714844 54.050781 106.535156 53.621094 C 106.359375 53.195312 106.269531 52.746094 106.269531 52.28125 C 106.269531 51.816406 106.359375 51.371094 106.535156 50.941406 C 106.714844 50.515625 106.96875 50.136719 107.296875 49.808594 C 107.625 49.480469 108.003906 49.226562 108.429688 49.046875 C 108.859375 48.871094 109.308594 48.78125 109.769531 48.78125 C 110.234375 48.78125 110.683594 48.871094 111.109375 49.046875 C 111.539062 49.226562 111.917969 49.480469 112.246094 49.808594 C 112.574219 50.136719 112.828125 50.515625 113.007812 50.945312 C 113.183594 51.371094 113.273438 51.820312 113.273438 52.285156 C 113.269531 52.746094 113.183594 53.195312 113.003906 53.621094 C 112.828125 54.050781 112.574219 54.429688 112.246094 54.757812 C 111.917969 55.085938 111.539062 55.339844 111.109375 55.515625 C 110.679688 55.695312 110.234375 55.78125 109.769531 55.785156 Z M 109.769531 49.628906 C 109.417969 49.628906 109.082031 49.695312 108.753906 49.828125 C 108.429688 49.964844 108.140625 50.15625 107.894531 50.40625 C 107.644531 50.652344 107.453125 50.941406 107.316406 51.265625 C 107.183594 51.59375 107.113281 51.929688 107.113281 52.285156 C 107.113281 52.636719 107.183594 52.976562 107.316406 53.300781 C 107.453125 53.625 107.644531 53.914062 107.894531 54.160156 C 108.140625 54.410156 108.429688 54.601562 108.753906 54.738281 C 109.082031 54.871094 109.417969 54.941406 109.769531 54.941406 C 110.125 54.941406 110.460938 54.871094 110.789062 54.738281 C 111.113281 54.601562 111.402344 54.410156 111.648438 54.160156 C 111.898438 53.914062 112.089844 53.625 112.226562 53.300781 C 112.359375 52.976562 112.429688 52.636719 112.429688 52.285156 C 112.425781 51.929688 112.359375 51.59375 112.226562 51.265625 C 112.089844 50.941406 111.898438 50.65625 111.648438 50.40625 C 111.398438 50.15625 111.113281 49.964844 110.789062 49.832031 C 110.460938 49.695312 110.125 49.628906 109.769531 49.628906 Z M 109.769531 49.628906 "/>
<path style=" stroke:none;fill-rule:nonzero;fill:rgb(100%,100%,100%);fill-opacity:1;" d="M 111.507812 50.574219 C 111.078125 52.019531 110.089844 53.402344 109.160156 54.222656 C 107.039062 56.097656 98.046875 54.082031 97.195312 49.480469 C 97.144531 49.195312 97.125 48.90625 97.136719 48.613281 C 97.347656 43.398438 102.621094 44.121094 108.289062 45.566406 C 111.605469 46.40625 112.109375 48.546875 111.507812 50.574219 Z M 111.507812 50.574219 "/>
<path style=" stroke:none;fill-rule:nonzero;fill:rgb(83.918762%,83.918762%,83.918762%);fill-opacity:1;" d="M 111.507812 50.574219 C 111.078125 52.019531 110.089844 53.402344 109.160156 54.222656 C 107.039062 56.097656 98.046875 54.082031 97.195312 49.480469 C 99.046875 50.796875 102.925781 53.085938 106.691406 52.285156 C 108.375 51.929688 109.980469 51.359375 111.507812 50.574219 Z M 111.507812 50.574219 "/>
<path style=" stroke:none;fill-rule:nonzero;fill:rgb(2.749634%,3.138733%,5.488586%);fill-opacity:1;" d="M 106.515625 55.34375 C 104.738281 55.34375 102.609375 54.832031 100.921875 54.027344 C 98.121094 52.691406 96.625 50.765625 96.714844 48.597656 C 96.777344 46.980469 97.320312 45.785156 98.320312 45.039062 C 100.472656 43.4375 104.433594 44.148438 108.394531 45.15625 C 110.949219 45.808594 111.789062 47.1875 112.039062 48.230469 C 112.558594 50.378906 111.085938 53.089844 109.4375 54.542969 C 108.800781 55.101562 107.742188 55.34375 106.515625 55.34375 Z M 101.894531 44.925781 C 100.648438 44.925781 99.582031 45.148438 98.828125 45.710938 C 98.027344 46.304688 97.613281 47.257812 97.558594 48.625 C 97.460938 51.074219 99.847656 52.582031 101.28125 53.265625 C 104.378906 54.738281 107.847656 54.820312 108.878906 53.90625 C 110.132812 52.800781 111.6875 50.367188 111.21875 48.425781 C 110.933594 47.234375 109.910156 46.410156 108.183594 45.96875 C 105.953125 45.402344 103.722656 44.925781 101.894531 44.925781 Z M 101.894531 44.925781 "/>
<path style=" stroke:none;fill-rule:nonzero;fill:rgb(2.749634%,3.138733%,5.488586%);fill-opacity:1;" d="M 105.574219 55.023438 C 105.429688 55.023438 105.3125 54.964844 105.230469 54.84375 C 104.21875 53.421875 104.402344 50.316406 105.074219 49.453125 C 105.148438 49.363281 105.242188 49.308594 105.355469 49.292969 C 105.472656 49.28125 105.578125 49.308594 105.667969 49.378906 C 105.761719 49.453125 105.816406 49.546875 105.828125 49.660156 C 105.84375 49.777344 105.816406 49.882812 105.742188 49.972656 C 105.296875 50.546875 105.121094 53.230469 105.917969 54.355469 C 105.988281 54.453125 106.011719 54.554688 105.992188 54.671875 C 105.976562 54.785156 105.917969 54.875 105.824219 54.945312 C 105.75 55 105.664062 55.023438 105.574219 55.023438 Z M 105.574219 55.023438 "/>
<path style=" stroke:none;fill-rule:nonzero;fill:rgb(2.749634%,3.138733%,5.488586%);fill-opacity:1;" d="M 100.675781 53.757812 C 100.496094 53.761719 100.371094 53.679688 100.292969 53.519531 C 98.929688 50.683594 99.597656 48.527344 100.378906 47.769531 C 100.460938 47.683594 100.5625 47.640625 100.683594 47.640625 C 100.804688 47.640625 100.90625 47.683594 100.988281 47.765625 C 101.070312 47.851562 101.109375 47.957031 101.105469 48.074219 C 101.101562 48.195312 101.054688 48.292969 100.96875 48.375 C 100.476562 48.851562 99.847656 50.648438 101.054688 53.15625 C 101.105469 53.261719 101.109375 53.367188 101.070312 53.476562 C 101.03125 53.585938 100.960938 53.667969 100.855469 53.71875 C 100.796875 53.746094 100.738281 53.757812 100.675781 53.757812 Z M 100.675781 53.757812 "/>
<path style=" stroke:none;fill-rule:nonzero;fill:rgb(83.918762%,83.918762%,83.918762%);fill-opacity:1;" d="M 145.867188 52.285156 C 145.867188 52.691406 145.789062 53.085938 145.632812 53.460938 C 145.476562 53.839844 145.253906 54.171875 144.964844 54.460938 C 144.679688 54.75 144.34375 54.972656 143.96875 55.128906 C 143.589844 55.285156 143.199219 55.363281 142.789062 55.363281 C 142.382812 55.363281 141.988281 55.285156 141.613281 55.128906 C 141.234375 54.972656 140.902344 54.75 140.613281 54.460938 C 140.324219 54.171875 140.101562 53.839844 139.945312 53.460938 C 139.789062 53.085938 139.710938 52.691406 139.710938 52.285156 C 139.710938 51.875 139.789062 51.484375 139.945312 51.105469 C 140.101562 50.726562 140.324219 50.394531 140.613281 50.105469 C 140.902344 49.816406 141.234375 49.59375 141.613281 49.4375 C 141.988281 49.28125 142.382812 49.203125 142.789062 49.203125 C 143.199219 49.203125 143.589844 49.28125 143.96875 49.4375 C 144.34375 49.59375 144.679688 49.816406 144.964844 50.105469 C 145.253906 50.394531 145.476562 50.726562 145.632812 51.105469 C 145.789062 51.484375 145.867188 51.875 145.867188 52.285156 Z M 145.867188 52.285156 "/>
<path style=" stroke:none;fill-rule:nonzero;fill:rgb(2.749634%,3.138733%,5.488586%);fill-opacity:1;" d="M 142.789062 55.785156 C 142.328125 55.785156 141.878906 55.695312 141.449219 55.515625 C 141.023438 55.339844 140.644531 55.085938 140.316406 54.757812 C 139.988281 54.429688 139.734375 54.050781 139.554688 53.621094 C 139.378906 53.195312 139.289062 52.746094 139.289062 52.28125 C 139.289062 51.816406 139.378906 51.371094 139.554688 50.941406 C 139.734375 50.515625 139.988281 50.136719 140.316406 49.808594 C 140.644531 49.480469 141.023438 49.226562 141.449219 49.046875 C 141.878906 48.871094 142.328125 48.78125 142.789062 48.78125 C 143.253906 48.78125 143.703125 48.871094 144.128906 49.046875 C 144.558594 49.226562 144.9375 49.480469 145.265625 49.808594 C 145.59375 50.136719 145.847656 50.515625 146.023438 50.945312 C 146.203125 51.371094 146.292969 51.820312 146.292969 52.285156 C 146.289062 52.746094 146.203125 53.195312 146.023438 53.621094 C 145.84375 54.050781 145.59375 54.429688 145.265625 54.757812 C 144.9375 55.085938 144.558594 55.339844 144.128906 55.515625 C 143.699219 55.695312 143.253906 55.78125 142.789062 55.785156 Z M 142.789062 49.628906 C 142.4375 49.628906 142.097656 49.695312 141.773438 49.828125 C 141.449219 49.964844 141.160156 50.15625 140.914062 50.40625 C 140.664062 50.652344 140.472656 50.941406 140.335938 51.265625 C 140.203125 51.59375 140.136719 51.929688 140.136719 52.285156 C 140.136719 52.636719 140.203125 52.976562 140.335938 53.300781 C 140.472656 53.625 140.664062 53.914062 140.914062 54.160156 C 141.164062 54.410156 141.449219 54.601562 141.773438 54.738281 C 142.101562 54.871094 142.4375 54.941406 142.792969 54.941406 C 143.144531 54.941406 143.484375 54.871094 143.808594 54.738281 C 144.132812 54.601562 144.421875 54.410156 144.667969 54.160156 C 144.917969 53.914062 145.109375 53.625 145.246094 53.300781 C 145.378906 52.976562 145.449219 52.636719 145.449219 52.285156 C 145.449219 51.929688 145.378906 51.59375 145.246094 51.265625 C 145.109375 50.941406 144.917969 50.65625 144.667969 50.40625 C 144.417969 50.15625 144.132812 49.964844 143.808594 49.828125 C 143.480469 49.695312 143.144531 49.628906 142.789062 49.628906 Z M 142.789062 49.628906 "/>
<path style=" stroke:none;fill-rule:nonzero;fill:rgb(100%,100%,100%);fill-opacity:1;" d="M 141.050781 50.574219 C 141.480469 52.019531 142.46875 53.402344 143.402344 54.222656 C 145.523438 56.097656 154.511719 54.082031 155.367188 49.480469 C 155.417969 49.195312 155.4375 48.90625 155.425781 48.613281 C 155.214844 43.398438 149.941406 44.121094 144.269531 45.566406 C 140.957031 46.40625 140.453125 48.546875 141.050781 50.574219 Z M 141.050781 50.574219 "/>
<path style=" stroke:none;fill-rule:nonzero;fill:rgb(83.918762%,83.918762%,83.918762%);fill-opacity:1;" d="M 141.050781 50.574219 C 141.480469 52.019531 142.46875 53.402344 143.402344 54.222656 C 145.523438 56.097656 154.511719 54.082031 155.367188 49.480469 C 153.515625 50.796875 149.636719 53.085938 145.867188 52.285156 C 144.1875 51.929688 142.582031 51.359375 141.050781 50.574219 Z M 141.050781 50.574219 "/>
<path style=" stroke:none;fill-rule:nonzero;fill:rgb(2.749634%,3.138733%,5.488586%);fill-opacity:1;" d="M 146.046875 55.34375 C 144.820312 55.34375 143.757812 55.101562 143.121094 54.539062 C 141.472656 53.082031 140.003906 50.375 140.523438 48.226562 C 140.773438 47.183594 141.609375 45.804688 144.167969 45.152344 C 148.128906 44.144531 152.089844 43.429688 154.238281 45.035156 C 155.242188 45.78125 155.78125 46.976562 155.847656 48.589844 C 155.933594 50.765625 154.441406 52.695312 151.640625 54.023438 C 149.949219 54.832031 147.824219 55.34375 146.046875 55.34375 Z M 150.664062 44.925781 C 148.835938 44.925781 146.609375 45.402344 144.378906 45.972656 C 142.652344 46.410156 141.628906 47.238281 141.34375 48.429688 C 140.875 50.371094 142.429688 52.800781 143.683594 53.910156 C 144.714844 54.820312 148.183594 54.738281 151.28125 53.269531 C 152.707031 52.585938 155.105469 51.078125 155.003906 48.625 C 154.949219 47.261719 154.535156 46.308594 153.734375 45.710938 C 152.976562 45.148438 151.914062 44.925781 150.664062 44.925781 Z M 150.664062 44.925781 "/>
<path style=" stroke:none;fill-rule:nonzero;fill:rgb(2.749634%,3.138733%,5.488586%);fill-opacity:1;" d="M 146.988281 55.023438 C 146.898438 55.023438 146.816406 54.996094 146.742188 54.945312 C 146.648438 54.875 146.59375 54.785156 146.574219 54.667969 C 146.554688 54.554688 146.582031 54.449219 146.648438 54.355469 C 147.449219 53.230469 147.273438 50.542969 146.824219 49.972656 C 146.753906 49.878906 146.722656 49.777344 146.738281 49.660156 C 146.753906 49.546875 146.804688 49.449219 146.898438 49.378906 C 146.992188 49.308594 147.09375 49.277344 147.210938 49.292969 C 147.324219 49.308594 147.421875 49.359375 147.492188 49.453125 C 148.164062 50.308594 148.347656 53.421875 147.339844 54.84375 C 147.253906 54.964844 147.136719 55.023438 146.988281 55.023438 Z M 146.988281 55.023438 "/>
<path style=" stroke:none;fill-rule:nonzero;fill:rgb(2.749634%,3.138733%,5.488586%);fill-opacity:1;" d="M 151.890625 53.757812 C 151.820312 53.761719 151.75 53.742188 151.6875 53.707031 C 151.625 53.671875 151.570312 53.625 151.535156 53.5625 C 151.496094 53.503906 151.472656 53.433594 151.46875 53.363281 C 151.464844 53.289062 151.480469 53.222656 151.511719 53.15625 C 152.714844 50.648438 152.089844 48.851562 151.597656 48.375 C 151.511719 48.292969 151.46875 48.195312 151.46875 48.078125 C 151.46875 47.960938 151.507812 47.863281 151.585938 47.777344 C 151.667969 47.695312 151.769531 47.652344 151.882812 47.648438 C 152 47.648438 152.101562 47.6875 152.183594 47.769531 C 152.964844 48.527344 153.636719 50.683594 152.269531 53.519531 C 152.195312 53.679688 152.070312 53.757812 151.890625 53.757812 Z M 151.890625 53.757812 "/>
<path style=" stroke:none;fill-rule:nonzero;fill:rgb(100%,100%,100%);fill-opacity:1;" d="M 93.628906 71.347656 L 114.214844 71.347656 C 114.214844 71.347656 116.488281 67.488281 110.847656 66.628906 C 110.847656 66.628906 113.808594 58.769531 104.148438 60.914062 C 94.488281 63.054688 100.578125 68.203125 100.578125 68.203125 C 100.578125 68.203125 94.765625 63.773438 93.625 68.488281 C 93.625 68.488281 89.195312 66.917969 89.195312 69.347656 C 89.195312 69.347656 84.34375 68.632812 84.332031 70.488281 C 84.332031 71.5625 93.628906 71.347656 93.628906 71.347656 Z M 93.628906 71.347656 "/>
<g clip-path="url(#clip2)" clip-rule="nonzero">
<path style="fill:none;stroke-width:8;stroke-linecap:butt;stroke-linejoin:miter;stroke:rgb(13.729858%,12.159729%,12.548828%);stroke-opacity:1;stroke-miterlimit:10;" d="M 152.058507 865.664543 L 368.104105 865.664543 C 368.104105 865.664543 391.96341 825.161118 332.766096 816.142136 C 332.766096 816.142136 363.840586 733.659452 262.459037 756.16591 C 161.077488 778.631373 224.989269 832.66327 224.989269 832.66327 C 224.989269 832.66327 163.988159 786.174521 152.017511 835.655932 C 152.017511 835.655932 105.528762 819.175794 105.528762 844.674913 C 105.528762 844.674913 54.612513 837.172761 54.489527 856.645561 C 54.489527 867.919288 152.058507 865.664543 152.058507 865.664543 Z M 152.058507 865.664543 " transform="matrix(0.0952852,0,0,0.0952852,79.139988,-11.137321)"/>
</g>
<path style=" stroke:none;fill-rule:nonzero;fill:rgb(100%,100%,100%);fill-opacity:1;" d="M 169.414062 70.261719 L 138.800781 70.261719 C 138.800781 70.261719 137.65625 64.070312 145.660156 65.023438 C 145.660156 65.023438 147.90625 58.171875 154.121094 60.066406 C 160.332031 61.964844 159.371094 65.953125 159.371094 65.953125 C 159.371094 65.953125 161.257812 63.113281 164.515625 65.015625 C 167.773438 66.921875 166.34375 67.683594 166.34375 67.683594 C 166.34375 67.683594 169.6875 66.542969 170.253906 68.449219 C 170.820312 70.351562 169.414062 70.261719 169.414062 70.261719 Z M 169.414062 70.261719 "/>
<g clip-path="url(#clip3)" clip-rule="nonzero">
<path style="fill:none;stroke-width:8;stroke-linecap:butt;stroke-linejoin:miter;stroke:rgb(13.729858%,12.159729%,12.548828%);stroke-opacity:1;stroke-miterlimit:10;" d="M 947.409674 854.26783 L 626.128961 854.26783 C 626.128961 854.26783 614.117318 789.290169 698.116831 799.293039 C 698.116831 799.293039 721.689168 727.387161 786.912801 747.269915 C 852.095439 767.193665 842.010578 809.049937 842.010578 809.049937 C 842.010578 809.049937 861.811342 779.246303 896.00148 799.211049 C 930.191618 819.216789 915.187313 827.210886 915.187313 827.210886 C 915.187313 827.210886 950.279349 815.240238 956.223678 835.245978 C 962.168007 855.210723 947.409674 854.26783 947.409674 854.26783 Z M 947.409674 854.26783 " transform="matrix(0.0952852,0,0,0.0952852,79.139988,-11.137321)"/>
</g>
</g>
</svg>
