<?xml version="1.0" encoding="UTF-8"?>
<svg xmlns="http://www.w3.org/2000/svg" xmlns:xlink="http://www.w3.org/1999/xlink" width="199.5pt" height="131.999998pt" viewBox="0 0 199.5 131.999998" version="1.2">
<defs>
<clipPath id="clip1">
  <path d="M 41 0.164062 L 62 0.164062 L 62 21 L 41 21 Z M 41 0.164062 "/>
</clipPath>
<clipPath id="clip2">
  <path d="M 29.355469 0.164062 L 77 0.164062 L 77 37 L 29.355469 37 Z M 29.355469 0.164062 "/>
</clipPath>
<clipPath id="clip3">
  <path d="M 116 0.164062 L 161 0.164062 L 161 37 L 116 37 Z M 116 0.164062 "/>
</clipPath>
<clipPath id="clip4">
  <path d="M 67 0.164062 L 113 0.164062 L 113 39 L 67 39 Z M 67 0.164062 "/>
</clipPath>
<clipPath id="clip5">
  <path d="M 30 74 L 81 74 L 81 118.558594 L 30 118.558594 Z M 30 74 "/>
</clipPath>
<clipPath id="clip6">
  <path d="M 122 20 L 161.15625 20 L 161.15625 64 L 122 64 Z M 122 20 "/>
</clipPath>
<clipPath id="clip7">
  <path d="M 113 74 L 158 74 L 158 118.558594 L 113 118.558594 Z M 113 74 "/>
</clipPath>
<clipPath id="clip8">
  <path d="M 19 0.164062 L 99 0.164062 L 99 56 L 19 56 Z M 19 0.164062 "/>
</clipPath>
<clipPath id="clip9">
  <path d="M 12.671875 90 L 98 90 L 98 131.835938 L 12.671875 131.835938 Z M 12.671875 90 "/>
</clipPath>
<clipPath id="clip10">
  <path d="M 102 89 L 186.671875 89 L 186.671875 131.835938 L 102 131.835938 Z M 102 89 "/>
</clipPath>
</defs>
<g id="surface1">
<g clip-path="url(#clip1)" clip-rule="nonzero">
<path style=" stroke:none;fill-rule:nonzero;fill:rgb(97.648621%,94.119263%,42.349243%);fill-opacity:1;" d="M 45.988281 19.984375 L 46.816406 13.515625 C 46.84375 13.300781 46.769531 13.140625 46.585938 13.023438 L 41.355469 9.65625 C 41.160156 9.527344 41.085938 9.347656 41.136719 9.121094 C 41.1875 8.890625 41.328125 8.757812 41.5625 8.726562 L 47.890625 7.863281 C 48.109375 7.832031 48.25 7.707031 48.308594 7.492188 L 49.972656 1.289062 C 50.03125 1.0625 50.179688 0.941406 50.410156 0.917969 C 50.640625 0.894531 50.808594 0.984375 50.914062 1.191406 L 53.777344 6.933594 C 53.875 7.132812 54.039062 7.226562 54.261719 7.210938 L 60.632812 6.777344 C 60.867188 6.757812 61.035156 6.859375 61.128906 7.074219 C 61.226562 7.289062 61.191406 7.480469 61.019531 7.644531 L 56.53125 12.035156 C 56.375 12.1875 56.332031 12.363281 56.40625 12.566406 L 58.566406 18.699219 C 58.632812 18.910156 58.585938 19.089844 58.421875 19.234375 C 58.257812 19.382812 58.078125 19.410156 57.875 19.320312 L 52.214844 16.492188 C 52.019531 16.390625 51.835938 16.410156 51.664062 16.550781 L 46.800781 20.441406 C 46.625 20.574219 46.4375 20.585938 46.246094 20.476562 C 46.050781 20.371094 45.964844 20.207031 45.988281 19.984375 Z M 45.988281 19.984375 "/>
</g>
<g clip-path="url(#clip2)" clip-rule="nonzero">
<path style="fill:none;stroke-width:4;stroke-linecap:butt;stroke-linejoin:miter;stroke:rgb(13.729858%,12.159729%,12.548828%);stroke-opacity:1;stroke-miterlimit:10;" d="M 60.066543 119.99503 L 63.05732 96.633115 C 63.156072 95.857205 62.888031 95.278801 62.224981 94.855577 L 43.335124 82.694967 C 42.629752 82.229422 42.36171 81.58048 42.545107 80.762248 C 42.728504 79.92991 43.236372 79.450257 44.082818 79.337397 L 66.936865 76.219654 C 67.726882 76.106794 68.234749 75.655356 68.446361 74.879447 L 74.456129 52.476838 C 74.66774 51.658607 75.203823 51.221276 76.036162 51.136631 C 76.8685 51.051987 77.47512 51.376458 77.856021 52.124152 L 88.196772 72.862084 C 88.549458 73.581563 89.14197 73.920142 89.946094 73.863712 L 112.955323 72.297786 C 113.80177 72.227249 114.408389 72.594043 114.746968 73.369952 C 115.099654 74.145861 114.972687 74.837125 114.35196 75.429637 L 98.142515 91.286396 C 97.578217 91.836586 97.423036 92.471421 97.691077 93.205007 L 105.492489 115.353683 C 105.732316 116.115484 105.563027 116.764427 104.970514 117.286402 C 104.378002 117.822484 103.72906 117.921236 102.995473 117.596765 L 82.553797 107.382981 C 81.848426 107.016188 81.185376 107.086725 80.564649 107.594593 L 63.00089 121.6456 C 62.366056 122.125252 61.688899 122.167575 60.997634 121.772567 C 60.292262 121.391666 59.981899 120.799153 60.066543 119.99503 Z M 60.066543 119.99503 " transform="matrix(0.276893,0,0,0.276893,29.356278,-13.241405)"/>
</g>
<path style="fill-rule:nonzero;fill:rgb(97.648621%,94.119263%,42.349243%);fill-opacity:1;stroke-width:4;stroke-linecap:butt;stroke-linejoin:miter;stroke:rgb(13.729858%,12.159729%,12.548828%);stroke-opacity:1;stroke-miterlimit:10;" d="M 249.853888 322.775323 L 260.857689 301.924532 C 261.224482 301.233268 261.168052 300.584326 260.702507 299.963598 L 247.20169 281.976617 C 246.679715 281.285352 246.6515 280.594088 247.117046 279.874609 C 247.582591 279.155129 248.231533 278.901196 249.063872 279.084592 L 271.565233 284.092732 C 272.35525 284.262022 272.975977 284.022195 273.45563 283.373253 L 286.885909 264.455181 C 287.37967 263.778024 288.028612 263.538197 288.846843 263.749809 C 289.650967 263.96142 290.102405 264.483395 290.201157 265.315734 L 292.655851 288.324963 C 292.740496 289.129087 293.177826 289.651062 293.953735 289.876781 L 316.102411 296.436739 C 316.920642 296.676566 317.357972 297.226756 317.414402 298.073202 C 317.456725 298.933756 317.104039 299.526268 316.314022 299.864846 L 295.561983 309.077003 C 294.856611 309.387366 294.489818 309.937556 294.47571 310.713465 L 294.066595 334.18824 C 294.052487 335.006471 293.657479 335.570768 292.895677 335.867025 C 292.119768 336.163281 291.456719 336.008099 290.906529 335.401479 L 275.346026 318.726489 C 274.809944 318.162192 274.175109 317.992902 273.441522 318.246836 L 252.068756 325.244125 C 251.321062 325.469844 250.700334 325.286447 250.178359 324.708042 C 249.656384 324.129637 249.557632 323.480695 249.853888 322.775323 Z M 249.853888 322.775323 " transform="matrix(0.276893,0,0,0.276893,29.356278,-13.241405)"/>
<path style=" stroke:none;fill-rule:nonzero;fill:rgb(97.648621%,94.119263%,42.349243%);fill-opacity:1;" d="M 134.644531 20.332031 L 135.375 16.308594 C 135.398438 16.175781 135.355469 16.074219 135.246094 15.996094 L 132.082031 13.726562 C 131.960938 13.644531 131.921875 13.527344 131.960938 13.386719 C 132 13.242188 132.09375 13.164062 132.242188 13.15625 L 136.226562 12.8125 C 136.367188 12.800781 136.460938 12.730469 136.503906 12.59375 L 137.738281 8.765625 C 137.785156 8.628906 137.878906 8.554688 138.023438 8.546875 C 138.167969 8.539062 138.269531 8.601562 138.332031 8.734375 L 139.9375 12.414062 C 139.996094 12.546875 140.09375 12.609375 140.234375 12.605469 L 144.242188 12.535156 C 144.386719 12.535156 144.484375 12.601562 144.539062 12.738281 C 144.589844 12.875 144.5625 12.992188 144.457031 13.089844 L 141.496094 15.695312 C 141.394531 15.785156 141.363281 15.894531 141.402344 16.023438 L 142.5625 19.925781 C 142.601562 20.066406 142.566406 20.175781 142.457031 20.265625 C 142.34375 20.355469 142.226562 20.363281 142.101562 20.292969 L 138.660156 18.355469 C 138.542969 18.285156 138.425781 18.292969 138.316406 18.375 L 135.128906 20.644531 C 135.015625 20.71875 134.898438 20.71875 134.785156 20.644531 C 134.671875 20.570312 134.625 20.46875 134.644531 20.332031 Z M 134.644531 20.332031 "/>
<g clip-path="url(#clip3)" clip-rule="nonzero">
<path style="fill:none;stroke-width:4;stroke-linecap:butt;stroke-linejoin:miter;stroke:rgb(13.729858%,12.159729%,12.548828%);stroke-opacity:1;stroke-miterlimit:10;" d="M 380.248925 121.250591 L 382.887016 106.719932 C 382.97166 106.240279 382.816478 105.873485 382.42147 105.591337 L 370.994446 97.394916 C 370.557116 97.09866 370.416042 96.675437 370.557116 96.167569 C 370.69819 95.645594 371.036769 95.363445 371.572851 95.33523 L 385.962437 94.093776 C 386.470304 94.051454 386.808883 93.79752 386.964065 93.303759 L 391.422015 79.478472 C 391.591304 78.984711 391.929882 78.71667 392.451858 78.688455 C 392.973833 78.66024 393.340626 78.885959 393.566345 79.365612 L 399.364502 92.654817 C 399.576113 93.13447 399.928799 93.360189 400.436667 93.346082 L 414.910897 93.092148 C 415.432872 93.092148 415.785558 93.331974 415.983062 93.825735 C 416.166459 94.319495 416.067706 94.742718 415.686806 95.095404 L 404.993369 104.505064 C 404.626575 104.829535 404.513716 105.224543 404.65479 105.690089 L 408.844699 119.783418 C 408.985773 120.291286 408.858806 120.686294 408.463798 121.010765 C 408.054682 121.335236 407.631459 121.363451 407.180021 121.109517 L 394.75137 114.112228 C 394.328147 113.858295 393.904924 113.886509 393.509915 114.182766 L 381.998247 122.379186 C 381.589131 122.647228 381.165908 122.647228 380.756793 122.379186 C 380.347677 122.111145 380.178388 121.744352 380.248925 121.250591 Z M 380.248925 121.250591 " transform="matrix(0.276893,0,0,0.276893,29.356278,-13.241405)"/>
</g>
<path style="fill-rule:nonzero;fill:rgb(97.648621%,94.119263%,42.349243%);fill-opacity:1;stroke-width:4;stroke-linecap:butt;stroke-linejoin:miter;stroke:rgb(13.729858%,12.159729%,12.548828%);stroke-opacity:1;stroke-miterlimit:10;" d="M 83.103987 217.463309 L 85.4035 204.738401 C 85.488144 204.315178 85.361177 203.990707 85.008491 203.736773 L 75.006319 196.556088 C 74.625418 196.288047 74.498451 195.935361 74.625418 195.483923 C 74.752385 195.032485 75.048641 194.792658 75.514187 194.750336 L 88.126235 193.664064 C 88.563565 193.635849 88.859822 193.424237 89.000896 193.001014 L 92.908656 180.882726 C 93.04973 180.445395 93.345986 180.205569 93.811532 180.191462 C 94.277077 180.163247 94.601548 180.360751 94.784945 180.783974 L 99.87773 192.436717 C 100.061126 192.831725 100.37149 193.029229 100.80882 193.029229 L 113.491406 192.80351 C 113.956951 192.789402 114.281422 193.015121 114.450712 193.452452 C 114.620001 193.889783 114.535356 194.256576 114.168563 194.56694 L 104.815332 202.805682 C 104.519076 203.087831 104.420324 203.412302 104.519076 203.80731 L 108.18701 216.165425 C 108.313977 216.602755 108.201117 216.955441 107.848431 217.23759 C 107.495745 217.519739 107.114845 217.547954 106.733944 217.322235 L 95.786573 211.199607 C 95.41978 210.987996 95.052986 211.002103 94.714408 211.256037 L 84.712235 218.464937 C 84.345442 218.761193 83.950434 218.789408 83.555425 218.535474 C 83.160417 218.28154 83.005235 217.928855 83.103987 217.463309 Z M 83.103987 217.463309 " transform="matrix(0.276893,0,0,0.276893,29.356278,-13.241405)"/>
<path style=" stroke:none;fill-rule:nonzero;fill:rgb(97.648621%,94.119263%,42.349243%);fill-opacity:1;" d="M 86.453125 22.683594 L 87.226562 18.363281 C 87.253906 18.222656 87.207031 18.109375 87.089844 18.023438 L 83.683594 15.589844 C 83.554688 15.5 83.507812 15.378906 83.550781 15.222656 C 83.59375 15.070312 83.691406 14.988281 83.851562 14.972656 L 88.132812 14.609375 C 88.28125 14.59375 88.382812 14.515625 88.429688 14.375 L 89.753906 10.261719 C 89.800781 10.109375 89.90625 10.03125 90.0625 10.023438 C 90.21875 10.015625 90.328125 10.082031 90.390625 10.226562 L 92.128906 14.171875 C 92.1875 14.3125 92.292969 14.378906 92.445312 14.375 L 96.746094 14.300781 C 96.90625 14.296875 97.011719 14.371094 97.070312 14.519531 C 97.128906 14.664062 97.097656 14.792969 96.980469 14.894531 L 93.804688 17.691406 C 93.699219 17.789062 93.664062 17.90625 93.703125 18.042969 L 94.949219 22.238281 C 94.992188 22.386719 94.957031 22.507812 94.835938 22.605469 C 94.714844 22.699219 94.585938 22.710938 94.453125 22.632812 L 90.757812 20.542969 C 90.628906 20.472656 90.507812 20.480469 90.390625 20.566406 L 86.988281 23.03125 C 86.863281 23.125 86.734375 23.128906 86.601562 23.042969 C 86.472656 22.957031 86.421875 22.839844 86.453125 22.683594 Z M 86.453125 22.683594 "/>
<g clip-path="url(#clip4)" clip-rule="nonzero">
<path style="fill:none;stroke-width:4;stroke-linecap:butt;stroke-linejoin:miter;stroke:rgb(13.729858%,12.159729%,12.548828%);stroke-opacity:1;stroke-miterlimit:10;" d="M 206.205479 129.743268 L 208.998752 114.140443 C 209.097504 113.632576 208.928215 113.22346 208.504992 112.913096 L 196.203307 104.124163 C 195.737761 103.799692 195.568472 103.362362 195.723654 102.798064 C 195.878836 102.247874 196.231522 101.951618 196.809927 101.895188 L 212.271677 100.583197 C 212.80776 100.526767 213.174553 100.244618 213.343842 99.736751 L 218.126263 84.88162 C 218.295553 84.33143 218.676453 84.049281 219.240751 84.021066 C 219.805048 83.992851 220.200056 84.232678 220.425775 84.754653 L 226.703585 99.003164 C 226.915196 99.511032 227.296097 99.750858 227.846287 99.736751 L 243.378575 99.468709 C 243.95698 99.454602 244.337881 99.722643 244.549492 100.258726 C 244.761104 100.780701 244.648244 101.246246 244.225021 101.61304 L 232.755675 111.713964 C 232.374774 112.06665 232.247807 112.489873 232.388882 112.983634 L 236.889154 128.13502 C 237.044336 128.671103 236.917369 129.108434 236.480038 129.46112 C 236.042708 129.799698 235.577162 129.84202 235.09751 129.559872 L 221.751875 122.012393 C 221.286329 121.758459 220.848999 121.786674 220.425775 122.097038 L 208.138198 130.99883 C 207.68676 131.337409 207.221215 131.351516 206.741562 131.041152 C 206.276017 130.730789 206.09262 130.307566 206.205479 129.743268 Z M 206.205479 129.743268 " transform="matrix(0.276893,0,0,0.276893,29.356278,-13.241405)"/>
</g>
<path style="fill-rule:nonzero;fill:rgb(97.648621%,94.119263%,42.349243%);fill-opacity:1;stroke-width:4;stroke-linecap:butt;stroke-linejoin:miter;stroke:rgb(13.729858%,12.159729%,12.548828%);stroke-opacity:1;stroke-miterlimit:10;" d="M 286.998769 204.611434 L 289.453463 185.608717 C 289.538107 184.98799 289.312388 184.508337 288.776306 184.169759 L 273.385093 174.294553 C 272.806688 173.92776 272.595076 173.405785 272.73615 172.728628 C 272.891332 172.051471 273.314555 171.656462 274.00582 171.571818 L 292.542991 169.004264 C 293.191934 168.905512 293.601049 168.552826 293.770338 167.903884 L 298.651512 149.691184 C 298.834908 149.028134 299.258131 148.675448 299.935288 148.604911 C 300.626553 148.534374 301.120313 148.802415 301.416569 149.423142 L 309.824601 166.267422 C 310.120857 166.859934 310.586403 167.127975 311.249452 167.085653 L 329.998236 165.844199 C 330.6895 165.801876 331.18326 166.084025 331.465409 166.71886 C 331.747558 167.353694 331.634698 167.903884 331.140938 168.383537 L 317.92227 181.291842 C 317.470832 181.729172 317.357972 182.251147 317.555477 182.84366 L 323.903823 200.844749 C 324.129542 201.479583 323.988468 202.015666 323.4806 202.452997 C 322.98684 202.890327 322.43665 202.960864 321.844137 202.664608 L 305.253792 194.369435 C 304.689494 194.087287 304.153412 194.143716 303.659652 194.538725 L 289.354711 205.993963 C 288.832736 206.388971 288.282546 206.417186 287.718248 206.078608 C 287.153951 205.754137 286.914124 205.260376 286.998769 204.611434 Z M 286.998769 204.611434 " transform="matrix(0.276893,0,0,0.276893,29.356278,-13.241405)"/>
<path style=" stroke:none;fill-rule:nonzero;fill:rgb(97.648621%,94.119263%,42.349243%);fill-opacity:1;" d="M 46.597656 106.042969 L 49.644531 100.269531 C 49.746094 100.078125 49.730469 99.898438 49.601562 99.726562 L 45.855469 94.746094 C 45.714844 94.558594 45.707031 94.367188 45.835938 94.167969 C 45.960938 93.972656 46.140625 93.898438 46.367188 93.949219 L 52.601562 95.332031 C 52.820312 95.382812 52.996094 95.316406 53.125 95.132812 L 56.847656 89.894531 C 56.980469 89.707031 57.160156 89.640625 57.386719 89.699219 C 57.613281 89.757812 57.738281 89.90625 57.761719 90.136719 L 58.445312 96.503906 C 58.46875 96.726562 58.589844 96.871094 58.804688 96.9375 L 64.933594 98.753906 C 65.160156 98.820312 65.28125 98.96875 65.296875 99.207031 C 65.3125 99.441406 65.210938 99.605469 64.996094 99.699219 L 59.261719 102.269531 C 59.0625 102.355469 58.964844 102.507812 58.957031 102.722656 L 58.847656 109.226562 C 58.84375 109.453125 58.738281 109.609375 58.523438 109.691406 C 58.308594 109.773438 58.125 109.730469 57.96875 109.5625 L 53.652344 104.949219 C 53.503906 104.789062 53.328125 104.746094 53.121094 104.8125 L 47.203125 106.75 C 46.992188 106.816406 46.8125 106.765625 46.667969 106.597656 C 46.523438 106.425781 46.5 106.242188 46.597656 106.042969 Z M 46.597656 106.042969 "/>
<g clip-path="url(#clip5)" clip-rule="nonzero">
<path style="fill:none;stroke-width:4;stroke-linecap:butt;stroke-linejoin:miter;stroke:rgb(13.729858%,12.159729%,12.548828%);stroke-opacity:1;stroke-miterlimit:10;" d="M 62.267304 430.795966 L 73.271104 409.945174 C 73.637897 409.25391 73.581468 408.604968 73.115922 407.984241 L 59.586891 389.997259 C 59.079023 389.320102 59.050808 388.628838 59.516353 387.909358 C 59.967791 387.203987 60.616733 386.935945 61.434965 387.119342 L 83.950434 392.113374 C 84.74045 392.296771 85.375285 392.056945 85.84083 391.393895 L 99.285217 372.475823 C 99.76487 371.798666 100.413812 371.558839 101.232043 371.770451 C 102.050275 371.982062 102.501713 372.518145 102.586357 373.350484 L 105.055159 396.345605 C 105.139803 397.149729 105.577134 397.671704 106.353043 397.911531 L 128.487611 404.471489 C 129.305842 404.711315 129.743173 405.247398 129.799603 406.107952 C 129.856032 406.954398 129.489239 407.54691 128.71333 407.885489 L 108.003613 417.168182 C 107.284134 417.478545 106.931448 418.028736 106.903233 418.804645 L 106.508225 442.293527 C 106.494117 443.111758 106.113217 443.676055 105.337308 443.972311 C 104.561399 444.268568 103.898349 444.113386 103.334052 443.506766 L 87.745334 426.845883 C 87.209251 426.267479 86.574417 426.112297 85.826723 426.352123 L 64.453956 433.349412 C 63.692155 433.589238 63.043213 433.405841 62.521237 432.799222 C 61.999262 432.178494 61.914618 431.515445 62.267304 430.795966 Z M 62.267304 430.795966 " transform="matrix(0.276893,0,0,0.276893,29.356278,-13.241405)"/>
</g>
<path style=" stroke:none;fill-rule:nonzero;fill:rgb(97.648621%,94.119263%,42.349243%);fill-opacity:1;" d="M 140.945312 47.675781 L 141.671875 43.65625 C 141.695312 43.523438 141.652344 43.417969 141.546875 43.339844 L 138.371094 41.070312 C 138.253906 40.984375 138.214844 40.871094 138.253906 40.730469 C 138.292969 40.589844 138.382812 40.511719 138.53125 40.496094 L 142.515625 40.15625 C 142.65625 40.148438 142.746094 40.074219 142.792969 39.9375 L 144.027344 36.109375 C 144.074219 35.96875 144.167969 35.898438 144.3125 35.890625 C 144.457031 35.882812 144.558594 35.945312 144.617188 36.078125 L 146.230469 39.761719 C 146.285156 39.890625 146.382812 39.953125 146.523438 39.949219 L 150.53125 39.878906 C 150.675781 39.878906 150.777344 39.945312 150.832031 40.082031 C 150.882812 40.21875 150.855469 40.335938 150.742188 40.433594 L 147.792969 43.039062 C 147.6875 43.128906 147.65625 43.238281 147.699219 43.367188 L 148.855469 47.269531 C 148.894531 47.40625 148.859375 47.519531 148.75 47.609375 C 148.636719 47.699219 148.519531 47.707031 148.394531 47.640625 L 144.953125 45.699219 C 144.835938 45.632812 144.71875 45.640625 144.609375 45.71875 L 141.445312 47.996094 C 141.328125 48.082031 141.207031 48.085938 141.082031 48.007812 C 140.960938 47.929688 140.914062 47.816406 140.945312 47.675781 Z M 140.945312 47.675781 "/>
<g clip-path="url(#clip6)" clip-rule="nonzero">
<path style="fill:none;stroke-width:4;stroke-linecap:butt;stroke-linejoin:miter;stroke:rgb(13.729858%,12.159729%,12.548828%);stroke-opacity:1;stroke-miterlimit:10;" d="M 403.00422 220.002648 L 405.628203 205.486095 C 405.712848 205.006443 405.557666 204.625542 405.176765 204.343393 L 393.707419 196.146972 C 393.284196 195.836609 393.143122 195.427493 393.284196 194.919625 C 393.425271 194.411758 393.749742 194.129609 394.285824 194.073179 L 408.67541 192.845832 C 409.183277 192.817617 409.507748 192.549576 409.677038 192.055816 L 414.134988 178.230528 C 414.304277 177.72266 414.642855 177.468726 415.164831 177.440511 C 415.686806 177.412297 416.053599 177.638016 416.265211 178.117668 L 422.091582 191.420981 C 422.289086 191.886527 422.641772 192.112246 423.14964 192.098138 L 437.62387 191.844204 C 438.145845 191.844204 438.512638 192.084031 438.710142 192.577791 C 438.893539 193.071551 438.794787 193.494774 438.385671 193.84746 L 427.734557 203.25712 C 427.353656 203.581591 427.240796 203.9766 427.395978 204.442145 L 431.571779 218.535474 C 431.712854 219.029235 431.585887 219.43835 431.190879 219.762821 C 430.781763 220.087292 430.35854 220.115507 429.907102 219.875681 L 417.47845 212.864285 C 417.055227 212.624458 416.632004 212.652673 416.236996 212.934822 L 404.809972 221.159458 C 404.386749 221.469821 403.949418 221.483929 403.49798 221.20178 C 403.06065 220.919631 402.891361 220.510515 403.00422 220.002648 Z M 403.00422 220.002648 " transform="matrix(0.276893,0,0,0.276893,29.356278,-13.241405)"/>
</g>
<path style="fill-rule:nonzero;fill:rgb(97.648621%,94.119263%,42.349243%);fill-opacity:1;stroke-width:4;stroke-linecap:butt;stroke-linejoin:miter;stroke:rgb(13.729858%,12.159729%,12.548828%);stroke-opacity:1;stroke-miterlimit:10;" d="M 148.915179 336.99562 L 151.214691 324.270712 C 151.299336 323.847489 151.172369 323.523018 150.819683 323.269084 L 140.817511 316.102506 C 140.43661 315.834465 140.295535 315.467671 140.422502 315.016233 C 140.549469 314.550688 140.845726 314.310862 141.325378 314.282647 L 153.923319 313.196374 C 154.374757 313.168159 154.656906 312.928333 154.79798 312.50511 L 158.70574 300.386822 C 158.846815 299.949491 159.157178 299.723772 159.608616 299.695557 C 160.074162 299.68145 160.398633 299.878954 160.582029 300.302177 L 165.632492 311.997242 C 165.815888 312.406358 166.126252 312.603862 166.563582 312.603862 L 179.246168 312.378143 C 179.711713 312.364035 180.036184 312.575647 180.205474 313.012977 C 180.38887 313.450308 180.290118 313.831209 179.923325 314.141572 L 170.584202 322.380315 C 170.273838 322.648357 170.175086 322.986935 170.273838 323.381943 L 173.998202 335.754165 C 174.125168 336.177388 174.012309 336.544182 173.659623 336.82633 C 173.306937 337.094372 172.926036 337.122587 172.545136 336.896868 L 161.654195 330.746025 C 161.273294 330.534414 160.920608 330.562628 160.567922 330.816562 L 150.565749 338.025462 C 150.198956 338.378148 149.78984 338.420471 149.35251 338.152429 C 148.901072 337.884388 148.759997 337.48938 148.915179 336.99562 Z M 148.915179 336.99562 " transform="matrix(0.276893,0,0,0.276893,29.356278,-13.241405)"/>
<path style=" stroke:none;fill-rule:nonzero;fill:rgb(97.648621%,94.119263%,42.349243%);fill-opacity:1;" d="M 131.585938 102.808594 L 132.367188 98.488281 C 132.390625 98.347656 132.347656 98.234375 132.230469 98.148438 L 128.820312 95.714844 C 128.691406 95.625 128.648438 95.5 128.691406 95.347656 C 128.730469 95.195312 128.832031 95.113281 128.992188 95.097656 L 133.269531 94.746094 C 133.421875 94.730469 133.519531 94.652344 133.566406 94.511719 L 134.894531 90.398438 C 134.941406 90.25 135.042969 90.171875 135.199219 90.164062 C 135.359375 90.152344 135.46875 90.222656 135.53125 90.367188 L 137.257812 94.320312 C 137.320312 94.457031 137.425781 94.527344 137.578125 94.523438 L 141.878906 94.449219 C 142.035156 94.445312 142.144531 94.515625 142.199219 94.664062 C 142.257812 94.8125 142.226562 94.9375 142.109375 95.042969 L 138.9375 97.84375 C 138.828125 97.9375 138.792969 98.054688 138.835938 98.195312 L 140.082031 102.390625 C 140.125 102.535156 140.085938 102.65625 139.964844 102.753906 C 139.84375 102.847656 139.71875 102.859375 139.585938 102.78125 L 135.886719 100.691406 C 135.761719 100.621094 135.636719 100.628906 135.519531 100.710938 L 132.121094 103.160156 C 131.992188 103.253906 131.863281 103.257812 131.730469 103.167969 C 131.597656 103.082031 131.546875 102.960938 131.585938 102.808594 Z M 131.585938 102.808594 "/>
<g clip-path="url(#clip7)" clip-rule="nonzero">
<path style="fill:none;stroke-width:4;stroke-linecap:butt;stroke-linejoin:miter;stroke:rgb(13.729858%,12.159729%,12.548828%);stroke-opacity:1;stroke-miterlimit:10;" d="M 369.202802 419.115008 L 372.024289 403.512183 C 372.108934 403.004316 371.953752 402.5952 371.530529 402.284836 L 359.214737 393.495903 C 358.749191 393.171432 358.59401 392.719994 358.749191 392.169804 C 358.890266 391.619614 359.257059 391.323358 359.835464 391.266928 L 375.283107 389.997259 C 375.833297 389.940829 376.185983 389.65868 376.355272 389.150813 L 381.151801 374.295682 C 381.32109 373.759599 381.687883 373.477451 382.252181 373.449236 C 382.830586 373.406913 383.225594 373.660847 383.451313 374.182823 L 389.6868 388.459548 C 389.912519 388.953309 390.29342 389.207243 390.84361 389.193135 L 406.375898 388.925094 C 406.940195 388.910986 407.335203 389.16492 407.532707 389.701003 C 407.744319 390.237085 407.631459 390.688523 407.208236 391.069424 L 395.752998 401.184456 C 395.35799 401.523035 395.231023 401.946258 395.386204 402.454125 L 399.886477 417.605512 C 400.041658 418.127488 399.900584 418.564818 399.463254 418.917504 C 399.025923 419.256083 398.574485 419.298405 398.094832 419.016256 L 384.73509 411.468777 C 384.283652 411.214844 383.832214 411.243059 383.408991 411.539315 L 371.135521 420.384677 C 370.669975 420.723256 370.20443 420.737363 369.724777 420.412892 C 369.245124 420.102529 369.061728 419.665198 369.202802 419.115008 Z M 369.202802 419.115008 " transform="matrix(0.276893,0,0,0.276893,29.356278,-13.241405)"/>
</g>
<path style=" stroke:none;fill-rule:nonzero;fill:rgb(100%,100%,100%);fill-opacity:1;" d="M 77.902344 35.558594 L 38.761719 35.558594 C 38.761719 35.558594 39.074219 28.796875 49.308594 30.015625 C 49.308594 30.015625 47.175781 21.648438 56.21875 20.425781 C 64.449219 19.316406 66.96875 27.089844 66.96875 27.089844 C 66.96875 27.089844 69.039062 24.636719 73.246094 26.988281 C 75.222656 28.09375 74.957031 30.769531 74.957031 30.769531 C 74.957031 30.769531 78.242188 30.792969 78.96875 33.230469 C 79.691406 35.667969 77.902344 35.558594 77.902344 35.558594 Z M 77.902344 35.558594 "/>
<g clip-path="url(#clip8)" clip-rule="nonzero">
<path style="fill:none;stroke-width:8;stroke-linecap:butt;stroke-linejoin:miter;stroke:rgb(13.729858%,12.159729%,12.548828%);stroke-opacity:1;stroke-miterlimit:10;" d="M 374.081206 322.337003 L 149.619867 322.337003 C 149.619867 322.337003 151.411973 283.560299 210.103461 290.549514 C 210.103461 290.549514 197.872334 242.565862 249.731416 235.554246 C 296.931021 229.192268 311.37988 273.770917 311.37988 273.770917 C 311.37988 273.770917 323.252585 259.702881 347.378819 273.188482 C 358.713893 279.528059 357.190602 294.872971 357.190602 294.872971 C 357.190602 294.872971 376.030122 295.007379 380.196769 308.98581 C 384.341016 322.96424 374.081206 322.337003 374.081206 322.337003 Z M 374.081206 322.337003 " transform="matrix(0.174376,0,0,0.174376,12.671635,-20.649178)"/>
</g>
<path style=" stroke:none;fill-rule:nonzero;fill:rgb(83.918762%,83.918762%,83.918762%);fill-opacity:1;" d="M 141.132812 83.105469 L 127.433594 98.972656 C 127.433594 98.972656 124.667969 106.175781 117.851562 109.261719 C 111.035156 112.34375 105.898438 110.964844 101.808594 111.160156 C 97.71875 111.351562 93.402344 110.773438 88.632812 110.582031 C 83.859375 110.386719 75.714844 111.300781 70.3125 99.65625 C 66.097656 90.570312 60.183594 84.933594 57.828125 82.925781 C 57.921875 82.472656 58.011719 82.039062 58.097656 81.632812 C 58.785156 81.398438 59.710938 81.089844 60.777344 80.757812 C 64.820312 87.734375 71.46875 99.738281 77.386719 100.25 C 84.984375 100.890625 83.203125 96.9375 87.742188 95.425781 C 92.28125 93.917969 107.972656 93.949219 115.992188 98.109375 C 122.894531 101.6875 128.335938 92.519531 128.335938 92.519531 C 128.335938 92.519531 132.1875 86.214844 135.253906 81.257812 Z M 141.132812 83.105469 "/>
<path style=" stroke:none;fill-rule:nonzero;fill:rgb(66.268921%,12.159729%,13.729858%);fill-opacity:1;" d="M 54.992188 58.195312 C 54.734375 57.695312 43.667969 53.625 43.667969 53.625 C 43.667969 53.625 38.261719 54.089844 33.890625 59.496094 C 33.890625 59.496094 47.761719 59.640625 58.949219 69.914062 C 70.140625 80.1875 135.417969 71.074219 135.417969 71.074219 C 135.417969 71.074219 163.589844 54.691406 170.792969 55.417969 C 170.792969 55.417969 163.074219 49.191406 156.382812 48.421875 C 149.691406 47.652344 116.570312 63.871094 116.570312 63.871094 C 116.570312 63.871094 71.71875 65.757812 70.945312 65.199219 C 70.171875 64.640625 54.992188 58.195312 54.992188 58.195312 Z M 54.992188 58.195312 "/>
<path style=" stroke:none;fill-rule:nonzero;fill:rgb(2.749634%,3.138733%,5.488586%);fill-opacity:1;" d="M 86.78125 75.582031 C 74.019531 75.582031 62.644531 74.351562 58.429688 70.484375 C 47.601562 60.542969 34.019531 60.269531 33.882812 60.269531 C 33.5625 60.261719 33.332031 60.113281 33.195312 59.824219 C 33.058594 59.53125 33.089844 59.261719 33.292969 59.007812 C 37.824219 53.414062 43.371094 52.875 43.605469 52.855469 C 43.71875 52.847656 43.828125 52.859375 43.9375 52.902344 C 52.285156 55.972656 54.621094 57.03125 55.335938 57.5 C 58.808594 58.976562 69.664062 63.605469 71.246094 64.476562 C 73.363281 64.773438 99.214844 63.820312 116.378906 63.101562 C 119.082031 61.78125 149.777344 46.863281 156.472656 47.65625 C 163.304688 48.441406 170.957031 54.554688 171.28125 54.816406 C 171.414062 54.921875 171.5 55.058594 171.542969 55.226562 C 171.585938 55.390625 171.574219 55.550781 171.507812 55.710938 C 171.445312 55.867188 171.335938 55.992188 171.191406 56.078125 C 171.046875 56.164062 170.886719 56.203125 170.71875 56.183594 C 165.207031 55.632812 145.476562 66.125 135.808594 71.738281 C 135.722656 71.789062 135.628906 71.820312 135.527344 71.835938 C 133.84375 72.074219 108.332031 75.582031 86.78125 75.582031 Z M 35.515625 58.820312 C 39.554688 59.1875 50.3125 60.941406 59.46875 69.347656 C 70.011719 79.027344 131.667969 70.804688 135.160156 70.332031 C 137.316406 69.082031 159.398438 56.390625 168.636719 54.792969 C 166.046875 52.972656 160.867188 49.71875 156.289062 49.195312 C 150.964844 48.601562 126.058594 60.082031 116.902344 64.566406 C 116.804688 64.613281 116.703125 64.636719 116.597656 64.640625 C 71.480469 66.539062 70.761719 66.015625 70.496094 65.824219 C 69.8125 65.382812 60.4375 61.347656 54.6875 58.90625 C 54.589844 58.863281 54.503906 58.804688 54.429688 58.730469 C 53.65625 58.226562 47.722656 55.941406 43.578125 54.421875 C 42.769531 54.535156 38.976562 55.265625 35.515625 58.820312 Z M 71.347656 64.542969 L 71.398438 64.574219 Z M 71.183594 64.46875 L 54.304688 58.550781 Z M 71.183594 64.46875 Z M 71.183594 64.46875 "/>
<path style=" stroke:none;fill-rule:nonzero;fill:rgb(83.918762%,17.248535%,16.468811%);fill-opacity:1;" d="M 73.355469 83.425781 C 73.355469 83.425781 66.699219 77.390625 60.449219 75.390625 C 54.203125 73.394531 51.128906 61.394531 43.667969 53.636719 C 43.667969 53.636719 50.882812 52.203125 58.949219 54.332031 C 70.675781 57.417969 119.710938 61.800781 124.148438 58.210938 C 128.589844 54.621094 136.566406 49.089844 145.058594 49.027344 C 153.550781 48.960938 156.382812 48.441406 156.382812 48.441406 C 156.382812 48.441406 140.777344 70.972656 132.492188 75.40625 C 124.207031 79.84375 116.960938 88.136719 116.960938 88.136719 Z M 73.355469 83.425781 "/>
<path style=" stroke:none;fill-rule:nonzero;fill:rgb(2.749634%,3.138733%,5.488586%);fill-opacity:1;" d="M 116.964844 88.898438 L 116.882812 88.898438 L 73.289062 84.191406 C 73.121094 84.171875 72.976562 84.109375 72.851562 83.996094 C 72.789062 83.9375 66.242188 78.050781 60.234375 76.125 C 56.410156 74.902344 53.832031 70.457031 50.847656 65.3125 C 48.707031 61.628906 46.285156 57.453125 43.121094 54.152344 C 42.910156 53.933594 42.847656 53.675781 42.941406 53.386719 C 43.03125 53.09375 43.226562 52.917969 43.527344 52.859375 C 43.828125 52.800781 51.007812 51.417969 59.15625 53.558594 C 71.1875 56.726562 119.722656 60.777344 123.675781 57.582031 C 131.296875 51.421875 138.496094 48.277344 145.066406 48.226562 C 153.347656 48.160156 156.226562 47.660156 156.253906 47.65625 C 156.59375 47.59375 156.855469 47.707031 157.042969 47.996094 C 157.230469 48.285156 157.226562 48.570312 157.027344 48.855469 C 156.386719 49.78125 141.222656 71.589844 132.871094 76.058594 C 124.808594 80.375 117.628906 88.539062 117.558594 88.621094 C 117.402344 88.804688 117.207031 88.898438 116.964844 88.898438 Z M 73.691406 82.683594 L 116.652344 87.316406 C 118.0625 85.746094 124.617188 78.734375 132.132812 74.710938 C 138.96875 71.046875 151.191406 54.382812 154.75 49.398438 C 153.058594 49.554688 150.019531 49.746094 145.066406 49.78125 C 138.851562 49.828125 131.976562 52.863281 124.636719 58.792969 C 119.535156 62.921875 69.332031 57.847656 58.753906 55.066406 C 53.019531 53.554688 47.671875 53.894531 45.21875 54.179688 C 48.027344 57.394531 50.214844 61.167969 52.171875 64.542969 C 54.996094 69.410156 57.4375 73.609375 60.699219 74.65625 C 66.511719 76.519531 72.53125 81.664062 73.691406 82.683594 Z M 73.691406 82.683594 "/>
<path style=" stroke:none;fill-rule:nonzero;fill:rgb(2.749634%,3.138733%,5.488586%);fill-opacity:1;" d="M 108.003906 112.074219 C 106.957031 112.074219 105.980469 112.027344 105.0625 111.984375 C 103.914062 111.929688 102.828125 111.882812 101.835938 111.925781 C 99.160156 112.050781 96.414062 111.855469 93.503906 111.648438 C 91.921875 111.535156 90.28125 111.417969 88.589844 111.347656 C 88.191406 111.332031 87.765625 111.324219 87.324219 111.316406 C 82.316406 111.21875 74.75 111.070312 69.605469 99.980469 C 65.449219 91.023438 59.628906 85.480469 57.320312 83.511719 C 56.707031 82.988281 56.347656 82.722656 56.335938 82.710938 C 56.085938 82.53125 55.984375 82.285156 56.027344 81.980469 C 56.070312 81.675781 56.238281 81.472656 56.527344 81.367188 C 56.527344 81.367188 57.015625 81.191406 57.832031 80.898438 C 58.53125 80.664062 59.464844 80.355469 60.535156 80.011719 C 64.300781 78.835938 69.410156 77.496094 72.375 77.773438 C 77.027344 78.199219 122.894531 76.78125 123.355469 76.765625 C 123.441406 76.761719 123.527344 76.773438 123.609375 76.800781 L 141.359375 82.371094 C 141.484375 82.410156 141.589844 82.476562 141.679688 82.570312 C 141.773438 82.664062 141.835938 82.773438 141.871094 82.898438 C 141.90625 83.023438 141.90625 83.148438 141.878906 83.277344 C 141.851562 83.402344 141.792969 83.515625 141.710938 83.613281 L 128.109375 99.375 C 127.679688 100.421875 124.773438 106.972656 118.167969 109.960938 C 114.285156 111.71875 110.90625 112.074219 108.003906 112.074219 Z M 102.691406 110.363281 C 103.472656 110.363281 104.285156 110.402344 105.132812 110.441406 C 108.628906 110.601562 112.589844 110.792969 117.53125 108.554688 C 123.984375 105.628906 126.683594 98.757812 126.710938 98.691406 C 126.742188 98.605469 126.789062 98.53125 126.847656 98.460938 L 139.792969 83.492188 L 123.28125 78.3125 C 120.039062 78.410156 76.90625 79.738281 72.238281 79.308594 C 70.082031 79.09375 66.203125 79.859375 61 81.484375 C 59.953125 81.820312 59.027344 82.125 58.34375 82.355469 C 60.742188 84.40625 66.726562 90.125 71.003906 99.320312 C 75.746094 109.535156 82.453125 109.667969 87.351562 109.765625 C 87.808594 109.773438 88.242188 109.78125 88.652344 109.800781 C 90.367188 109.871094 92.019531 109.984375 93.613281 110.101562 C 96.476562 110.308594 99.175781 110.5 101.765625 110.378906 C 102.070312 110.371094 102.375 110.363281 102.691406 110.363281 Z M 102.691406 110.363281 "/>
<path style=" stroke:none;fill-rule:nonzero;fill:rgb(83.918762%,17.248535%,16.468811%);fill-opacity:1;" d="M 74.386719 82.769531 C 74.386719 82.769531 76.71875 99.082031 99.074219 99.109375 C 118.78125 99.132812 121.996094 81.867188 121.996094 81.867188 Z M 74.386719 82.769531 "/>
<path style=" stroke:none;fill-rule:nonzero;fill:rgb(2.749634%,3.138733%,5.488586%);fill-opacity:1;" d="M 99.113281 99.878906 L 99.074219 99.878906 C 76.3125 99.851562 73.648438 83.046875 73.617188 82.875 C 73.601562 82.765625 73.609375 82.660156 73.636719 82.550781 C 73.667969 82.445312 73.71875 82.351562 73.792969 82.265625 C 73.863281 82.183594 73.949219 82.117188 74.050781 82.070312 C 74.148438 82.023438 74.253906 81.996094 74.367188 81.996094 L 121.96875 81.09375 C 122.210938 81.097656 122.410156 81.191406 122.574219 81.367188 C 122.734375 81.554688 122.792969 81.765625 122.75 82.007812 C 122.71875 82.1875 119.1875 99.878906 99.113281 99.878906 Z M 75.332031 83.519531 C 76.160156 86.835938 80.390625 98.3125 99.078125 98.34375 L 99.113281 98.34375 C 115.507812 98.34375 120.039062 86.203125 121.011719 82.664062 Z M 75.332031 83.519531 "/>
<path style=" stroke:none;fill-rule:nonzero;fill:rgb(100%,100%,100%);fill-opacity:1;" d="M 127.585938 77.425781 C 124.683594 80.589844 121.101562 84.667969 116.960938 88.128906 C 112.175781 92.140625 106.648438 95.328125 100.570312 95.324219 C 95.019531 95.324219 88.3125 92.882812 82.453125 89.640625 C 77.171875 86.738281 72.585938 83.1875 70.144531 80.191406 C 64.996094 73.890625 55.347656 62.179688 67.179688 46.222656 C 67.179688 46.222656 60.621094 20.492188 67.703125 17.277344 C 74.789062 14.058594 84.671875 30.003906 84.671875 30.003906 C 84.671875 30.003906 94.722656 28.59375 97.296875 29.363281 C 97.296875 29.363281 101.925781 27.179688 108.621094 28.074219 C 108.621094 28.074219 115.699219 14.308594 123.035156 15.597656 C 130.367188 16.886719 127.269531 44.808594 127.269531 44.808594 C 127.269531 44.808594 138.8125 65.207031 127.585938 77.425781 Z M 127.585938 77.425781 "/>
<path style=" stroke:none;fill-rule:nonzero;fill:rgb(83.918762%,83.918762%,83.918762%);fill-opacity:1;" d="M 91.105469 52.179688 C 90.785156 52.449219 90.417969 52.621094 90.007812 52.699219 C 89.597656 52.777344 89.191406 52.75 88.796875 52.621094 C 87.773438 52.304688 85.851562 51.894531 83.144531 52.097656 C 80.886719 52.269531 80.074219 46.609375 83.023438 45.421875 C 85.671875 44.355469 93.949219 49.652344 91.105469 52.179688 Z M 91.105469 52.179688 "/>
<path style=" stroke:none;fill-rule:nonzero;fill:rgb(83.918762%,83.918762%,83.918762%);fill-opacity:1;" d="M 108.433594 52.394531 C 108.816406 52.5625 109.21875 52.625 109.632812 52.585938 C 110.050781 52.542969 110.429688 52.40625 110.777344 52.167969 C 111.667969 51.578125 113.390625 50.644531 116.050781 50.074219 C 118.265625 49.601562 119.234375 42.917969 114.152344 42.628906 C 111.304688 42.476562 104.996094 50.769531 108.433594 52.394531 Z M 108.433594 52.394531 "/>
<path style=" stroke:none;fill-rule:nonzero;fill:rgb(2.749634%,3.138733%,5.488586%);fill-opacity:1;" d="M 81.8125 55.78125 C 81.695312 55.632812 81.613281 55.46875 81.558594 55.292969 C 81.5 55.113281 81.480469 54.933594 81.488281 54.746094 C 81.5 54.5625 81.542969 54.382812 81.621094 54.214844 C 81.695312 54.042969 81.800781 53.890625 81.933594 53.761719 C 82.878906 52.804688 84.476562 51.507812 85.96875 51.757812 C 87.398438 51.996094 88.78125 53.464844 89.628906 54.546875 C 89.757812 54.714844 89.851562 54.898438 89.90625 55.097656 C 89.960938 55.300781 89.976562 55.503906 89.949219 55.714844 C 89.921875 55.921875 89.855469 56.117188 89.746094 56.296875 C 89.640625 56.476562 89.503906 56.628906 89.335938 56.753906 C 88.480469 57.394531 87.214844 58.117188 85.773438 58.1875 C 84.085938 58.273438 82.636719 56.832031 81.8125 55.78125 Z M 81.8125 55.78125 "/>
<path style=" stroke:none;fill-rule:nonzero;fill:rgb(2.749634%,3.138733%,5.488586%);fill-opacity:1;" d="M 116.25 55.128906 C 116.363281 54.980469 116.449219 54.820312 116.503906 54.644531 C 116.558594 54.46875 116.582031 54.289062 116.570312 54.105469 C 116.558594 53.921875 116.515625 53.742188 116.441406 53.574219 C 116.363281 53.40625 116.261719 53.257812 116.132812 53.125 C 115.183594 52.167969 113.582031 50.859375 112.089844 51.113281 C 110.636719 51.355469 109.238281 52.859375 108.394531 53.949219 C 108.269531 54.109375 108.183594 54.285156 108.132812 54.480469 C 108.078125 54.675781 108.066406 54.871094 108.089844 55.070312 C 108.117188 55.269531 108.179688 55.457031 108.277344 55.628906 C 108.378906 55.804688 108.507812 55.953125 108.667969 56.078125 C 109.523438 56.726562 110.808594 57.472656 112.28125 57.546875 C 113.96875 57.628906 115.421875 56.179688 116.25 55.128906 Z M 116.25 55.128906 "/>
<path style=" stroke:none;fill-rule:nonzero;fill:rgb(2.749634%,3.138733%,5.488586%);fill-opacity:1;" d="M 102.289062 73.617188 C 101.867188 73.917969 101.410156 74.152344 100.921875 74.324219 C 100.433594 74.492188 99.929688 74.59375 99.414062 74.625 C 98.894531 74.65625 98.382812 74.617188 97.878906 74.503906 C 97.371094 74.390625 96.890625 74.214844 96.4375 73.96875 C 93.933594 72.609375 90.855469 70.433594 91.242188 68.105469 C 91.886719 64.246094 107.066406 64.503906 106.9375 67.332031 C 106.835938 69.539062 105.246094 71.539062 102.289062 73.617188 Z M 102.289062 73.617188 "/>
<path style=" stroke:none;fill-rule:nonzero;fill:rgb(83.918762%,83.918762%,83.918762%);fill-opacity:1;" d="M 75.480469 40.949219 C 75.480469 40.949219 69.113281 39.597656 68.53125 36.511719 C 67.953125 33.421875 65.25 24.160156 68.53125 23 C 71.816406 21.84375 80.5 29.949219 81.078125 31.976562 C 81.65625 34.003906 75.480469 40.949219 75.480469 40.949219 Z M 75.480469 40.949219 "/>
<path style=" stroke:none;fill-rule:nonzero;fill:rgb(83.918762%,83.918762%,83.918762%);fill-opacity:1;" d="M 114.242188 31.917969 C 114.242188 31.917969 119.035156 40.179688 123.152344 42.492188 C 123.152344 42.492188 126.433594 34 125.273438 24.359375 C 124.113281 14.714844 117.296875 17.675781 114.242188 31.917969 Z M 114.242188 31.917969 "/>
<path style=" stroke:none;fill-rule:nonzero;fill:rgb(83.918762%,83.918762%,83.918762%);fill-opacity:1;" d="M 97.867188 41.429688 C 97.867188 41.429688 97.609375 52.042969 97.015625 53.203125 C 96.421875 54.359375 94.78125 55.417969 94.78125 55.417969 C 94.78125 55.417969 98.738281 53.527344 100.859375 54.957031 C 100.859375 54.957031 99.21875 54.070312 99.074219 52.625 C 98.929688 51.175781 97.867188 41.429688 97.867188 41.429688 Z M 97.867188 41.429688 "/>
<path style=" stroke:none;fill-rule:nonzero;fill:rgb(100%,100%,100%);fill-opacity:1;" d="M 88.625 54.515625 C 88.625 54.761719 88.539062 54.96875 88.367188 55.144531 C 88.191406 55.316406 87.984375 55.40625 87.738281 55.40625 C 87.492188 55.40625 87.28125 55.316406 87.109375 55.144531 C 86.933594 54.96875 86.847656 54.761719 86.847656 54.515625 C 86.847656 54.269531 86.933594 54.058594 87.109375 53.886719 C 87.28125 53.714844 87.492188 53.625 87.738281 53.625 C 87.984375 53.625 88.191406 53.714844 88.367188 53.886719 C 88.539062 54.058594 88.625 54.269531 88.625 54.515625 Z M 88.625 54.515625 "/>
<path style=" stroke:none;fill-rule:nonzero;fill:rgb(83.918762%,83.918762%,83.918762%);fill-opacity:1;" d="M 100.382812 88.683594 C 95.542969 88.609375 90.09375 84.308594 89.9375 78.117188 C 90.410156 80.296875 92.988281 78.863281 95.640625 79.355469 L 98.730469 81.234375 C 98.730469 81.234375 105.171875 82.042969 107.335938 79.871094 C 109.503906 77.695312 110.785156 77.53125 110.785156 77.53125 C 110.09375 82.089844 106.558594 88.785156 100.382812 88.683594 Z M 100.382812 88.683594 "/>
<path style=" stroke:none;fill-rule:nonzero;fill:rgb(100%,100%,100%);fill-opacity:1;" d="M 111.304688 53.625 C 111.304688 53.871094 111.21875 54.082031 111.042969 54.253906 C 110.871094 54.429688 110.660156 54.515625 110.414062 54.515625 C 110.167969 54.515625 109.960938 54.429688 109.785156 54.253906 C 109.613281 54.082031 109.523438 53.871094 109.523438 53.625 C 109.523438 53.378906 109.613281 53.171875 109.785156 52.996094 C 109.960938 52.824219 110.167969 52.738281 110.414062 52.738281 C 110.660156 52.738281 110.871094 52.824219 111.042969 52.996094 C 111.21875 53.171875 111.304688 53.378906 111.304688 53.625 Z M 111.304688 53.625 "/>
<path style=" stroke:none;fill-rule:nonzero;fill:rgb(100%,100%,100%);fill-opacity:1;" d="M 105.660156 66.9375 C 105.660156 67.113281 105.589844 67.285156 105.453125 67.453125 C 105.316406 67.617188 105.121094 67.761719 104.871094 67.890625 C 104.617188 68.015625 104.324219 68.113281 103.992188 68.179688 C 103.664062 68.25 103.320312 68.285156 102.960938 68.285156 C 102.605469 68.285156 102.261719 68.25 101.929688 68.179688 C 101.597656 68.113281 101.308594 68.015625 101.054688 67.890625 C 100.800781 67.761719 100.605469 67.617188 100.46875 67.453125 C 100.332031 67.285156 100.265625 67.113281 100.265625 66.9375 C 100.265625 66.757812 100.332031 66.585938 100.46875 66.421875 C 100.605469 66.253906 100.800781 66.109375 101.054688 65.984375 C 101.308594 65.855469 101.597656 65.757812 101.929688 65.691406 C 102.261719 65.621094 102.605469 65.589844 102.960938 65.589844 C 103.320312 65.589844 103.664062 65.621094 103.992188 65.691406 C 104.324219 65.757812 104.617188 65.855469 104.871094 65.984375 C 105.121094 66.109375 105.316406 66.253906 105.453125 66.421875 C 105.589844 66.585938 105.660156 66.757812 105.660156 66.9375 Z M 105.660156 66.9375 "/>
<path style=" stroke:none;fill-rule:nonzero;fill:rgb(20.779419%,20.779419%,20.779419%);fill-opacity:1;" d="M 91.070312 79.355469 C 91.070312 79.355469 97.964844 79.421875 99.75 76.011719 C 99.75 76.011719 104.109375 79.871094 108.992188 79.101562 C 108.992188 79.101562 106.269531 88.167969 100.257812 88.167969 C 94.332031 88.171875 91.070312 79.355469 91.070312 79.355469 Z M 91.070312 79.355469 "/>
<path style=" stroke:none;fill-rule:nonzero;fill:rgb(64.709473%,23.919678%,23.919678%);fill-opacity:1;" d="M 105.738281 79.355469 C 105.6875 80.570312 105.542969 81.777344 105.316406 82.96875 C 104.742188 85.980469 103.398438 89.769531 100.265625 89.769531 C 96.867188 89.769531 95.558594 85.433594 95.078125 82.429688 C 94.921875 81.503906 94.824219 80.574219 94.777344 79.640625 C 94.777344 79.640625 98.832031 78.550781 99.75 76.011719 C 99.75 76.015625 100.683594 78.585938 105.738281 79.355469 Z M 105.738281 79.355469 "/>
<path style=" stroke:none;fill-rule:nonzero;fill:rgb(54.119873%,16.079712%,16.468811%);fill-opacity:1;" d="M 105.738281 79.355469 C 105.6875 80.570312 105.542969 81.777344 105.316406 82.96875 C 104.195312 82.847656 102.984375 82.621094 102.605469 82.191406 C 101.832031 81.320312 100.390625 80.546875 98.808594 81.378906 C 97.78125 81.925781 96.113281 82.265625 95.078125 82.4375 C 94.921875 81.515625 94.824219 80.585938 94.777344 79.648438 C 94.777344 79.648438 98.832031 78.558594 99.75 76.019531 C 99.75 76.015625 100.683594 78.585938 105.738281 79.355469 Z M 105.738281 79.355469 "/>
<path style=" stroke:none;fill-rule:nonzero;fill:rgb(2.749634%,3.138733%,5.488586%);fill-opacity:1;" d="M 93.929688 80.128906 C 87.371094 80.128906 86.28125 74.449219 86.269531 74.390625 C 86.234375 74.179688 86.273438 73.988281 86.394531 73.8125 C 86.519531 73.640625 86.683594 73.53125 86.894531 73.496094 C 87.105469 73.457031 87.296875 73.5 87.472656 73.621094 C 87.644531 73.742188 87.75 73.910156 87.789062 74.117188 C 87.824219 74.292969 88.6875 78.585938 93.929688 78.585938 C 95.5 78.585938 96.722656 78.144531 97.578125 77.273438 C 99.019531 75.800781 98.988281 73.542969 98.988281 73.519531 C 98.984375 73.308594 99.054688 73.125 99.203125 72.972656 C 99.347656 72.816406 99.527344 72.738281 99.742188 72.734375 C 99.953125 72.734375 100.132812 72.804688 100.285156 72.949219 C 100.4375 73.09375 100.519531 73.273438 100.53125 73.480469 C 100.53125 73.597656 100.589844 76.394531 98.695312 78.339844 C 97.53125 79.527344 95.925781 80.128906 93.929688 80.128906 Z M 93.929688 80.128906 "/>
<path style=" stroke:none;fill-rule:nonzero;fill:rgb(2.749634%,3.138733%,5.488586%);fill-opacity:1;" d="M 105.742188 80.128906 C 103.734375 80.128906 102.132812 79.527344 100.976562 78.339844 C 99.082031 76.394531 99.136719 73.597656 99.140625 73.480469 C 99.15625 73.277344 99.238281 73.101562 99.390625 72.960938 C 99.542969 72.824219 99.722656 72.753906 99.929688 72.761719 C 100.136719 72.765625 100.316406 72.84375 100.460938 72.988281 C 100.605469 73.136719 100.679688 73.3125 100.683594 73.519531 C 100.683594 73.542969 100.652344 75.800781 102.089844 77.273438 C 102.945312 78.144531 104.171875 78.585938 105.742188 78.585938 C 111.019531 78.585938 111.84375 74.300781 111.882812 74.117188 C 111.921875 73.914062 112.03125 73.75 112.203125 73.632812 C 112.378906 73.511719 112.566406 73.472656 112.773438 73.507812 C 112.980469 73.546875 113.148438 73.648438 113.269531 73.820312 C 113.390625 73.992188 113.433594 74.183594 113.402344 74.390625 C 113.390625 74.449219 112.300781 80.128906 105.742188 80.128906 Z M 105.742188 80.128906 "/>
<path style=" stroke:none;fill-rule:nonzero;fill:rgb(2.749634%,3.138733%,5.488586%);fill-opacity:1;" d="M 100.035156 86.113281 C 99.929688 86.113281 99.835938 86.074219 99.761719 86 C 99.6875 85.925781 99.648438 85.835938 99.648438 85.730469 L 99.527344 75.394531 C 99.523438 75.289062 99.5625 75.199219 99.636719 75.121094 C 99.710938 75.046875 99.800781 75.007812 99.90625 75.003906 C 100.011719 75.007812 100.101562 75.042969 100.179688 75.117188 C 100.253906 75.191406 100.292969 75.28125 100.296875 75.386719 L 100.421875 85.722656 C 100.421875 85.828125 100.386719 85.921875 100.3125 85.996094 C 100.238281 86.074219 100.144531 86.113281 100.039062 86.113281 Z M 100.035156 86.113281 "/>
<path style=" stroke:none;fill-rule:nonzero;fill:rgb(82.749939%,12.548828%,15.289307%);fill-opacity:1;" d="M 97.183594 113.15625 L 88.691406 103.324219 L 92.789062 99.265625 L 107.914062 99.265625 L 112.027344 103.382812 L 103.625 113.15625 Z M 97.183594 113.15625 "/>
<path style=" stroke:none;fill-rule:nonzero;fill:rgb(13.729858%,12.159729%,12.548828%);fill-opacity:1;" d="M 107.75 99.652344 L 111.5 103.402344 L 103.449219 112.769531 L 97.359375 112.769531 L 89.21875 103.351562 L 92.949219 99.660156 L 107.75 99.660156 M 108.074219 98.890625 L 92.628906 98.890625 L 92.40625 99.113281 L 88.675781 102.804688 L 88.164062 103.3125 L 88.632812 103.855469 L 96.773438 113.273438 L 97.003906 113.539062 L 103.804688 113.539062 L 104.035156 113.269531 L 112.085938 103.902344 L 112.554688 103.359375 L 112.046875 102.855469 L 108.300781 99.105469 L 108.074219 98.878906 Z M 108.074219 98.890625 "/>
<path style=" stroke:none;fill-rule:nonzero;fill:rgb(94.119263%,91.758728%,17.248535%);fill-opacity:1;" d="M 93.964844 101.046875 L 107.074219 101.046875 L 109.472656 103.550781 L 102.886719 111.210938 L 97.980469 111.296875 L 91.367188 103.609375 Z M 93.964844 101.046875 "/>
<path style=" stroke:none;fill-rule:nonzero;fill:rgb(1.959229%,2.349854%,2.349854%);fill-opacity:1;" d="M 97.890625 111.492188 L 91.101562 103.597656 L 93.890625 100.855469 L 107.164062 100.855469 L 109.738281 103.542969 L 109.625 103.679688 L 102.984375 111.40625 Z M 91.628906 103.621094 L 98.066406 111.101562 L 102.800781 111.019531 L 109.210938 103.558594 L 106.992188 101.238281 L 94.042969 101.238281 Z M 91.628906 103.621094 "/>
<path style=" stroke:none;fill-rule:nonzero;fill:rgb(82.749939%,12.548828%,15.289307%);fill-opacity:1;" d="M 95.894531 107.613281 L 95.894531 107.144531 L 97.300781 107.144531 L 97.300781 107.707031 C 97.300781 108.292969 97.601562 108.503906 98.070312 108.503906 C 98.542969 108.503906 98.84375 108.292969 98.84375 107.683594 C 98.84375 107.007812 98.546875 106.570312 97.574219 105.835938 C 96.328125 104.890625 95.925781 104.222656 95.925781 103.285156 C 95.925781 102 96.695312 101.25 98.140625 101.25 C 99.585938 101.25 100.304688 102 100.304688 103.308594 L 100.304688 103.65625 L 98.898438 103.65625 L 98.898438 103.226562 C 98.898438 102.644531 98.628906 102.421875 98.152344 102.421875 C 97.679688 102.421875 97.410156 102.644531 97.410156 103.203125 C 97.410156 103.800781 97.722656 104.234375 98.695312 104.972656 C 99.941406 105.917969 100.332031 106.570312 100.332031 107.585938 C 100.332031 108.921875 99.546875 109.667969 98.085938 109.667969 C 96.625 109.667969 95.894531 108.925781 95.894531 107.613281 Z M 95.894531 107.613281 "/>
<path style=" stroke:none;fill-rule:nonzero;fill:rgb(13.729858%,12.159729%,12.548828%);fill-opacity:1;" d="M 98.085938 109.863281 C 96.550781 109.863281 95.703125 109.066406 95.703125 107.613281 L 95.703125 106.953125 L 97.496094 106.953125 L 97.496094 107.707031 C 97.496094 108.140625 97.65625 108.308594 98.070312 108.308594 C 98.421875 108.308594 98.652344 108.203125 98.652344 107.683594 C 98.652344 107.074219 98.382812 106.691406 97.457031 105.988281 C 96.183594 105.019531 95.730469 104.3125 95.730469 103.285156 C 95.730469 101.871094 96.601562 101.058594 98.140625 101.058594 C 99.679688 101.058594 100.496094 101.859375 100.496094 103.3125 L 100.496094 103.835938 L 98.707031 103.835938 L 98.707031 103.226562 C 98.707031 102.71875 98.484375 102.613281 98.152344 102.613281 C 97.757812 102.613281 97.605469 102.789062 97.605469 103.203125 C 97.605469 103.667969 97.792969 104.042969 98.8125 104.816406 C 100.089844 105.792969 100.523438 106.492188 100.523438 107.589844 C 100.523438 109.035156 99.636719 109.863281 98.085938 109.863281 Z M 96.089844 107.34375 L 96.089844 107.617188 C 96.089844 108.855469 96.761719 109.480469 98.085938 109.480469 C 99.410156 109.480469 100.136719 108.832031 100.136719 107.59375 C 100.136719 106.625 99.757812 106.023438 98.570312 105.128906 C 97.550781 104.355469 97.210938 103.871094 97.210938 103.210938 C 97.210938 102.546875 97.535156 102.234375 98.144531 102.234375 C 98.574219 102.234375 99.082031 102.40625 99.082031 103.234375 L 99.082031 103.460938 L 100.105469 103.460938 L 100.105469 103.316406 C 100.105469 102.078125 99.441406 101.449219 98.132812 101.449219 C 96.820312 101.449219 96.105469 102.085938 96.105469 103.292969 C 96.105469 104.1875 96.503906 104.792969 97.675781 105.6875 C 98.695312 106.460938 99.023438 106.945312 99.023438 107.691406 C 99.023438 108.351562 98.691406 108.699219 98.058594 108.699219 C 97.429688 108.699219 97.097656 108.351562 97.097656 107.710938 L 97.097656 107.34375 Z M 96.089844 107.34375 "/>
<path style=" stroke:none;fill-rule:nonzero;fill:rgb(82.749939%,12.548828%,15.289307%);fill-opacity:1;" d="M 100.332031 107.613281 L 100.332031 107.144531 L 101.738281 107.144531 L 101.738281 107.707031 C 101.738281 108.292969 102.035156 108.503906 102.507812 108.503906 C 102.980469 108.503906 103.28125 108.292969 103.28125 107.683594 C 103.28125 107.007812 102.980469 106.570312 102.007812 105.835938 C 100.765625 104.890625 100.359375 104.222656 100.359375 103.285156 C 100.359375 102 101.128906 101.25 102.578125 101.25 C 104.023438 101.25 104.742188 102 104.742188 103.308594 L 104.742188 103.65625 L 103.335938 103.65625 L 103.335938 103.226562 C 103.335938 102.644531 103.066406 102.421875 102.59375 102.421875 C 102.121094 102.421875 101.847656 102.644531 101.847656 103.203125 C 101.847656 103.800781 102.15625 104.234375 103.132812 104.972656 C 104.375 105.917969 104.769531 106.570312 104.769531 107.585938 C 104.769531 108.921875 103.984375 109.667969 102.523438 109.667969 C 101.066406 109.667969 100.332031 108.925781 100.332031 107.613281 Z M 100.332031 107.613281 "/>
<path style=" stroke:none;fill-rule:nonzero;fill:rgb(13.729858%,12.159729%,12.548828%);fill-opacity:1;" d="M 102.523438 109.863281 C 100.984375 109.863281 100.136719 109.066406 100.136719 107.613281 L 100.136719 106.953125 L 101.929688 106.953125 L 101.929688 107.707031 C 101.929688 108.140625 102.089844 108.308594 102.507812 108.308594 C 102.855469 108.308594 103.085938 108.203125 103.085938 107.683594 C 103.085938 107.070312 102.820312 106.691406 101.890625 105.988281 C 100.617188 105.019531 100.167969 104.3125 100.167969 103.285156 C 100.167969 101.871094 101.039062 101.058594 102.578125 101.058594 C 104.113281 101.058594 104.933594 101.859375 104.933594 103.3125 L 104.933594 103.835938 L 103.140625 103.835938 L 103.140625 103.226562 C 103.140625 102.71875 102.921875 102.613281 102.589844 102.613281 C 102.195312 102.613281 102.039062 102.789062 102.039062 103.203125 C 102.039062 103.667969 102.226562 104.042969 103.246094 104.816406 C 104.527344 105.792969 104.960938 106.492188 104.960938 107.589844 C 104.960938 109.035156 104.070312 109.863281 102.523438 109.863281 Z M 100.523438 107.34375 L 100.523438 107.617188 C 100.523438 108.855469 101.195312 109.480469 102.523438 109.480469 C 103.847656 109.480469 104.566406 108.828125 104.566406 107.589844 C 104.566406 106.621094 104.1875 106.019531 103.007812 105.125 C 101.992188 104.355469 101.648438 103.867188 101.648438 103.207031 C 101.648438 102.542969 101.972656 102.230469 102.585938 102.230469 C 103.011719 102.230469 103.519531 102.40625 103.519531 103.230469 L 103.519531 103.457031 L 104.542969 103.457031 L 104.542969 103.3125 C 104.542969 102.074219 103.878906 101.445312 102.570312 101.445312 C 101.261719 101.445312 100.558594 102.082031 100.558594 103.285156 C 100.558594 104.183594 100.953125 104.789062 102.125 105.683594 C 103.148438 106.457031 103.472656 106.941406 103.472656 107.683594 C 103.472656 108.34375 103.140625 108.695312 102.511719 108.695312 C 101.878906 108.695312 101.546875 108.347656 101.546875 107.707031 L 101.546875 107.34375 Z M 100.523438 107.34375 "/>
<path style=" stroke:none;fill-rule:nonzero;fill:rgb(82.749939%,12.548828%,15.289307%);fill-opacity:1;" d="M 99.4375 97.34375 L 101.222656 97.34375 L 101.222656 100.582031 L 99.4375 100.582031 Z M 99.4375 97.34375 "/>
<path style=" stroke:none;fill-rule:nonzero;fill:rgb(13.729858%,12.159729%,12.548828%);fill-opacity:1;" d="M 101.417969 100.777344 L 99.246094 100.777344 L 99.246094 97.148438 L 101.417969 97.148438 Z M 99.632812 100.390625 L 101.027344 100.390625 L 101.027344 97.535156 L 99.632812 97.535156 Z M 99.632812 100.390625 "/>
<path style=" stroke:none;fill-rule:nonzero;fill:rgb(2.749634%,3.138733%,5.488586%);fill-opacity:1;" d="M 100.574219 96.097656 C 89.484375 96.097656 74.554688 86.820312 69.542969 80.679688 L 69.488281 80.613281 C 64.253906 74.199219 54.53125 62.289062 66.347656 46.058594 C 65.363281 42.09375 60.191406 19.839844 67.382812 16.570312 C 74.386719 13.382812 83.355469 26.554688 85.054688 29.179688 C 87.191406 28.894531 94.53125 27.976562 97.226562 28.554688 C 98.292969 28.113281 102.441406 26.601562 108.1875 27.25 C 109.558594 24.738281 116.085938 13.609375 123.164062 14.839844 C 130.800781 16.179688 128.484375 40.765625 128.070312 44.648438 C 129.367188 47.03125 139.136719 66.003906 128.164062 77.957031 L 127.0625 79.148438 C 120.910156 85.894531 111.605469 96.097656 100.574219 96.097656 Z M 69.679688 17.628906 C 69.101562 17.625 68.542969 17.742188 68.015625 17.980469 C 62.695312 20.398438 66.148438 39.050781 67.929688 46.035156 C 67.992188 46.273438 67.949219 46.488281 67.800781 46.6875 C 56.363281 62.101562 65.679688 73.507812 70.683594 79.644531 L 70.738281 79.710938 C 75.5625 85.625 89.921875 94.5625 100.570312 94.5625 C 110.925781 94.5625 119.59375 85.058594 125.925781 78.117188 L 127.023438 76.914062 C 137.742188 65.234375 126.710938 45.394531 126.597656 45.195312 C 126.515625 45.050781 126.484375 44.898438 126.503906 44.730469 C 127.664062 34.214844 127.710938 17.214844 122.890625 16.367188 C 116.203125 15.195312 109.367188 28.308594 109.300781 28.441406 C 109.226562 28.589844 109.117188 28.699219 108.972656 28.773438 C 108.824219 28.851562 108.671875 28.875 108.511719 28.855469 C 102.117188 27.996094 97.664062 30.054688 97.617188 30.074219 C 97.441406 30.160156 97.257812 30.171875 97.066406 30.117188 C 95.09375 29.523438 87.519531 30.394531 84.769531 30.785156 C 84.4375 30.832031 84.183594 30.714844 84.007812 30.425781 C 81.621094 26.570312 74.867188 17.625 69.679688 17.625 Z M 69.679688 17.628906 "/>
<path style=" stroke:none;fill-rule:nonzero;fill:rgb(2.749634%,3.138733%,5.488586%);fill-opacity:1;" d="M 100.265625 90.167969 C 94.757812 90.167969 94.40625 80.085938 94.394531 79.660156 C 94.386719 79.457031 94.484375 79.328125 94.679688 79.273438 C 94.71875 79.265625 98.550781 78.199219 99.386719 75.878906 C 99.460938 75.726562 99.582031 75.648438 99.75 75.648438 C 99.917969 75.648438 100.039062 75.726562 100.113281 75.878906 C 100.121094 75.902344 101.066406 78.253906 105.796875 78.976562 C 105.894531 78.992188 105.972656 79.035156 106.035156 79.109375 C 106.097656 79.183594 106.128906 79.269531 106.125 79.367188 C 106.113281 79.808594 105.769531 90.167969 100.265625 90.167969 Z M 95.179688 79.929688 C 95.28125 81.558594 95.976562 89.394531 100.265625 89.394531 C 104.519531 89.394531 105.234375 81.433594 105.339844 79.683594 C 101.933594 79.09375 100.414062 77.679688 99.785156 76.828125 C 98.65625 78.683594 96.070312 79.644531 95.179688 79.929688 Z M 95.179688 79.929688 "/>
<path style=" stroke:none;fill-rule:nonzero;fill:rgb(83.918762%,83.918762%,83.918762%);fill-opacity:1;" d="M 74.363281 95.414062 C 74.363281 95.785156 74.328125 96.148438 74.253906 96.511719 C 74.183594 96.875 74.074219 97.226562 73.933594 97.570312 C 73.792969 97.910156 73.617188 98.234375 73.414062 98.542969 C 73.207031 98.851562 72.972656 99.136719 72.710938 99.398438 C 72.449219 99.660156 72.164062 99.894531 71.859375 100.097656 C 71.550781 100.304688 71.226562 100.476562 70.882812 100.617188 C 70.542969 100.761719 70.191406 100.867188 69.828125 100.9375 C 69.464844 101.011719 69.097656 101.046875 68.726562 101.046875 C 68.359375 101.046875 67.992188 101.011719 67.628906 100.9375 C 67.265625 100.867188 66.914062 100.761719 66.570312 100.617188 C 66.230469 100.476562 65.90625 100.304688 65.597656 100.097656 C 65.289062 99.894531 65.007812 99.660156 64.746094 99.398438 C 64.484375 99.136719 64.25 98.851562 64.042969 98.542969 C 63.839844 98.234375 63.664062 97.910156 63.523438 97.570312 C 63.382812 97.226562 63.273438 96.875 63.203125 96.511719 C 63.128906 96.148438 63.09375 95.785156 63.09375 95.414062 C 63.09375 95.042969 63.128906 94.675781 63.203125 94.3125 C 63.273438 93.953125 63.382812 93.597656 63.523438 93.257812 C 63.664062 92.914062 63.839844 92.589844 64.042969 92.285156 C 64.25 91.976562 64.484375 91.691406 64.746094 91.429688 C 65.007812 91.167969 65.289062 90.933594 65.597656 90.730469 C 65.90625 90.523438 66.230469 90.351562 66.570312 90.207031 C 66.914062 90.066406 67.265625 89.960938 67.628906 89.886719 C 67.992188 89.816406 68.359375 89.78125 68.726562 89.78125 C 69.097656 89.78125 69.464844 89.816406 69.828125 89.886719 C 70.191406 89.960938 70.542969 90.066406 70.882812 90.207031 C 71.226562 90.351562 71.550781 90.523438 71.859375 90.730469 C 72.164062 90.933594 72.449219 91.167969 72.710938 91.429688 C 72.972656 91.691406 73.207031 91.976562 73.414062 92.285156 C 73.617188 92.589844 73.792969 92.914062 73.933594 93.257812 C 74.074219 93.597656 74.183594 93.953125 74.253906 94.3125 C 74.328125 94.675781 74.363281 95.042969 74.363281 95.414062 Z M 74.363281 95.414062 "/>
<path style=" stroke:none;fill-rule:nonzero;fill:rgb(2.749634%,3.138733%,5.488586%);fill-opacity:1;" d="M 68.726562 101.820312 C 68.308594 101.820312 67.890625 101.777344 67.476562 101.695312 C 67.066406 101.613281 66.664062 101.492188 66.277344 101.332031 C 65.886719 101.171875 65.519531 100.972656 65.167969 100.738281 C 64.820312 100.503906 64.496094 100.238281 64.199219 99.941406 C 63.902344 99.644531 63.636719 99.320312 63.402344 98.972656 C 63.167969 98.621094 62.96875 98.253906 62.808594 97.863281 C 62.648438 97.476562 62.527344 97.074219 62.445312 96.660156 C 62.363281 96.25 62.320312 95.832031 62.320312 95.410156 C 62.320312 94.992188 62.363281 94.574219 62.445312 94.160156 C 62.527344 93.75 62.648438 93.347656 62.808594 92.960938 C 62.96875 92.570312 63.167969 92.203125 63.402344 91.851562 C 63.636719 91.503906 63.902344 91.179688 64.199219 90.882812 C 64.496094 90.585938 64.820312 90.320312 65.167969 90.085938 C 65.519531 89.851562 65.886719 89.652344 66.277344 89.492188 C 66.664062 89.332031 67.066406 89.210938 67.476562 89.128906 C 67.890625 89.046875 68.308594 89.003906 68.726562 89.003906 C 69.148438 89.003906 69.566406 89.046875 69.976562 89.128906 C 70.390625 89.210938 70.792969 89.332031 71.179688 89.492188 C 71.570312 89.65625 71.9375 89.851562 72.289062 90.085938 C 72.636719 90.320312 72.960938 90.585938 73.257812 90.882812 C 73.554688 91.179688 73.820312 91.503906 74.054688 91.855469 C 74.289062 92.203125 74.488281 92.574219 74.648438 92.960938 C 74.808594 93.351562 74.929688 93.75 75.011719 94.164062 C 75.09375 94.578125 75.136719 94.992188 75.136719 95.414062 C 75.132812 95.835938 75.09375 96.25 75.011719 96.664062 C 74.929688 97.074219 74.804688 97.476562 74.644531 97.863281 C 74.484375 98.253906 74.285156 98.621094 74.050781 98.96875 C 73.820312 99.320312 73.554688 99.644531 73.253906 99.941406 C 72.957031 100.238281 72.636719 100.503906 72.285156 100.738281 C 71.9375 100.96875 71.566406 101.167969 71.179688 101.328125 C 70.789062 101.488281 70.390625 101.613281 69.976562 101.695312 C 69.566406 101.777344 69.148438 101.816406 68.726562 101.820312 Z M 68.726562 90.550781 C 68.410156 90.550781 68.09375 90.582031 67.78125 90.644531 C 67.464844 90.707031 67.164062 90.800781 66.867188 90.921875 C 66.574219 91.042969 66.292969 91.195312 66.027344 91.371094 C 65.761719 91.546875 65.515625 91.75 65.289062 91.976562 C 65.066406 92.203125 64.863281 92.445312 64.6875 92.710938 C 64.507812 92.976562 64.359375 93.257812 64.238281 93.554688 C 64.113281 93.847656 64.023438 94.152344 63.960938 94.464844 C 63.898438 94.777344 63.867188 95.09375 63.867188 95.414062 C 63.867188 95.734375 63.898438 96.050781 63.960938 96.363281 C 64.023438 96.675781 64.113281 96.980469 64.238281 97.273438 C 64.359375 97.570312 64.507812 97.847656 64.6875 98.113281 C 64.863281 98.378906 65.066406 98.625 65.289062 98.851562 C 65.515625 99.078125 65.761719 99.277344 66.027344 99.457031 C 66.292969 99.632812 66.574219 99.78125 66.867188 99.90625 C 67.164062 100.027344 67.464844 100.121094 67.78125 100.183594 C 68.09375 100.242188 68.410156 100.273438 68.726562 100.273438 C 69.046875 100.273438 69.363281 100.242188 69.675781 100.183594 C 69.988281 100.121094 70.292969 100.027344 70.589844 99.90625 C 70.882812 99.78125 71.164062 99.632812 71.429688 99.457031 C 71.695312 99.277344 71.941406 99.078125 72.164062 98.851562 C 72.390625 98.625 72.59375 98.378906 72.769531 98.113281 C 72.949219 97.847656 73.097656 97.570312 73.21875 97.273438 C 73.34375 96.980469 73.433594 96.675781 73.496094 96.363281 C 73.558594 96.050781 73.589844 95.734375 73.589844 95.414062 C 73.589844 95.09375 73.558594 94.777344 73.496094 94.464844 C 73.433594 94.152344 73.339844 93.847656 73.21875 93.554688 C 73.09375 93.257812 72.945312 92.980469 72.769531 92.714844 C 72.589844 92.449219 72.390625 92.203125 72.164062 91.976562 C 71.9375 91.753906 71.691406 91.550781 71.425781 91.375 C 71.164062 91.195312 70.882812 91.046875 70.585938 90.925781 C 70.292969 90.800781 69.988281 90.710938 69.675781 90.648438 C 69.363281 90.585938 69.046875 90.550781 68.726562 90.550781 Z M 68.726562 90.550781 "/>
<path style=" stroke:none;fill-rule:nonzero;fill:rgb(100%,100%,100%);fill-opacity:1;" d="M 71.910156 92.289062 C 71.121094 94.929688 69.3125 97.460938 67.609375 98.964844 C 63.726562 102.394531 47.273438 98.703125 45.714844 90.28125 C 45.621094 89.757812 45.582031 89.230469 45.605469 88.699219 C 45.992188 79.15625 55.644531 80.476562 66.019531 83.121094 C 72.085938 84.660156 73.003906 88.574219 71.910156 92.289062 Z M 71.910156 92.289062 "/>
<path style=" stroke:none;fill-rule:nonzero;fill:rgb(83.918762%,83.918762%,83.918762%);fill-opacity:1;" d="M 71.910156 92.289062 C 71.121094 94.929688 69.3125 97.460938 67.609375 98.964844 C 63.726562 102.394531 47.273438 98.703125 45.714844 90.28125 C 49.105469 92.695312 56.199219 96.878906 63.09375 95.414062 C 66.171875 94.769531 69.109375 93.726562 71.910156 92.289062 Z M 71.910156 92.289062 "/>
<path style=" stroke:none;fill-rule:nonzero;fill:rgb(2.749634%,3.138733%,5.488586%);fill-opacity:1;" d="M 62.773438 101.015625 C 59.515625 101.015625 55.621094 100.078125 52.53125 98.605469 C 47.40625 96.164062 44.671875 92.632812 44.832031 88.664062 C 44.953125 85.710938 45.941406 83.523438 47.773438 82.15625 C 51.710938 79.222656 58.960938 80.527344 66.207031 82.371094 C 70.886719 83.5625 72.417969 86.089844 72.878906 88 C 73.828125 91.929688 71.136719 96.890625 68.117188 99.550781 C 66.953125 100.570312 65.015625 101.015625 62.773438 101.015625 Z M 54.316406 81.945312 C 52.03125 81.945312 50.082031 82.351562 48.699219 83.386719 C 47.238281 84.476562 46.476562 86.21875 46.375 88.71875 C 46.203125 93.199219 50.570312 95.964844 53.191406 97.210938 C 58.859375 99.90625 65.207031 100.054688 67.097656 98.382812 C 69.390625 96.355469 72.238281 91.90625 71.378906 88.351562 C 70.855469 86.175781 68.984375 84.664062 65.824219 83.859375 C 61.738281 82.820312 57.660156 81.945312 54.316406 81.945312 Z M 54.316406 81.945312 "/>
<path style=" stroke:none;fill-rule:nonzero;fill:rgb(2.749634%,3.138733%,5.488586%);fill-opacity:1;" d="M 61.046875 100.425781 C 60.78125 100.425781 60.570312 100.316406 60.414062 100.101562 C 58.566406 97.496094 58.902344 91.8125 60.136719 90.234375 C 60.265625 90.066406 60.4375 89.96875 60.648438 89.941406 C 60.863281 89.917969 61.054688 89.96875 61.222656 90.101562 C 61.390625 90.230469 61.488281 90.402344 61.511719 90.617188 C 61.539062 90.828125 61.488281 91.019531 61.355469 91.1875 C 60.539062 92.234375 60.21875 97.144531 61.679688 99.207031 C 61.804688 99.378906 61.851562 99.570312 61.816406 99.78125 C 61.78125 99.992188 61.679688 100.160156 61.503906 100.285156 C 61.367188 100.382812 61.214844 100.429688 61.046875 100.425781 Z M 61.046875 100.425781 "/>
<path style=" stroke:none;fill-rule:nonzero;fill:rgb(2.749634%,3.138733%,5.488586%);fill-opacity:1;" d="M 52.082031 98.113281 C 51.753906 98.117188 51.523438 97.96875 51.382812 97.675781 C 48.886719 92.484375 50.109375 88.539062 51.542969 87.152344 C 51.691406 86.992188 51.878906 86.914062 52.097656 86.914062 C 52.316406 86.914062 52.5 86.992188 52.652344 87.148438 C 52.804688 87.304688 52.878906 87.496094 52.871094 87.714844 C 52.863281 87.933594 52.777344 88.113281 52.617188 88.261719 C 51.714844 89.132812 50.570312 92.417969 52.773438 97.007812 C 52.867188 97.203125 52.878906 97.398438 52.808594 97.597656 C 52.738281 97.800781 52.605469 97.945312 52.414062 98.039062 C 52.308594 98.089844 52.195312 98.113281 52.082031 98.113281 Z M 52.082031 98.113281 "/>
<path style=" stroke:none;fill-rule:nonzero;fill:rgb(83.918762%,83.918762%,83.918762%);fill-opacity:1;" d="M 134.785156 95.414062 C 134.785156 95.785156 134.75 96.148438 134.679688 96.511719 C 134.605469 96.875 134.5 97.226562 134.359375 97.570312 C 134.214844 97.910156 134.042969 98.234375 133.835938 98.542969 C 133.632812 98.851562 133.398438 99.136719 133.136719 99.398438 C 132.875 99.660156 132.589844 99.894531 132.28125 100.097656 C 131.976562 100.304688 131.652344 100.476562 131.308594 100.617188 C 130.96875 100.761719 130.613281 100.867188 130.253906 100.9375 C 129.890625 101.011719 129.523438 101.046875 129.152344 101.046875 C 128.78125 101.046875 128.417969 101.011719 128.054688 100.9375 C 127.691406 100.867188 127.339844 100.761719 126.996094 100.617188 C 126.65625 100.476562 126.332031 100.304688 126.023438 100.097656 C 125.714844 99.894531 125.429688 99.660156 125.167969 99.398438 C 124.90625 99.136719 124.675781 98.851562 124.46875 98.542969 C 124.261719 98.234375 124.089844 97.910156 123.949219 97.570312 C 123.804688 97.226562 123.699219 96.875 123.628906 96.511719 C 123.554688 96.148438 123.519531 95.785156 123.519531 95.414062 C 123.519531 95.042969 123.554688 94.675781 123.628906 94.3125 C 123.699219 93.953125 123.804688 93.597656 123.949219 93.257812 C 124.089844 92.914062 124.261719 92.589844 124.46875 92.285156 C 124.675781 91.976562 124.90625 91.691406 125.167969 91.429688 C 125.429688 91.167969 125.714844 90.933594 126.023438 90.730469 C 126.332031 90.523438 126.65625 90.351562 126.996094 90.207031 C 127.339844 90.066406 127.691406 89.960938 128.054688 89.886719 C 128.417969 89.816406 128.78125 89.78125 129.152344 89.78125 C 129.523438 89.78125 129.890625 89.816406 130.253906 89.886719 C 130.613281 89.960938 130.96875 90.066406 131.308594 90.207031 C 131.652344 90.351562 131.976562 90.523438 132.28125 90.730469 C 132.589844 90.933594 132.875 91.167969 133.136719 91.429688 C 133.398438 91.691406 133.632812 91.976562 133.835938 92.285156 C 134.042969 92.589844 134.214844 92.914062 134.359375 93.257812 C 134.5 93.597656 134.605469 93.953125 134.679688 94.3125 C 134.75 94.675781 134.785156 95.042969 134.785156 95.414062 Z M 134.785156 95.414062 "/>
<path style=" stroke:none;fill-rule:nonzero;fill:rgb(2.749634%,3.138733%,5.488586%);fill-opacity:1;" d="M 129.15625 101.820312 C 128.734375 101.820312 128.316406 101.777344 127.90625 101.695312 C 127.492188 101.613281 127.089844 101.492188 126.703125 101.332031 C 126.3125 101.171875 125.945312 100.972656 125.59375 100.738281 C 125.246094 100.503906 124.921875 100.238281 124.625 99.941406 C 124.328125 99.644531 124.0625 99.320312 123.828125 98.972656 C 123.59375 98.621094 123.398438 98.253906 123.234375 97.863281 C 123.074219 97.476562 122.953125 97.074219 122.871094 96.660156 C 122.789062 96.25 122.75 95.832031 122.75 95.410156 C 122.75 94.992188 122.789062 94.574219 122.871094 94.160156 C 122.953125 93.75 123.074219 93.347656 123.234375 92.960938 C 123.398438 92.570312 123.59375 92.203125 123.828125 91.851562 C 124.0625 91.503906 124.328125 91.179688 124.625 90.882812 C 124.921875 90.585938 125.246094 90.320312 125.59375 90.085938 C 125.945312 89.851562 126.3125 89.652344 126.703125 89.492188 C 127.089844 89.332031 127.492188 89.210938 127.90625 89.128906 C 128.316406 89.046875 128.734375 89.003906 129.15625 89.003906 C 129.574219 89.003906 129.992188 89.046875 130.40625 89.128906 C 130.816406 89.210938 131.21875 89.332031 131.605469 89.492188 C 131.996094 89.65625 132.363281 89.851562 132.714844 90.085938 C 133.0625 90.320312 133.386719 90.585938 133.683594 90.882812 C 133.984375 91.179688 134.25 91.503906 134.480469 91.855469 C 134.714844 92.203125 134.914062 92.574219 135.074219 92.960938 C 135.234375 93.351562 135.355469 93.75 135.4375 94.164062 C 135.519531 94.578125 135.5625 94.992188 135.5625 95.414062 C 135.5625 95.835938 135.519531 96.25 135.4375 96.664062 C 135.355469 97.074219 135.230469 97.476562 135.070312 97.863281 C 134.910156 98.253906 134.710938 98.621094 134.480469 98.96875 C 134.246094 99.320312 133.980469 99.644531 133.683594 99.941406 C 133.386719 100.238281 133.0625 100.503906 132.710938 100.738281 C 132.363281 100.96875 131.992188 101.167969 131.605469 101.328125 C 131.214844 101.488281 130.816406 101.613281 130.402344 101.695312 C 129.992188 101.777344 129.574219 101.816406 129.15625 101.820312 Z M 129.15625 90.550781 C 128.835938 90.550781 128.519531 90.582031 128.207031 90.644531 C 127.894531 90.707031 127.589844 90.800781 127.292969 90.921875 C 127 91.042969 126.71875 91.195312 126.453125 91.371094 C 126.1875 91.550781 125.945312 91.75 125.71875 91.976562 C 125.492188 92.203125 125.292969 92.449219 125.113281 92.710938 C 124.9375 92.976562 124.785156 93.257812 124.664062 93.554688 C 124.542969 93.847656 124.449219 94.152344 124.386719 94.464844 C 124.324219 94.777344 124.292969 95.09375 124.292969 95.414062 C 124.292969 95.734375 124.324219 96.050781 124.386719 96.363281 C 124.449219 96.675781 124.542969 96.980469 124.664062 97.273438 C 124.789062 97.570312 124.9375 97.847656 125.113281 98.113281 C 125.292969 98.378906 125.492188 98.625 125.71875 98.851562 C 125.945312 99.078125 126.191406 99.277344 126.457031 99.457031 C 126.722656 99.632812 127 99.78125 127.296875 99.90625 C 127.589844 100.027344 127.894531 100.121094 128.207031 100.183594 C 128.519531 100.242188 128.835938 100.273438 129.15625 100.273438 C 129.476562 100.273438 129.792969 100.242188 130.105469 100.183594 C 130.417969 100.121094 130.722656 100.027344 131.015625 99.90625 C 131.3125 99.78125 131.59375 99.632812 131.855469 99.457031 C 132.121094 99.277344 132.367188 99.078125 132.59375 98.851562 C 132.820312 98.625 133.019531 98.378906 133.199219 98.113281 C 133.375 97.847656 133.527344 97.570312 133.648438 97.273438 C 133.769531 96.980469 133.863281 96.675781 133.925781 96.363281 C 133.988281 96.050781 134.019531 95.734375 134.019531 95.414062 C 134.015625 95.09375 133.984375 94.777344 133.921875 94.464844 C 133.859375 94.152344 133.769531 93.847656 133.644531 93.554688 C 133.523438 93.257812 133.375 92.980469 133.195312 92.714844 C 133.019531 92.449219 132.816406 92.203125 132.589844 91.976562 C 132.367188 91.75 132.121094 91.550781 131.855469 91.371094 C 131.589844 91.195312 131.308594 91.046875 131.015625 90.921875 C 130.71875 90.800781 130.414062 90.707031 130.101562 90.644531 C 129.789062 90.582031 129.472656 90.550781 129.15625 90.550781 Z M 129.15625 90.550781 "/>
<path style=" stroke:none;fill-rule:nonzero;fill:rgb(100%,100%,100%);fill-opacity:1;" d="M 125.972656 92.289062 C 126.761719 94.929688 128.566406 97.460938 130.273438 98.964844 C 134.15625 102.394531 150.609375 98.703125 152.167969 90.28125 C 152.261719 89.757812 152.296875 89.230469 152.273438 88.699219 C 151.890625 79.15625 142.238281 80.476562 131.863281 83.121094 C 125.796875 84.660156 124.878906 88.574219 125.972656 92.289062 Z M 125.972656 92.289062 "/>
<path style=" stroke:none;fill-rule:nonzero;fill:rgb(83.918762%,83.918762%,83.918762%);fill-opacity:1;" d="M 125.972656 92.289062 C 126.761719 94.929688 128.566406 97.460938 130.273438 98.964844 C 134.15625 102.394531 150.609375 98.703125 152.167969 90.28125 C 148.777344 92.695312 141.683594 96.878906 134.789062 95.414062 C 131.710938 94.769531 128.769531 93.726562 125.972656 92.289062 Z M 125.972656 92.289062 "/>
<path style=" stroke:none;fill-rule:nonzero;fill:rgb(2.749634%,3.138733%,5.488586%);fill-opacity:1;" d="M 135.113281 101.015625 C 132.867188 101.015625 130.925781 100.570312 129.761719 99.542969 C 126.746094 96.875 124.050781 91.921875 125.003906 87.992188 C 125.464844 86.082031 126.996094 83.554688 131.675781 82.363281 C 138.921875 80.515625 146.171875 79.210938 150.105469 82.148438 C 151.941406 83.515625 152.929688 85.703125 153.050781 88.65625 C 153.210938 92.632812 150.476562 96.167969 145.351562 98.597656 C 142.257812 100.078125 138.363281 101.015625 135.113281 101.015625 Z M 143.566406 81.945312 C 140.21875 81.945312 136.144531 82.820312 132.058594 83.863281 C 128.898438 84.667969 127.03125 86.179688 126.507812 88.359375 C 125.648438 91.910156 128.492188 96.363281 130.789062 98.386719 C 132.675781 100.054688 139.023438 99.910156 144.691406 97.214844 C 147.304688 95.964844 151.6875 93.203125 151.507812 88.722656 C 151.40625 86.222656 150.644531 84.476562 149.183594 83.386719 C 147.796875 82.351562 145.851562 81.945312 143.566406 81.945312 Z M 143.566406 81.945312 "/>
<path style=" stroke:none;fill-rule:nonzero;fill:rgb(2.749634%,3.138733%,5.488586%);fill-opacity:1;" d="M 136.835938 100.425781 C 136.671875 100.425781 136.523438 100.378906 136.390625 100.28125 C 136.21875 100.15625 136.113281 99.992188 136.078125 99.78125 C 136.046875 99.570312 136.089844 99.378906 136.214844 99.207031 C 137.679688 97.144531 137.355469 92.230469 136.539062 91.183594 C 136.40625 91.015625 136.355469 90.824219 136.378906 90.613281 C 136.40625 90.402344 136.503906 90.230469 136.671875 90.097656 C 136.839844 89.96875 137.03125 89.914062 137.242188 89.941406 C 137.457031 89.96875 137.625 90.0625 137.757812 90.234375 C 138.992188 91.800781 139.328125 97.492188 137.476562 100.097656 C 137.320312 100.320312 137.105469 100.429688 136.835938 100.425781 Z M 136.835938 100.425781 "/>
<path style=" stroke:none;fill-rule:nonzero;fill:rgb(2.749634%,3.138733%,5.488586%);fill-opacity:1;" d="M 145.8125 98.113281 C 145.679688 98.117188 145.554688 98.085938 145.4375 98.019531 C 145.320312 97.957031 145.226562 97.867188 145.15625 97.757812 C 145.082031 97.644531 145.042969 97.519531 145.039062 97.386719 C 145.03125 97.253906 145.054688 97.128906 145.113281 97.007812 C 147.316406 92.417969 146.171875 89.132812 145.269531 88.261719 C 145.117188 88.113281 145.039062 87.929688 145.035156 87.71875 C 145.03125 87.503906 145.105469 87.320312 145.253906 87.167969 C 145.402344 87.015625 145.582031 86.9375 145.796875 86.933594 C 146.011719 86.929688 146.191406 87.003906 146.347656 87.152344 C 147.777344 88.539062 149 92.484375 146.503906 97.675781 C 146.363281 97.96875 146.132812 98.113281 145.8125 98.113281 Z M 145.8125 98.113281 "/>
<path style=" stroke:none;fill-rule:nonzero;fill:rgb(100%,100%,100%);fill-opacity:1;" d="M 39.183594 130.300781 L 76.859375 130.300781 C 76.859375 130.300781 81.023438 123.238281 70.699219 121.667969 C 70.699219 121.667969 76.121094 107.285156 58.4375 111.207031 C 40.757812 115.128906 51.90625 124.546875 51.90625 124.546875 C 51.90625 124.546875 41.269531 116.4375 39.175781 125.070312 C 39.175781 125.070312 31.070312 122.191406 31.070312 126.640625 C 31.070312 126.640625 22.195312 125.332031 22.175781 128.730469 C 22.175781 130.691406 39.183594 130.300781 39.183594 130.300781 Z M 39.183594 130.300781 "/>
<g clip-path="url(#clip9)" clip-rule="nonzero">
<path style="fill:none;stroke-width:8;stroke-linecap:butt;stroke-linejoin:miter;stroke:rgb(13.729858%,12.159729%,12.548828%);stroke-opacity:1;stroke-miterlimit:10;" d="M 152.039211 865.658891 L 368.100051 865.658891 C 368.100051 865.658891 391.97987 825.157284 332.773151 816.151949 C 332.773151 816.151949 363.866199 733.670247 262.455372 756.161184 C 161.066947 778.652121 225.000347 832.66173 225.000347 832.66173 C 225.000347 832.66173 164.001522 786.156566 151.994408 835.663509 C 151.994408 835.663509 105.511646 819.153727 105.511646 844.668844 C 105.511646 844.668844 54.615821 837.164398 54.503814 856.653556 C 54.503814 867.899024 152.039211 865.658891 152.039211 865.658891 Z M 152.039211 865.658891 " transform="matrix(0.174376,0,0,0.174376,12.671635,-20.649178)"/>
</g>
<path style=" stroke:none;fill-rule:nonzero;fill:rgb(100%,100%,100%);fill-opacity:1;" d="M 177.878906 128.316406 L 121.851562 128.316406 C 121.851562 128.316406 119.757812 116.980469 134.40625 118.726562 C 134.40625 118.726562 138.515625 106.1875 149.886719 109.660156 C 161.257812 113.128906 159.496094 120.429688 159.496094 120.429688 C 159.496094 120.429688 162.949219 115.230469 168.914062 118.71875 C 174.875 122.203125 172.253906 123.601562 172.253906 123.601562 C 172.253906 123.601562 178.378906 121.507812 179.414062 124.996094 C 180.449219 128.480469 177.878906 128.316406 177.878906 128.316406 Z M 177.878906 128.316406 "/>
<g clip-path="url(#clip10)" clip-rule="nonzero">
<path style="fill:none;stroke-width:8;stroke-linecap:butt;stroke-linejoin:miter;stroke:rgb(13.729858%,12.159729%,12.548828%);stroke-opacity:1;stroke-miterlimit:10;" d="M 947.420878 854.279015 L 626.118584 854.279015 C 626.118584 854.279015 614.11147 789.270352 698.116462 799.283747 C 698.116462 799.283747 721.682663 727.375473 786.892938 747.290257 C 852.103213 767.182639 842.000213 809.050727 842.000213 809.050727 C 842.000213 809.050727 861.80299 779.234555 896.009823 799.238944 C 930.194254 819.220931 915.162961 827.240608 915.162961 827.240608 C 915.162961 827.240608 950.288248 815.233494 956.224601 835.237883 C 962.160954 855.219871 947.420878 854.279015 947.420878 854.279015 Z M 947.420878 854.279015 " transform="matrix(0.174376,0,0,0.174376,12.671635,-20.649178)"/>
</g>
</g>
</svg>
