<?xml version="1.0" encoding="UTF-8"?>
<svg xmlns="http://www.w3.org/2000/svg" xmlns:xlink="http://www.w3.org/1999/xlink" width="199.5pt" height="131.999998pt" viewBox="0 0 199.5 131.999998" version="1.2">
<defs>
<clipPath id="clip1">
  <path d="M 48 42 L 76 42 L 76 63 L 48 63 Z M 48 42 "/>
</clipPath>
<clipPath id="clip2">
  <path d="M 51.566406 37.519531 L 79.773438 51.546875 L 72.425781 66.320312 L 44.222656 52.292969 Z M 51.566406 37.519531 "/>
</clipPath>
<clipPath id="clip3">
  <path d="M 51.566406 37.519531 L 79.773438 51.546875 L 72.425781 66.320312 L 44.222656 52.292969 Z M 51.566406 37.519531 "/>
</clipPath>
<clipPath id="clip4">
  <path d="M 51.566406 37.519531 L 79.785156 51.550781 L 72.359375 66.484375 L 44.140625 52.453125 Z M 51.566406 37.519531 "/>
</clipPath>
<clipPath id="clip5">
  <path d="M 56 50 L 67 50 L 67 55 L 56 55 Z M 56 50 "/>
</clipPath>
<clipPath id="clip6">
  <path d="M 51.566406 37.519531 L 79.773438 51.546875 L 72.425781 66.320312 L 44.222656 52.292969 Z M 51.566406 37.519531 "/>
</clipPath>
<clipPath id="clip7">
  <path d="M 51.566406 37.519531 L 79.773438 51.546875 L 72.425781 66.320312 L 44.222656 52.292969 Z M 51.566406 37.519531 "/>
</clipPath>
<clipPath id="clip8">
  <path d="M 51.566406 37.519531 L 79.785156 51.550781 L 72.359375 66.484375 L 44.140625 52.453125 Z M 51.566406 37.519531 "/>
</clipPath>
<clipPath id="clip9">
  <path d="M 59 51 L 69 51 L 69 56 L 59 56 Z M 59 51 "/>
</clipPath>
<clipPath id="clip10">
  <path d="M 51.566406 37.519531 L 79.773438 51.546875 L 72.425781 66.320312 L 44.222656 52.292969 Z M 51.566406 37.519531 "/>
</clipPath>
<clipPath id="clip11">
  <path d="M 51.566406 37.519531 L 79.773438 51.546875 L 72.425781 66.320312 L 44.222656 52.292969 Z M 51.566406 37.519531 "/>
</clipPath>
<clipPath id="clip12">
  <path d="M 51.566406 37.519531 L 79.785156 51.550781 L 72.359375 66.484375 L 44.140625 52.453125 Z M 51.566406 37.519531 "/>
</clipPath>
<clipPath id="clip13">
  <path d="M 44 37 L 80 37 L 80 67 L 44 67 Z M 44 37 "/>
</clipPath>
<clipPath id="clip14">
  <path d="M 51.566406 37.519531 L 79.773438 51.546875 L 72.425781 66.320312 L 44.222656 52.292969 Z M 51.566406 37.519531 "/>
</clipPath>
<clipPath id="clip15">
  <path d="M 51.566406 37.519531 L 79.773438 51.546875 L 72.425781 66.320312 L 44.222656 52.292969 Z M 51.566406 37.519531 "/>
</clipPath>
<clipPath id="clip16">
  <path d="M 51.566406 37.519531 L 79.785156 51.550781 L 72.359375 66.484375 L 44.140625 52.453125 Z M 51.566406 37.519531 "/>
</clipPath>
<clipPath id="clip17">
  <path d="M 7 37 L 33 37 L 33 62 L 7 62 Z M 7 37 "/>
</clipPath>
<clipPath id="clip18">
  <path d="M 2.144531 54.035156 L 25.535156 32.9375 L 36.585938 45.191406 L 13.195312 66.289062 Z M 2.144531 54.035156 "/>
</clipPath>
<clipPath id="clip19">
  <path d="M 2.144531 54.035156 L 25.535156 32.9375 L 36.585938 45.191406 L 13.195312 66.289062 Z M 2.144531 54.035156 "/>
</clipPath>
<clipPath id="clip20">
  <path d="M 2.144531 54.035156 L 25.527344 32.945312 L 36.695312 45.332031 L 13.316406 66.421875 Z M 2.144531 54.035156 "/>
</clipPath>
<clipPath id="clip21">
  <path d="M 18 44 L 21 44 L 21 56 L 18 56 Z M 18 44 "/>
</clipPath>
<clipPath id="clip22">
  <path d="M 2.144531 54.035156 L 25.535156 32.9375 L 36.585938 45.191406 L 13.195312 66.289062 Z M 2.144531 54.035156 "/>
</clipPath>
<clipPath id="clip23">
  <path d="M 2.144531 54.035156 L 25.535156 32.9375 L 36.585938 45.191406 L 13.195312 66.289062 Z M 2.144531 54.035156 "/>
</clipPath>
<clipPath id="clip24">
  <path d="M 2.144531 54.035156 L 25.527344 32.945312 L 36.695312 45.332031 L 13.316406 66.421875 Z M 2.144531 54.035156 "/>
</clipPath>
<clipPath id="clip25">
  <path d="M 20 43 L 22 43 L 22 54 L 20 54 Z M 20 43 "/>
</clipPath>
<clipPath id="clip26">
  <path d="M 2.144531 54.035156 L 25.535156 32.9375 L 36.585938 45.191406 L 13.195312 66.289062 Z M 2.144531 54.035156 "/>
</clipPath>
<clipPath id="clip27">
  <path d="M 2.144531 54.035156 L 25.535156 32.9375 L 36.585938 45.191406 L 13.195312 66.289062 Z M 2.144531 54.035156 "/>
</clipPath>
<clipPath id="clip28">
  <path d="M 2.144531 54.035156 L 25.527344 32.945312 L 36.695312 45.332031 L 13.316406 66.421875 Z M 2.144531 54.035156 "/>
</clipPath>
<clipPath id="clip29">
  <path d="M 2 32 L 37 32 L 37 67 L 2 67 Z M 2 32 "/>
</clipPath>
<clipPath id="clip30">
  <path d="M 2.144531 54.035156 L 25.535156 32.9375 L 36.585938 45.191406 L 13.195312 66.289062 Z M 2.144531 54.035156 "/>
</clipPath>
<clipPath id="clip31">
  <path d="M 2.144531 54.035156 L 25.535156 32.9375 L 36.585938 45.191406 L 13.195312 66.289062 Z M 2.144531 54.035156 "/>
</clipPath>
<clipPath id="clip32">
  <path d="M 2.144531 54.035156 L 25.527344 32.945312 L 36.695312 45.332031 L 13.316406 66.421875 Z M 2.144531 54.035156 "/>
</clipPath>
</defs>
<g id="surface1">
<path style=" stroke:none;fill-rule:nonzero;fill:rgb(83.918762%,83.918762%,83.918762%);fill-opacity:1;" d="M 197.390625 118.980469 C 197.390625 119.179688 197.277344 119.375 197.054688 119.574219 C 196.832031 119.769531 196.5 119.964844 196.058594 120.160156 C 195.613281 120.351562 195.0625 120.542969 194.40625 120.734375 C 193.746094 120.921875 192.980469 121.105469 192.113281 121.289062 C 191.242188 121.472656 190.273438 121.652344 189.203125 121.824219 C 188.132812 122 186.964844 122.167969 185.703125 122.332031 C 184.441406 122.496094 183.089844 122.65625 181.648438 122.808594 C 180.210938 122.960938 178.6875 123.105469 177.082031 123.246094 C 175.472656 123.386719 173.792969 123.519531 172.039062 123.644531 C 170.28125 123.769531 168.460938 123.886719 166.574219 123.996094 C 164.683594 124.105469 162.738281 124.207031 160.734375 124.300781 C 158.734375 124.394531 156.683594 124.476562 154.582031 124.554688 C 152.484375 124.628906 150.351562 124.695312 148.175781 124.753906 C 146.003906 124.808594 143.804688 124.859375 141.574219 124.898438 C 139.347656 124.933594 137.105469 124.964844 134.84375 124.984375 C 132.585938 125.003906 130.320312 125.011719 128.046875 125.011719 C 125.777344 125.011719 123.511719 125.003906 121.25 124.984375 C 118.992188 124.964844 116.746094 124.933594 114.519531 124.898438 C 112.292969 124.859375 110.089844 124.808594 107.917969 124.753906 C 105.746094 124.695312 103.609375 124.628906 101.511719 124.554688 C 99.414062 124.476562 97.363281 124.394531 95.359375 124.300781 C 93.355469 124.207031 91.410156 124.105469 89.523438 123.996094 C 87.632812 123.886719 85.8125 123.769531 84.058594 123.644531 C 82.300781 123.519531 80.621094 123.386719 79.015625 123.246094 C 77.410156 123.105469 75.886719 122.960938 74.445312 122.808594 C 73.003906 122.65625 71.652344 122.496094 70.390625 122.332031 C 69.128906 122.167969 67.964844 122 66.894531 121.824219 C 65.820312 121.652344 64.851562 121.472656 63.984375 121.289062 C 63.113281 121.105469 62.351562 120.921875 61.691406 120.734375 C 61.03125 120.542969 60.480469 120.351562 60.039062 120.160156 C 59.59375 119.964844 59.261719 119.769531 59.039062 119.574219 C 58.816406 119.375 58.703125 119.179688 58.703125 118.980469 C 58.703125 118.785156 58.816406 118.585938 59.039062 118.390625 C 59.261719 118.195312 59.59375 118 60.039062 117.804688 C 60.480469 117.613281 61.03125 117.421875 61.691406 117.230469 C 62.351562 117.042969 63.113281 116.855469 63.984375 116.675781 C 64.851562 116.492188 65.820312 116.3125 66.894531 116.140625 C 67.964844 115.964844 69.128906 115.796875 70.390625 115.632812 C 71.652344 115.46875 73.003906 115.308594 74.445312 115.15625 C 75.886719 115.003906 77.410156 114.855469 79.015625 114.71875 C 80.621094 114.578125 82.300781 114.445312 84.058594 114.320312 C 85.8125 114.195312 87.632812 114.078125 89.523438 113.96875 C 91.410156 113.859375 93.355469 113.757812 95.359375 113.664062 C 97.363281 113.570312 99.414062 113.484375 101.511719 113.410156 C 103.609375 113.335938 105.746094 113.269531 107.917969 113.210938 C 110.089844 113.152344 112.292969 113.105469 114.519531 113.066406 C 116.746094 113.027344 118.992188 113 121.25 112.980469 C 123.511719 112.960938 125.777344 112.949219 128.046875 112.949219 C 130.320312 112.949219 132.585938 112.960938 134.84375 112.980469 C 137.105469 113 139.347656 113.027344 141.574219 113.066406 C 143.804688 113.105469 146.003906 113.152344 148.175781 113.210938 C 150.351562 113.269531 152.484375 113.335938 154.582031 113.410156 C 156.683594 113.484375 158.734375 113.570312 160.734375 113.664062 C 162.738281 113.757812 164.683594 113.859375 166.574219 113.96875 C 168.460938 114.078125 170.28125 114.195312 172.039062 114.320312 C 173.792969 114.445312 175.472656 114.578125 177.082031 114.71875 C 178.6875 114.855469 180.210938 115.003906 181.648438 115.15625 C 183.089844 115.308594 184.441406 115.46875 185.703125 115.632812 C 186.964844 115.796875 188.132812 115.964844 189.203125 116.140625 C 190.273438 116.3125 191.242188 116.492188 192.113281 116.675781 C 192.980469 116.855469 193.746094 117.042969 194.40625 117.230469 C 195.0625 117.421875 195.613281 117.613281 196.058594 117.804688 C 196.5 118 196.832031 118.195312 197.054688 118.390625 C 197.277344 118.585938 197.390625 118.785156 197.390625 118.980469 Z M 197.390625 118.980469 "/>
<path style=" stroke:none;fill-rule:nonzero;fill:rgb(82.749939%,12.548828%,15.289307%);fill-opacity:1;" d="M 99.472656 68.300781 L 90.878906 76.320312 L 90.242188 80.445312 L 102.03125 80.445312 Z M 99.472656 68.300781 "/>
<path style=" stroke:none;fill-rule:nonzero;fill:rgb(13.729858%,12.159729%,12.548828%);fill-opacity:1;" d="M 102.03125 80.96875 L 90.242188 80.96875 C 90.082031 80.964844 89.949219 80.90625 89.847656 80.785156 C 89.746094 80.660156 89.707031 80.523438 89.730469 80.367188 L 90.371094 76.238281 C 90.390625 76.121094 90.441406 76.019531 90.53125 75.9375 L 99.113281 67.921875 C 99.261719 67.78125 99.429688 67.742188 99.621094 67.804688 C 99.816406 67.863281 99.933594 67.996094 99.976562 68.191406 L 102.542969 80.332031 C 102.578125 80.492188 102.542969 80.640625 102.4375 80.769531 C 102.332031 80.898438 102.199219 80.964844 102.03125 80.96875 Z M 90.851562 79.921875 L 101.386719 79.921875 L 99.152344 69.316406 L 91.367188 76.578125 Z M 90.851562 79.921875 "/>
<path style=" stroke:none;fill-rule:nonzero;fill:rgb(100%,100%,100%);fill-opacity:1;" d="M 112.019531 70.335938 L 184.324219 70.335938 L 184.324219 118.96875 L 112.019531 118.96875 Z M 112.019531 70.335938 "/>
<path style=" stroke:none;fill-rule:nonzero;fill:rgb(83.918762%,83.918762%,83.918762%);fill-opacity:1;" d="M 184.324219 70.335938 L 184.324219 85.042969 L 122.648438 85.042969 L 120.390625 70.335938 Z M 184.324219 70.335938 "/>
<path style=" stroke:none;fill-rule:nonzero;fill:rgb(13.729858%,12.159729%,12.548828%);fill-opacity:1;" d="M 184.324219 119.492188 L 112.019531 119.492188 C 111.875 119.492188 111.75 119.441406 111.648438 119.339844 C 111.546875 119.234375 111.496094 119.113281 111.496094 118.96875 L 111.496094 70.335938 C 111.496094 70.191406 111.546875 70.070312 111.648438 69.964844 C 111.75 69.863281 111.875 69.8125 112.019531 69.8125 L 184.324219 69.8125 C 184.46875 69.8125 184.589844 69.863281 184.695312 69.964844 C 184.796875 70.066406 184.847656 70.191406 184.847656 70.335938 L 184.847656 118.96875 C 184.847656 119.113281 184.796875 119.234375 184.695312 119.339844 C 184.589844 119.441406 184.46875 119.492188 184.324219 119.492188 Z M 112.539062 118.445312 L 183.796875 118.445312 L 183.796875 70.859375 L 112.542969 70.859375 Z M 112.539062 118.445312 "/>
<path style=" stroke:none;fill-rule:nonzero;fill:rgb(100%,100%,100%);fill-opacity:1;" d="M 122.648438 76 L 122.648438 118.96875 L 92.390625 118.96875 L 92.390625 74.035156 L 106.09375 47.589844 L 107.054688 48.023438 Z M 122.648438 76 "/>
<path style=" stroke:none;fill-rule:nonzero;fill:rgb(83.918762%,83.918762%,83.918762%);fill-opacity:1;" d="M 122.648438 76 L 122.648438 85.042969 L 105.867188 54.820312 L 92.390625 81.875 L 92.390625 74.035156 L 106.09375 47.589844 L 107.054688 48.023438 Z M 122.648438 76 "/>
<path style=" stroke:none;fill-rule:nonzero;fill:rgb(13.729858%,12.159729%,12.548828%);fill-opacity:1;" d="M 122.648438 119.492188 L 92.390625 119.492188 C 92.246094 119.492188 92.121094 119.441406 92.019531 119.339844 C 91.917969 119.234375 91.867188 119.113281 91.867188 118.96875 L 91.867188 74.03125 C 91.867188 73.949219 91.886719 73.867188 91.925781 73.792969 L 105.632812 47.347656 C 105.695312 47.222656 105.792969 47.140625 105.921875 47.09375 C 106.054688 47.046875 106.183594 47.054688 106.308594 47.109375 L 107.269531 47.546875 C 107.371094 47.59375 107.453125 47.667969 107.507812 47.769531 L 123.105469 75.746094 C 123.148438 75.828125 123.167969 75.910156 123.171875 76 L 123.171875 118.96875 C 123.171875 119.113281 123.121094 119.234375 123.015625 119.339844 C 122.914062 119.441406 122.792969 119.492188 122.648438 119.492188 Z M 92.910156 118.445312 L 122.125 118.445312 L 122.125 76.136719 L 106.683594 48.429688 L 106.332031 48.269531 L 92.910156 74.160156 Z M 92.910156 118.445312 "/>
<path style=" stroke:none;fill-rule:nonzero;fill:rgb(82.749939%,12.548828%,15.289307%);fill-opacity:1;" d="M 171.832031 48.894531 L 105.867188 44.710938 L 89.195312 78.214844 L 90.242188 80.445312 L 105.867188 48.894531 L 123.34375 80.445312 L 189.308594 80.445312 L 190.421875 78.214844 Z M 171.832031 48.894531 "/>
<path style=" stroke:none;fill-rule:nonzero;fill:rgb(13.729858%,12.159729%,12.548828%);fill-opacity:1;" d="M 90.242188 80.96875 C 90.023438 80.964844 89.867188 80.867188 89.773438 80.667969 L 88.726562 78.4375 C 88.652344 78.285156 88.652344 78.136719 88.726562 77.984375 L 105.402344 44.476562 C 105.507812 44.273438 105.675781 44.175781 105.902344 44.1875 L 171.867188 48.371094 C 172.042969 48.382812 172.179688 48.464844 172.273438 48.613281 L 190.863281 77.9375 C 190.96875 78.101562 190.976562 78.269531 190.890625 78.445312 L 189.773438 80.675781 C 189.679688 80.867188 189.523438 80.960938 189.308594 80.964844 L 123.34375 80.964844 C 123.136719 80.964844 122.984375 80.875 122.886719 80.691406 L 105.902344 50.019531 L 90.710938 80.671875 C 90.613281 80.867188 90.457031 80.96875 90.242188 80.96875 Z M 123.652344 79.921875 L 188.988281 79.921875 L 189.824219 78.246094 L 171.535156 49.398438 L 106.183594 45.253906 L 89.777344 78.222656 L 90.257812 79.242188 L 105.402344 48.664062 C 105.496094 48.472656 105.648438 48.375 105.859375 48.371094 C 106.066406 48.375 106.222656 48.464844 106.332031 48.640625 Z M 123.652344 79.921875 "/>
<path style=" stroke:none;fill-rule:nonzero;fill:rgb(82.749939%,12.548828%,15.289307%);fill-opacity:1;" d="M 190.421875 78.214844 L 124.457031 78.214844 L 105.867188 44.710938 L 171.832031 44.710938 Z M 190.421875 78.214844 "/>
<path style=" stroke:none;fill-rule:nonzero;fill:rgb(13.729858%,12.159729%,12.548828%);fill-opacity:1;" d="M 190.421875 78.738281 L 124.457031 78.738281 C 124.253906 78.738281 124.101562 78.648438 124 78.46875 L 105.414062 44.964844 C 105.367188 44.882812 105.347656 44.796875 105.347656 44.703125 C 105.347656 44.613281 105.371094 44.527344 105.417969 44.445312 C 105.464844 44.367188 105.53125 44.304688 105.609375 44.257812 C 105.691406 44.210938 105.777344 44.1875 105.867188 44.1875 L 171.832031 44.1875 C 172.039062 44.1875 172.191406 44.277344 172.289062 44.457031 L 190.878906 77.964844 C 190.925781 78.042969 190.945312 78.128906 190.945312 78.222656 C 190.945312 78.316406 190.921875 78.402344 190.875 78.480469 C 190.828125 78.5625 190.761719 78.625 190.683594 78.671875 C 190.601562 78.714844 190.515625 78.738281 190.421875 78.738281 Z M 124.765625 77.691406 L 189.53125 77.691406 L 171.527344 45.234375 L 106.757812 45.234375 Z M 124.765625 77.691406 "/>
<path style=" stroke:none;fill-rule:nonzero;fill:rgb(0%,0%,0%);fill-opacity:1;" d="M 99.359375 119.273438 L 99.359375 87.355469 C 99.359375 83.535156 102.632812 80.445312 106.675781 80.445312 C 110.71875 80.445312 113.996094 83.535156 113.996094 87.355469 L 113.996094 119.273438 Z M 99.359375 119.273438 "/>
<path style=" stroke:none;fill-rule:nonzero;fill:rgb(0%,0%,0%);fill-opacity:1;" d="M 106.722656 68.847656 C 106.9375 68.988281 107.140625 69.152344 107.324219 69.335938 C 107.507812 69.515625 107.675781 69.714844 107.820312 69.933594 C 107.964844 70.148438 108.085938 70.378906 108.1875 70.621094 C 108.285156 70.863281 108.359375 71.113281 108.410156 71.371094 C 108.460938 71.628906 108.488281 71.890625 108.484375 72.15625 C 108.484375 72.421875 108.460938 72.683594 108.40625 72.945312 C 108.355469 73.207031 108.28125 73.460938 108.179688 73.710938 C 108.078125 73.957031 107.957031 74.191406 107.808594 74.417969 C 107.664062 74.640625 107.496094 74.847656 107.3125 75.039062 C 107.128906 75.230469 106.925781 75.40625 106.707031 75.558594 C 106.488281 75.710938 106.257812 75.839844 106.019531 75.949219 C 105.777344 76.054688 105.527344 76.136719 105.269531 76.195312 C 105.011719 76.253906 104.753906 76.289062 104.492188 76.292969 C 104.230469 76.300781 103.972656 76.28125 103.714844 76.238281 C 103.457031 76.191406 103.210938 76.121094 102.96875 76.027344 C 102.726562 75.929688 102.496094 75.8125 102.28125 75.671875 C 102.0625 75.53125 101.859375 75.367188 101.675781 75.183594 C 101.492188 75.003906 101.328125 74.804688 101.183594 74.585938 C 101.039062 74.371094 100.914062 74.140625 100.816406 73.898438 C 100.714844 73.65625 100.640625 73.40625 100.589844 73.148438 C 100.539062 72.886719 100.515625 72.625 100.515625 72.363281 C 100.515625 72.097656 100.542969 71.832031 100.59375 71.574219 C 100.644531 71.3125 100.722656 71.058594 100.820312 70.808594 C 100.921875 70.5625 101.046875 70.328125 101.191406 70.101562 C 101.335938 69.878906 101.503906 69.671875 101.6875 69.480469 C 101.875 69.285156 102.074219 69.113281 102.292969 68.960938 C 102.511719 68.808594 102.742188 68.679688 102.984375 68.570312 C 103.226562 68.464844 103.476562 68.378906 103.730469 68.324219 C 103.988281 68.265625 104.246094 68.230469 104.507812 68.226562 C 104.769531 68.21875 105.03125 68.238281 105.285156 68.28125 C 105.542969 68.328125 105.792969 68.398438 106.035156 68.492188 C 106.273438 68.589844 106.503906 68.707031 106.722656 68.847656 Z M 106.722656 68.847656 "/>
<path style=" stroke:none;fill-rule:nonzero;fill:rgb(0%,0%,0%);fill-opacity:1;" d="M 105.175781 64.121094 C 105.304688 64.207031 105.410156 64.324219 105.488281 64.46875 C 105.566406 64.617188 105.609375 64.78125 105.625 64.96875 C 105.636719 65.152344 105.613281 65.34375 105.558594 65.539062 C 105.503906 65.734375 105.417969 65.917969 105.304688 66.09375 C 105.1875 66.269531 105.054688 66.421875 104.898438 66.554688 C 104.742188 66.683594 104.578125 66.777344 104.402344 66.84375 C 104.226562 66.90625 104.058594 66.933594 103.894531 66.921875 C 103.726562 66.910156 103.578125 66.859375 103.449219 66.773438 C 103.316406 66.6875 103.210938 66.570312 103.132812 66.425781 C 103.054688 66.277344 103.011719 66.113281 103 65.929688 C 102.988281 65.742188 103.007812 65.554688 103.0625 65.359375 C 103.117188 65.164062 103.203125 64.976562 103.320312 64.800781 C 103.433594 64.625 103.566406 64.472656 103.722656 64.34375 C 103.878906 64.214844 104.046875 64.117188 104.21875 64.054688 C 104.394531 63.988281 104.5625 63.964844 104.730469 63.976562 C 104.894531 63.988281 105.042969 64.035156 105.175781 64.121094 Z M 105.175781 64.121094 "/>
<path style=" stroke:none;fill-rule:nonzero;fill:rgb(0%,0%,0%);fill-opacity:1;" d="M 109.296875 64.890625 C 109.449219 64.992188 109.574219 65.125 109.664062 65.296875 C 109.753906 65.464844 109.804688 65.65625 109.820312 65.871094 C 109.832031 66.085938 109.808594 66.308594 109.742188 66.535156 C 109.679688 66.757812 109.582031 66.976562 109.449219 67.179688 C 109.316406 67.382812 109.160156 67.558594 108.976562 67.710938 C 108.796875 67.859375 108.605469 67.972656 108.402344 68.046875 C 108.203125 68.117188 108.003906 68.148438 107.8125 68.136719 C 107.621094 68.121094 107.449219 68.066406 107.296875 67.964844 C 107.144531 67.867188 107.023438 67.730469 106.933594 67.5625 C 106.84375 67.390625 106.792969 67.199219 106.777344 66.984375 C 106.761719 66.769531 106.789062 66.550781 106.851562 66.324219 C 106.917969 66.097656 107.015625 65.882812 107.148438 65.679688 C 107.28125 65.476562 107.4375 65.296875 107.617188 65.148438 C 107.800781 64.996094 107.992188 64.886719 108.191406 64.8125 C 108.394531 64.738281 108.589844 64.707031 108.78125 64.722656 C 108.972656 64.734375 109.144531 64.792969 109.296875 64.890625 Z M 109.296875 64.890625 "/>
<path style=" stroke:none;fill-rule:nonzero;fill:rgb(0%,0%,0%);fill-opacity:1;" d="M 111.410156 69.265625 C 111.53125 69.347656 111.628906 69.453125 111.699219 69.585938 C 111.769531 69.722656 111.8125 69.875 111.824219 70.046875 C 111.835938 70.214844 111.8125 70.390625 111.761719 70.570312 C 111.710938 70.75 111.632812 70.921875 111.527344 71.082031 C 111.421875 71.246094 111.300781 71.386719 111.15625 71.503906 C 111.011719 71.625 110.859375 71.714844 110.699219 71.773438 C 110.539062 71.832031 110.382812 71.855469 110.230469 71.84375 C 110.078125 71.832031 109.941406 71.785156 109.820312 71.707031 C 109.699219 71.628906 109.601562 71.523438 109.53125 71.386719 C 109.457031 71.253906 109.417969 71.097656 109.40625 70.929688 C 109.394531 70.757812 109.414062 70.582031 109.464844 70.402344 C 109.515625 70.222656 109.59375 70.054688 109.699219 69.890625 C 109.804688 69.730469 109.929688 69.589844 110.074219 69.46875 C 110.21875 69.351562 110.371094 69.261719 110.53125 69.203125 C 110.691406 69.144531 110.847656 69.121094 111 69.132812 C 111.152344 69.144531 111.289062 69.1875 111.410156 69.265625 Z M 111.410156 69.265625 "/>
<path style=" stroke:none;fill-rule:nonzero;fill:rgb(100%,100%,100%);fill-opacity:1;" d="M 113.453125 104.269531 L 113.453125 119.089844 L 93.242188 119.089844 L 90.117188 115.136719 L 88.578125 113.195312 L 85.609375 115.128906 L 82.976562 116.835938 L 69.96875 115.609375 L 71.921875 110.328125 L 72.515625 108.722656 L 72.65625 108.335938 L 73.199219 108.15625 L 95.429688 100.6875 C 95.429688 100.6875 96.277344 100.625 97.605469 100.617188 C 99.933594 100.59375 103.757812 100.710938 107.261719 101.5 C 109.679688 102.042969 111.9375 102.914062 113.453125 104.269531 Z M 113.453125 104.269531 "/>
<path style=" stroke:none;fill-rule:nonzero;fill:rgb(83.918762%,83.918762%,83.918762%);fill-opacity:1;" d="M 113.453125 104.269531 L 113.453125 119.089844 L 109.886719 119.089844 L 109.886719 113.351562 C 109.886719 108.167969 108.6875 104.289062 107.265625 101.507812 C 109.679688 102.042969 111.9375 102.914062 113.453125 104.269531 Z M 113.453125 104.269531 "/>
<path style=" stroke:none;fill-rule:nonzero;fill:rgb(83.918762%,83.918762%,83.918762%);fill-opacity:1;" d="M 99.800781 114.910156 C 99.800781 114.910156 95.296875 115.09375 90.117188 115.136719 C 88.640625 115.148438 87.109375 115.148438 85.609375 115.128906 C 80.109375 115.058594 75.058594 114.726562 74.859375 113.769531 C 74.558594 112.300781 72.921875 111 71.929688 110.324219 C 71.484375 110.023438 71.167969 109.847656 71.167969 109.847656 L 72.523438 108.722656 L 73.203125 108.15625 L 95.433594 100.683594 C 95.433594 100.683594 96.28125 100.625 97.609375 100.613281 C 97.304688 101.582031 97.15625 102.578125 97.160156 103.59375 C 97.1875 106.265625 95.507812 108.585938 95.449219 110.5625 C 95.386719 112.542969 99.800781 114.910156 99.800781 114.910156 Z M 99.800781 114.910156 "/>
<path style=" stroke:none;fill-rule:nonzero;fill:rgb(2.749634%,3.138733%,5.488586%);fill-opacity:1;" d="M 113.453125 119.429688 L 93.242188 119.429688 C 93.128906 119.433594 93.039062 119.386719 92.96875 119.300781 L 88.496094 113.65625 L 83.160156 117.128906 C 83.09375 117.175781 83.019531 117.195312 82.9375 117.183594 L 69.925781 115.957031 C 69.8125 115.945312 69.726562 115.894531 69.664062 115.796875 C 69.605469 115.699219 69.59375 115.59375 69.632812 115.488281 L 72.328125 108.214844 C 72.367188 108.109375 72.4375 108.039062 72.542969 108.003906 L 95.308594 100.355469 C 95.339844 100.347656 95.367188 100.339844 95.398438 100.339844 C 95.9375 100.304688 108.660156 99.492188 113.675781 104.003906 C 113.757812 104.070312 113.796875 104.160156 113.792969 104.261719 L 113.792969 119.082031 C 113.796875 119.179688 113.765625 119.261719 113.695312 119.328125 C 113.628906 119.398438 113.546875 119.429688 113.453125 119.429688 Z M 93.410156 118.734375 L 113.101562 118.734375 L 113.101562 104.421875 C 108.359375 100.347656 96.320312 100.984375 95.496094 101.023438 L 72.925781 108.605469 L 70.453125 115.308594 L 82.890625 116.484375 L 88.382812 112.902344 C 88.457031 112.855469 88.539062 112.835938 88.628906 112.851562 C 88.71875 112.863281 88.789062 112.90625 88.847656 112.976562 Z M 93.410156 118.734375 "/>
<path style=" stroke:none;fill-rule:nonzero;fill:rgb(83.918762%,17.248535%,16.468811%);fill-opacity:1;" d="M 74.855469 108.785156 C 74.855469 108.785156 78.324219 115.371094 87.832031 111.984375 C 96.207031 109 94.957031 101.167969 94.957031 101.167969 Z M 74.855469 108.785156 "/>
<path style=" stroke:none;fill-rule:nonzero;fill:rgb(2.749634%,3.138733%,5.488586%);fill-opacity:1;" d="M 82.765625 113.292969 C 76.921875 113.292969 74.574219 109.003906 74.546875 108.949219 C 74.5 108.855469 74.492188 108.761719 74.53125 108.664062 C 74.566406 108.566406 74.632812 108.496094 74.730469 108.460938 L 94.828125 100.839844 C 94.933594 100.800781 95.03125 100.804688 95.128906 100.863281 C 95.226562 100.917969 95.28125 101 95.296875 101.113281 C 95.308594 101.191406 96.5 109.261719 87.949219 112.316406 C 85.976562 113.011719 84.257812 113.292969 82.765625 113.292969 Z M 75.371094 108.964844 C 76.21875 110.246094 79.765625 114.488281 87.714844 111.652344 C 94.605469 109.199219 94.75 103.300781 94.648438 101.65625 Z M 75.371094 108.964844 "/>
<path style=" stroke:none;fill-rule:nonzero;fill:rgb(100%,100%,100%);fill-opacity:1;" d="M 96.65625 98.429688 C 95.902344 100.21875 95 102.503906 93.769531 104.59375 C 92.347656 107.027344 90.480469 109.226562 87.894531 110.144531 C 85.535156 110.996094 82.3125 110.972656 79.332031 110.484375 C 76.644531 110.054688 74.15625 109.242188 72.664062 108.335938 C 69.519531 106.441406 63.636719 102.929688 66.246094 94.34375 C 66.246094 94.34375 59.546875 84.398438 62.066406 81.949219 C 64.585938 79.5 71.214844 84.785156 71.214844 84.785156 C 71.214844 84.785156 75.269531 82.660156 76.472656 82.597656 C 76.472656 82.597656 78.109375 80.964844 81.09375 80.328125 C 81.09375 80.328125 82.011719 73.398438 85.324219 72.832031 C 88.636719 72.261719 91.566406 84.605469 91.566406 84.605469 C 91.566406 84.605469 99.570312 91.527344 96.65625 98.429688 Z M 96.65625 98.429688 "/>
<path style=" stroke:none;fill-rule:nonzero;fill:rgb(83.918762%,83.918762%,83.918762%);fill-opacity:1;" d="M 77.179688 92.863281 C 76.976562 93.214844 76.671875 93.394531 76.265625 93.402344 C 75.398438 93.460938 74.570312 93.671875 73.785156 94.039062 C 72.851562 94.453125 71.644531 92.171875 72.71875 91.21875 C 73.679688 90.363281 78.003906 91.359375 77.179688 92.863281 Z M 77.179688 92.863281 "/>
<path style=" stroke:none;fill-rule:nonzero;fill:rgb(83.918762%,83.918762%,83.918762%);fill-opacity:1;" d="M 83.21875 90.320312 C 83.625 90.351562 83.945312 90.199219 84.183594 89.867188 C 84.71875 89.183594 85.359375 88.621094 86.105469 88.179688 C 86.976562 87.640625 86.375 84.652344 84.167969 85.304688 C 82.933594 85.667969 81.511719 90.152344 83.21875 90.320312 Z M 83.21875 90.320312 "/>
<path style=" stroke:none;fill-rule:nonzero;fill:rgb(2.749634%,3.138733%,5.488586%);fill-opacity:1;" d="M 85.195312 100.28125 C 84.921875 100.671875 84.566406 100.957031 84.125 101.144531 C 83.6875 101.332031 83.234375 101.386719 82.761719 101.316406 C 81.492188 101.117188 79.851562 100.660156 79.664062 99.617188 C 79.351562 97.878906 85.84375 95.679688 86.21875 96.902344 C 86.503906 97.851562 86.132812 98.945312 85.195312 100.28125 Z M 85.195312 100.28125 "/>
<path style=" stroke:none;fill-rule:nonzero;fill:rgb(83.918762%,83.918762%,83.918762%);fill-opacity:1;" d="M 68.832031 90.464844 C 68.832031 90.464844 65.921875 90.855469 65.207031 89.632812 C 64.492188 88.410156 61.933594 84.878906 63.152344 83.886719 C 64.371094 82.894531 69.292969 85.023438 69.847656 85.796875 C 70.402344 86.570312 68.832031 90.464844 68.832031 90.464844 Z M 68.832031 90.464844 "/>
<path style=" stroke:none;fill-rule:nonzero;fill:rgb(83.918762%,83.918762%,83.918762%);fill-opacity:1;" d="M 83.933594 80.730469 C 83.933594 80.730469 87.226562 83.515625 89.328125 83.875 C 89.328125 83.875 89.433594 79.765625 87.476562 75.835938 C 85.515625 71.910156 83.070312 74.21875 83.933594 80.730469 Z M 83.933594 80.730469 "/>
<path style=" stroke:none;fill-rule:nonzero;fill:rgb(83.918762%,83.918762%,83.918762%);fill-opacity:1;" d="M 78.421875 87.265625 C 78.421875 87.265625 79.925781 91.820312 79.847656 92.402344 C 79.773438 92.984375 79.234375 93.683594 79.234375 93.683594 C 79.234375 93.683594 80.628906 92.28125 81.75 92.566406 C 81.75 92.566406 80.917969 92.4375 80.636719 91.84375 C 80.355469 91.25 78.421875 87.265625 78.421875 87.265625 Z M 78.421875 87.265625 "/>
<path style=" stroke:none;fill-rule:nonzero;fill:rgb(83.918762%,83.918762%,83.918762%);fill-opacity:1;" d="M 86.667969 106.976562 C 84.601562 107.679688 81.632812 106.679688 80.625 104.074219 C 81.15625 104.921875 82.035156 103.925781 83.234375 103.734375 L 84.835938 104.0625 C 84.835938 104.0625 87.695312 103.425781 88.285156 102.175781 C 88.878906 100.921875 89.394531 100.65625 89.394531 100.65625 C 89.792969 102.699219 89.308594 106.082031 86.667969 106.976562 Z M 86.667969 106.976562 "/>
<path style=" stroke:none;fill-rule:nonzero;fill:rgb(100%,100%,100%);fill-opacity:1;" d="M 85.605469 96.925781 C 85.664062 97.085938 85.601562 97.257812 85.417969 97.453125 C 85.234375 97.644531 84.984375 97.796875 84.667969 97.910156 C 84.351562 98.023438 84.058594 98.0625 83.796875 98.03125 C 83.53125 98 83.371094 97.902344 83.316406 97.746094 C 83.257812 97.585938 83.324219 97.410156 83.507812 97.21875 C 83.691406 97.027344 83.941406 96.875 84.257812 96.761719 C 84.574219 96.648438 84.863281 96.609375 85.125 96.640625 C 85.390625 96.671875 85.550781 96.765625 85.605469 96.925781 Z M 85.605469 96.925781 "/>
<path style=" stroke:none;fill-rule:nonzero;fill:rgb(20.779419%,20.779419%,20.779419%);fill-opacity:1;" d="M 81.292969 104.425781 C 81.292969 104.425781 84.234375 103.40625 84.476562 101.683594 C 84.476562 101.683594 86.914062 102.664062 88.875 101.59375 C 88.875 101.59375 89.09375 105.863281 86.539062 106.777344 C 84.019531 107.679688 81.292969 104.425781 81.292969 104.425781 Z M 81.292969 104.425781 "/>
<path style=" stroke:none;fill-rule:nonzero;fill:rgb(64.709473%,23.919678%,23.919678%);fill-opacity:1;" d="M 87.527344 102.195312 C 87.691406 102.722656 87.8125 103.253906 87.898438 103.796875 C 88.113281 105.164062 88.117188 106.984375 86.785156 107.460938 C 85.339844 107.96875 84.128906 106.328125 83.464844 105.128906 C 83.257812 104.757812 83.074219 104.375 82.914062 103.984375 C 82.914062 103.984375 84.472656 102.90625 84.472656 101.6875 C 84.472656 101.6875 85.261719 102.636719 87.527344 102.195312 Z M 87.527344 102.195312 "/>
<path style=" stroke:none;fill-rule:nonzero;fill:rgb(54.119873%,16.079712%,16.468811%);fill-opacity:1;" d="M 87.527344 102.195312 C 87.691406 102.722656 87.8125 103.253906 87.898438 103.796875 C 87.402344 103.914062 86.851562 104 86.628906 103.878906 C 86.167969 103.625 85.441406 103.515625 84.890625 104.109375 C 84.535156 104.5 83.871094 104.898438 83.464844 105.128906 C 83.257812 104.757812 83.074219 104.378906 82.914062 103.984375 C 82.914062 103.984375 84.472656 102.90625 84.472656 101.6875 C 84.472656 101.6875 85.261719 102.636719 87.527344 102.195312 Z M 87.527344 102.195312 "/>
<path style=" stroke:none;fill-rule:nonzero;fill:rgb(2.749634%,3.138733%,5.488586%);fill-opacity:1;" d="M 81.25 104.574219 C 79.398438 104.574219 78.503906 103.0625 78.496094 103.046875 C 78.4375 102.964844 78.421875 102.871094 78.445312 102.769531 C 78.464844 102.671875 78.523438 102.597656 78.613281 102.546875 C 78.699219 102.496094 78.792969 102.488281 78.890625 102.519531 C 78.988281 102.550781 79.058594 102.613281 79.101562 102.707031 C 79.140625 102.777344 80.160156 104.472656 82.386719 103.671875 C 83.054688 103.433594 83.507812 103.0625 83.746094 102.558594 C 84.136719 101.710938 83.777344 100.761719 83.773438 100.75 C 83.742188 100.660156 83.742188 100.574219 83.78125 100.484375 C 83.820312 100.398438 83.886719 100.335938 83.976562 100.300781 C 84.066406 100.265625 84.152344 100.265625 84.242188 100.304688 C 84.332031 100.34375 84.390625 100.40625 84.425781 100.5 C 84.445312 100.550781 84.890625 101.730469 84.382812 102.84375 C 84.070312 103.523438 83.480469 104.03125 82.628906 104.328125 C 82.183594 104.492188 81.726562 104.574219 81.25 104.574219 Z M 81.25 104.574219 "/>
<path style=" stroke:none;fill-rule:nonzero;fill:rgb(2.749634%,3.138733%,5.488586%);fill-opacity:1;" d="M 86.476562 102.742188 C 86.078125 102.746094 85.703125 102.660156 85.351562 102.484375 C 84.25 101.945312 83.847656 100.75 83.824219 100.699219 C 83.792969 100.609375 83.800781 100.519531 83.84375 100.433594 C 83.886719 100.347656 83.953125 100.289062 84.046875 100.257812 C 84.136719 100.230469 84.226562 100.234375 84.3125 100.28125 C 84.398438 100.324219 84.453125 100.390625 84.484375 100.480469 C 84.484375 100.492188 84.824219 101.457031 85.652344 101.863281 C 86.148438 102.101562 86.738281 102.105469 87.402344 101.863281 C 89.632812 101.0625 89.347656 99.109375 89.335938 99.027344 C 89.320312 98.933594 89.339844 98.84375 89.394531 98.765625 C 89.449219 98.6875 89.527344 98.640625 89.621094 98.625 C 89.714844 98.609375 89.804688 98.628906 89.882812 98.6875 C 89.960938 98.742188 90.007812 98.816406 90.023438 98.914062 C 90.023438 98.941406 90.425781 101.519531 87.636719 102.515625 C 87.261719 102.660156 86.875 102.734375 86.476562 102.742188 Z M 86.476562 102.742188 "/>
<path style=" stroke:none;fill-rule:nonzero;fill:rgb(64.709473%,23.919678%,23.919678%);fill-opacity:1;" d="M 84.449219 101.394531 L 86.070312 105.773438 "/>
<path style=" stroke:none;fill-rule:nonzero;fill:rgb(2.749634%,3.138733%,5.488586%);fill-opacity:1;" d="M 86.070312 105.949219 C 85.984375 105.953125 85.929688 105.914062 85.902344 105.832031 L 84.277344 101.457031 C 84.238281 101.347656 84.273438 101.273438 84.382812 101.234375 C 84.492188 101.191406 84.566406 101.226562 84.605469 101.335938 L 86.226562 105.710938 C 86.273438 105.820312 86.238281 105.894531 86.125 105.933594 C 86.109375 105.941406 86.089844 105.945312 86.070312 105.949219 Z M 86.070312 105.949219 "/>
<path style=" stroke:none;fill-rule:nonzero;fill:rgb(82.749939%,12.548828%,15.289307%);fill-opacity:1;" d="M 85.929688 117.390625 L 82.671875 112.511719 L 84.734375 110.921875 L 91.507812 111.765625 L 93.121094 113.839844 L 88.816406 117.75 Z M 85.929688 117.390625 "/>
<path style=" stroke:none;fill-rule:nonzero;fill:rgb(13.729858%,12.159729%,12.548828%);fill-opacity:1;" d="M 84.785156 111.105469 L 91.417969 111.929688 L 92.886719 113.820312 L 88.761719 117.566406 L 86.03125 117.226562 L 82.914062 112.550781 L 84.78125 111.105469 M 84.6875 110.742188 L 84.574219 110.828125 L 82.699219 112.273438 L 82.441406 112.472656 L 82.621094 112.742188 L 85.742188 117.421875 L 85.832031 117.554688 L 85.988281 117.574219 L 88.714844 117.914062 L 88.875 117.929688 L 88.992188 117.824219 L 93.121094 114.074219 L 93.363281 113.859375 L 93.164062 113.601562 L 91.695312 111.714844 L 91.605469 111.597656 L 91.460938 111.582031 L 84.832031 110.753906 L 84.6875 110.738281 Z M 84.6875 110.742188 "/>
<path style=" stroke:none;fill-rule:nonzero;fill:rgb(94.119263%,91.758728%,17.248535%);fill-opacity:1;" d="M 85.164062 111.785156 L 91.035156 112.515625 L 91.96875 113.769531 L 88.59375 116.835938 L 86.390625 116.601562 L 83.855469 112.789062 Z M 85.164062 111.785156 "/>
<path style=" stroke:none;fill-rule:nonzero;fill:rgb(1.959229%,2.349854%,2.349854%);fill-opacity:1;" d="M 88.625 116.925781 L 86.339844 116.683594 L 83.738281 112.761719 L 85.136719 111.6875 L 91.078125 112.429688 L 92.082031 113.777344 L 92.023438 113.832031 Z M 86.441406 116.519531 L 88.5625 116.746094 L 91.851562 113.761719 L 90.988281 112.597656 L 85.1875 111.875 L 83.972656 112.808594 Z M 86.441406 116.519531 "/>
<path style=" stroke:none;fill-rule:nonzero;fill:rgb(82.749939%,12.548828%,15.289307%);fill-opacity:1;" d="M 85.664062 114.835938 L 85.6875 114.625 L 86.316406 114.703125 L 86.285156 114.957031 C 86.257812 115.054688 86.273438 115.148438 86.335938 115.230469 C 86.398438 115.316406 86.480469 115.355469 86.585938 115.355469 C 86.800781 115.382812 86.945312 115.304688 86.980469 115.03125 C 87.015625 114.726562 86.90625 114.523438 86.511719 114.132812 C 86.003906 113.636719 85.863281 113.316406 85.914062 112.898438 C 85.988281 112.320312 86.375 112.027344 87.023438 112.109375 C 87.667969 112.1875 87.949219 112.566406 87.871094 113.152344 L 87.851562 113.304688 L 87.21875 113.226562 L 87.242188 113.039062 C 87.277344 112.777344 87.167969 112.660156 86.957031 112.632812 C 86.742188 112.605469 86.617188 112.691406 86.578125 112.945312 C 86.542969 113.195312 86.660156 113.421875 87.054688 113.808594 C 87.566406 114.300781 87.699219 114.617188 87.644531 115.070312 C 87.566406 115.667969 87.175781 115.960938 86.519531 115.878906 C 85.867188 115.796875 85.589844 115.421875 85.664062 114.835938 Z M 85.664062 114.835938 "/>
<path style=" stroke:none;fill-rule:nonzero;fill:rgb(13.729858%,12.159729%,12.548828%);fill-opacity:1;" d="M 86.738281 115.988281 C 86.664062 115.984375 86.589844 115.980469 86.515625 115.972656 C 86.214844 115.957031 85.957031 115.832031 85.753906 115.609375 C 85.582031 115.375 85.519531 115.117188 85.574219 114.832031 L 85.613281 114.535156 L 86.414062 114.636719 L 86.375 114.976562 C 86.355469 115.054688 86.367188 115.128906 86.414062 115.199219 C 86.464844 115.246094 86.527344 115.273438 86.597656 115.277344 C 86.667969 115.292969 86.734375 115.28125 86.796875 115.246094 C 86.859375 115.1875 86.890625 115.113281 86.894531 115.027344 C 86.925781 114.753906 86.828125 114.570312 86.453125 114.203125 C 85.941406 113.695312 85.773438 113.355469 85.828125 112.894531 C 85.910156 112.261719 86.347656 111.949219 87.035156 112.03125 C 87.335938 112.050781 87.585938 112.171875 87.785156 112.394531 C 87.953125 112.628906 88.011719 112.890625 87.957031 113.171875 L 87.925781 113.410156 L 87.125 113.3125 L 87.15625 113.035156 C 87.1875 112.808594 87.09375 112.746094 86.945312 112.730469 C 86.777344 112.707031 86.6875 112.773438 86.664062 112.964844 C 86.640625 113.152344 86.703125 113.351562 87.117188 113.753906 C 87.636719 114.261719 87.796875 114.601562 87.730469 115.09375 C 87.710938 115.386719 87.582031 115.628906 87.351562 115.808594 C 87.164062 115.933594 86.960938 115.996094 86.738281 115.988281 Z M 85.765625 114.730469 L 85.75 114.851562 C 85.703125 115.089844 85.75 115.304688 85.890625 115.5 C 86.066406 115.6875 86.28125 115.785156 86.539062 115.800781 C 86.796875 115.851562 87.035156 115.804688 87.253906 115.667969 C 87.445312 115.511719 87.550781 115.3125 87.5625 115.066406 C 87.617188 114.636719 87.480469 114.34375 87 113.878906 C 86.589844 113.476562 86.464844 113.242188 86.5 112.941406 C 86.496094 112.816406 86.546875 112.714844 86.644531 112.632812 C 86.742188 112.554688 86.851562 112.527344 86.972656 112.558594 C 87.164062 112.582031 87.382812 112.6875 87.335938 113.058594 L 87.324219 113.160156 L 87.78125 113.21875 L 87.78125 113.152344 C 87.828125 112.917969 87.78125 112.703125 87.644531 112.507812 C 87.46875 112.316406 87.257812 112.21875 87.003906 112.207031 C 86.410156 112.132812 86.0625 112.375 85.992188 112.917969 C 85.945312 113.320312 86.085938 113.613281 86.566406 114.082031 C 86.976562 114.484375 87.097656 114.71875 87.054688 115.054688 C 87.050781 115.191406 86.992188 115.304688 86.886719 115.390625 C 86.785156 115.460938 86.679688 115.480469 86.5625 115.457031 C 86.433594 115.457031 86.328125 115.40625 86.25 115.300781 C 86.175781 115.199219 86.152344 115.085938 86.183594 114.960938 L 86.207031 114.792969 Z M 85.765625 114.730469 "/>
<path style=" stroke:none;fill-rule:nonzero;fill:rgb(82.749939%,12.548828%,15.289307%);fill-opacity:1;" d="M 87.648438 115.082031 L 87.675781 114.871094 L 88.304688 114.949219 L 88.273438 115.203125 C 88.242188 115.304688 88.257812 115.398438 88.324219 115.480469 C 88.386719 115.5625 88.46875 115.605469 88.574219 115.601562 C 88.785156 115.628906 88.929688 115.550781 88.964844 115.277344 C 89.003906 114.976562 88.894531 114.769531 88.496094 114.378906 C 87.988281 113.886719 87.851562 113.5625 87.902344 113.144531 C 87.972656 112.570312 88.359375 112.277344 89.007812 112.355469 C 89.65625 112.4375 89.933594 112.8125 89.855469 113.402344 L 89.839844 113.550781 L 89.210938 113.472656 L 89.234375 113.285156 C 89.265625 113.023438 89.15625 112.910156 88.945312 112.882812 C 88.730469 112.855469 88.605469 112.941406 88.566406 113.191406 C 88.53125 113.445312 88.648438 113.671875 89.042969 114.054688 C 89.554688 114.546875 89.6875 114.863281 89.632812 115.320312 C 89.558594 115.917969 89.164062 116.210938 88.511719 116.128906 C 87.855469 116.046875 87.574219 115.667969 87.648438 115.082031 Z M 87.648438 115.082031 "/>
<path style=" stroke:none;fill-rule:nonzero;fill:rgb(13.729858%,12.159729%,12.548828%);fill-opacity:1;" d="M 88.71875 116.226562 C 88.644531 116.226562 88.574219 116.222656 88.503906 116.214844 C 87.816406 116.128906 87.488281 115.722656 87.5625 115.070312 L 87.597656 114.777344 L 88.402344 114.875 L 88.359375 115.214844 C 88.339844 115.296875 88.355469 115.367188 88.398438 115.4375 C 88.515625 115.539062 88.644531 115.554688 88.78125 115.484375 C 88.84375 115.425781 88.878906 115.355469 88.878906 115.269531 C 88.910156 114.996094 88.8125 114.808594 88.4375 114.445312 C 87.929688 113.9375 87.757812 113.597656 87.816406 113.136719 C 87.894531 112.503906 88.332031 112.1875 89.019531 112.273438 C 89.320312 112.289062 89.574219 112.410156 89.773438 112.636719 C 89.941406 112.871094 90 113.128906 89.945312 113.414062 L 89.914062 113.652344 L 89.113281 113.550781 L 89.144531 113.273438 C 89.175781 113.046875 89.082031 112.988281 88.933594 112.96875 C 88.757812 112.945312 88.679688 113.015625 88.652344 113.203125 C 88.628906 113.394531 88.691406 113.589844 89.105469 113.992188 C 89.625 114.503906 89.785156 114.84375 89.71875 115.332031 C 89.648438 115.910156 89.289062 116.226562 88.71875 116.226562 Z M 87.742188 114.96875 L 87.726562 115.09375 C 87.65625 115.648438 87.925781 115.964844 88.519531 116.039062 C 89.113281 116.113281 89.472656 115.859375 89.535156 115.308594 C 89.589844 114.875 89.453125 114.585938 88.976562 114.117188 C 88.5625 113.714844 88.433594 113.480469 88.464844 113.183594 C 88.464844 113.054688 88.511719 112.953125 88.609375 112.875 C 88.707031 112.792969 88.816406 112.769531 88.9375 112.796875 C 89.132812 112.820312 89.351562 112.925781 89.304688 113.296875 L 89.289062 113.398438 L 89.75 113.457031 L 89.75 113.390625 C 89.796875 113.15625 89.75 112.941406 89.609375 112.746094 C 89.4375 112.558594 89.226562 112.457031 88.972656 112.445312 C 88.378906 112.375 88.027344 112.613281 87.960938 113.15625 C 87.910156 113.558594 88.054688 113.851562 88.53125 114.320312 C 88.945312 114.722656 89.066406 114.957031 89.023438 115.289062 C 89.015625 115.429688 88.960938 115.542969 88.855469 115.628906 C 88.753906 115.695312 88.644531 115.71875 88.527344 115.695312 C 88.410156 115.6875 88.308594 115.640625 88.230469 115.554688 C 88.152344 115.445312 88.125 115.328125 88.152344 115.199219 L 88.175781 115.027344 Z M 87.742188 114.96875 "/>
<path style=" stroke:none;fill-rule:nonzero;fill:rgb(82.749939%,12.548828%,15.289307%);fill-opacity:1;" d="M 87.820312 110.429688 L 88.621094 110.53125 L 88.4375 111.984375 L 87.640625 111.882812 Z M 87.820312 110.429688 "/>
<path style=" stroke:none;fill-rule:nonzero;fill:rgb(13.729858%,12.159729%,12.548828%);fill-opacity:1;" d="M 88.515625 112.082031 L 87.542969 111.960938 L 87.742188 110.332031 L 88.714844 110.457031 Z M 87.742188 111.804688 L 88.367188 111.882812 L 88.527344 110.605469 L 87.902344 110.527344 Z M 87.742188 111.804688 "/>
<path style=" stroke:none;fill-rule:nonzero;fill:rgb(2.749634%,3.138733%,5.488586%);fill-opacity:1;" d="M 83.46875 110.910156 C 79.28125 110.910156 74.597656 109.621094 72.34375 108.261719 L 72.3125 108.242188 C 69.109375 106.308594 63.167969 102.722656 65.726562 94.027344 C 64.707031 92.488281 59.125 83.8125 61.683594 81.328125 C 64.179688 78.910156 70 83.148438 71.113281 84.003906 C 71.976562 83.558594 74.960938 82.054688 76.191406 81.890625 C 76.578125 81.539062 78.113281 80.265625 80.652344 79.667969 C 80.851562 78.390625 81.933594 72.664062 85.132812 72.117188 C 88.589844 71.519531 91.332031 82.328125 91.75 84.042969 C 92.664062 84.859375 99.695312 91.445312 96.847656 98.191406 C 96.707031 98.53125 96.5625 98.886719 96.40625 99.257812 C 94.78125 103.207031 92.550781 108.617188 88.011719 110.242188 C 86.6875 110.710938 85.117188 110.910156 83.46875 110.910156 Z M 63.703125 81.289062 C 63.09375 81.289062 62.5625 81.445312 62.175781 81.828125 C 60.28125 83.667969 64.585938 91.074219 66.402344 93.773438 C 66.464844 93.867188 66.480469 93.964844 66.445312 94.070312 C 63.929688 102.363281 69.621094 105.796875 72.679688 107.644531 L 72.710938 107.664062 C 75.765625 109.511719 83.445312 111.132812 87.777344 109.585938 C 92.019531 108.054688 94.1875 102.820312 95.765625 98.992188 C 95.917969 98.621094 96.066406 98.257812 96.210938 97.917969 C 98.992188 91.328125 91.289062 84.5625 91.210938 84.507812 C 91.152344 84.457031 91.117188 84.394531 91.097656 84.324219 C 89.996094 79.675781 87.429688 72.4375 85.253906 72.8125 C 82.234375 73.320312 81.320312 79.941406 81.3125 80.011719 C 81.289062 80.171875 81.199219 80.273438 81.039062 80.304688 C 78.207031 80.910156 76.613281 82.464844 76.59375 82.480469 C 76.53125 82.542969 76.457031 82.578125 76.367188 82.582031 C 75.4375 82.628906 72.355469 84.152344 71.242188 84.734375 C 71.109375 84.808594 70.980469 84.796875 70.863281 84.699219 C 69.453125 83.570312 66.019531 81.289062 63.703125 81.289062 Z M 63.703125 81.289062 "/>
<path style=" stroke:none;fill-rule:nonzero;fill:rgb(2.749634%,3.138733%,5.488586%);fill-opacity:1;" d="M 86.230469 107.734375 C 84.214844 107.734375 82.816406 104.214844 82.75 104.050781 C 82.714844 103.960938 82.738281 103.894531 82.816406 103.84375 C 82.828125 103.832031 84.296875 102.796875 84.300781 101.683594 C 84.296875 101.597656 84.335938 101.542969 84.417969 101.515625 C 84.492188 101.484375 84.558594 101.503906 84.609375 101.566406 C 84.609375 101.574219 85.375 102.429688 87.496094 102.019531 C 87.59375 102 87.660156 102.039062 87.695312 102.136719 C 87.753906 102.324219 89.183594 106.78125 86.84375 107.617188 C 86.648438 107.691406 86.441406 107.730469 86.230469 107.734375 Z M 83.128906 104.046875 C 83.417969 104.726562 84.902344 107.949219 86.726562 107.296875 C 88.550781 106.644531 87.628906 103.152344 87.40625 102.394531 C 85.871094 102.660156 85.007812 102.292969 84.613281 102.027344 C 84.417969 102.988281 83.460938 103.789062 83.128906 104.046875 Z M 83.128906 104.046875 "/>
<path style=" stroke:none;fill-rule:nonzero;fill:rgb(2.749634%,3.138733%,5.488586%);fill-opacity:1;" d="M 73.460938 96.726562 C 73.191406 96.726562 72.917969 96.710938 72.648438 96.675781 C 72.550781 96.664062 72.472656 96.621094 72.414062 96.542969 C 72.355469 96.464844 72.332031 96.378906 72.347656 96.28125 C 72.363281 96.1875 72.40625 96.113281 72.484375 96.054688 C 72.558594 95.996094 72.644531 95.972656 72.742188 95.984375 C 72.773438 95.984375 76.347656 96.4375 76.945312 94.007812 C 76.96875 93.914062 77.023438 93.839844 77.105469 93.789062 C 77.1875 93.742188 77.277344 93.726562 77.371094 93.75 C 77.464844 93.773438 77.535156 93.828125 77.585938 93.910156 C 77.636719 93.992188 77.648438 94.082031 77.625 94.175781 C 77.121094 96.207031 74.996094 96.726562 73.460938 96.726562 Z M 73.460938 96.726562 "/>
<path style=" stroke:none;fill-rule:nonzero;fill:rgb(2.749634%,3.138733%,5.488586%);fill-opacity:1;" d="M 84.484375 92.109375 C 84.164062 92.105469 83.855469 92.054688 83.554688 91.957031 C 83.460938 91.925781 83.394531 91.871094 83.351562 91.785156 C 83.304688 91.699219 83.300781 91.609375 83.328125 91.519531 C 83.359375 91.425781 83.414062 91.359375 83.5 91.316406 C 83.585938 91.269531 83.675781 91.261719 83.765625 91.292969 C 86.15625 92.0625 87.640625 88.78125 87.65625 88.746094 C 87.695312 88.660156 87.761719 88.597656 87.851562 88.5625 C 87.9375 88.527344 88.027344 88.53125 88.117188 88.570312 C 88.203125 88.609375 88.265625 88.671875 88.300781 88.761719 C 88.332031 88.851562 88.332031 88.941406 88.292969 89.03125 C 87.777344 90.195312 86.386719 92.109375 84.484375 92.109375 Z M 84.484375 92.109375 "/>
<path style=" stroke:none;fill-rule:nonzero;fill:rgb(100%,100%,100%);fill-opacity:1;" d="M 85.992188 117.558594 C 85.972656 117.761719 85.914062 117.953125 85.820312 118.136719 C 85.726562 118.320312 85.605469 118.480469 85.453125 118.617188 C 85.300781 118.757812 85.132812 118.863281 84.941406 118.941406 C 84.75 119.015625 84.554688 119.054688 84.347656 119.058594 L 74.84375 119.28125 C 67.5 119.28125 66.621094 116.859375 67.757812 114.285156 C 69.046875 111.371094 72.921875 108.261719 72.921875 108.261719 L 74.128906 114.242188 C 74.128906 114.242188 76.570312 113.960938 82.164062 113.960938 C 84.910156 113.960938 85.789062 115.183594 85.980469 116.425781 C 86.035156 116.800781 86.039062 117.179688 85.992188 117.558594 Z M 85.992188 117.558594 "/>
<path style=" stroke:none;fill-rule:nonzero;fill:rgb(83.918762%,83.918762%,83.918762%);fill-opacity:1;" d="M 85.984375 116.425781 C 86.039062 116.800781 86.039062 117.179688 85.992188 117.558594 C 85.972656 117.761719 85.914062 117.953125 85.820312 118.136719 C 85.726562 118.320312 85.605469 118.480469 85.453125 118.617188 C 85.300781 118.757812 85.132812 118.863281 84.941406 118.941406 C 84.75 119.015625 84.554688 119.054688 84.347656 119.058594 L 74.84375 119.28125 C 67.5 119.28125 66.621094 116.859375 67.757812 114.285156 C 68.304688 115.386719 69.375 116.503906 71.347656 116.832031 C 75.46875 117.523438 83.992188 117.789062 85.261719 116.832031 C 85.484375 116.664062 85.726562 116.53125 85.984375 116.425781 Z M 85.984375 116.425781 "/>
<path style=" stroke:none;fill-rule:nonzero;fill:rgb(2.749634%,3.138733%,5.488586%);fill-opacity:1;" d="M 74.855469 119.628906 C 70.3125 119.628906 67.792969 118.738281 67.152344 116.910156 C 65.941406 113.46875 72.425781 108.21875 72.703125 108 C 72.777344 107.9375 72.863281 107.914062 72.960938 107.921875 C 73.054688 107.933594 73.132812 107.976562 73.191406 108.050781 C 73.253906 108.125 73.277344 108.210938 73.269531 108.308594 C 73.257812 108.402344 73.214844 108.480469 73.140625 108.542969 C 71.363281 109.96875 66.941406 114.207031 67.808594 116.679688 C 68.328125 118.15625 70.761719 118.933594 74.84375 118.933594 L 84.484375 118.714844 C 84.769531 118.707031 85.019531 118.609375 85.234375 118.421875 C 85.453125 118.230469 85.582031 117.992188 85.625 117.710938 C 85.730469 117 85.730469 116.003906 85.113281 115.296875 C 84.550781 114.644531 83.558594 114.3125 82.15625 114.3125 C 76.648438 114.3125 74.179688 114.589844 74.164062 114.59375 C 74.070312 114.605469 73.984375 114.578125 73.910156 114.519531 C 73.832031 114.460938 73.789062 114.382812 73.777344 114.285156 C 73.769531 114.191406 73.792969 114.105469 73.851562 114.03125 C 73.910156 113.953125 73.988281 113.910156 74.085938 113.898438 C 74.183594 113.886719 76.605469 113.617188 82.15625 113.617188 C 83.769531 113.617188 84.941406 114.027344 85.640625 114.839844 C 86.261719 115.5625 86.492188 116.585938 86.304688 117.8125 C 86.273438 118.03125 86.203125 118.238281 86.097656 118.433594 C 85.992188 118.628906 85.859375 118.800781 85.691406 118.945312 C 85.527344 119.089844 85.339844 119.203125 85.132812 119.285156 C 84.929688 119.363281 84.714844 119.40625 84.492188 119.410156 Z M 74.855469 119.628906 "/>
<path style=" stroke:none;fill-rule:nonzero;fill:rgb(2.749634%,3.138733%,5.488586%);fill-opacity:1;" d="M 84.105469 119.429688 C 84.082031 119.433594 84.054688 119.433594 84.03125 119.429688 C 83.9375 119.410156 83.863281 119.359375 83.8125 119.277344 C 83.761719 119.195312 83.746094 119.109375 83.765625 119.015625 C 84.160156 117.199219 83.667969 116.328125 83.667969 116.328125 C 83.628906 116.246094 83.617188 116.160156 83.644531 116.070312 C 83.667969 115.980469 83.71875 115.914062 83.796875 115.867188 C 83.875 115.816406 83.960938 115.804688 84.050781 115.820312 C 84.140625 115.839844 84.210938 115.886719 84.265625 115.964844 C 84.292969 116.003906 84.914062 117.046875 84.453125 119.160156 C 84.414062 119.351562 84.296875 119.4375 84.105469 119.429688 Z M 84.105469 119.429688 "/>
<path style=" stroke:none;fill-rule:nonzero;fill:rgb(2.749634%,3.138733%,5.488586%);fill-opacity:1;" d="M 82.363281 119.429688 C 82.339844 119.433594 82.3125 119.433594 82.289062 119.429688 C 82.195312 119.410156 82.121094 119.359375 82.070312 119.277344 C 82.019531 119.195312 82.003906 119.109375 82.023438 119.015625 C 82.417969 117.203125 81.925781 116.335938 81.921875 116.328125 C 81.871094 116.246094 81.859375 116.15625 81.882812 116.066406 C 81.90625 115.972656 81.957031 115.902344 82.039062 115.851562 C 82.121094 115.800781 82.207031 115.785156 82.300781 115.808594 C 82.394531 115.828125 82.464844 115.882812 82.515625 115.964844 C 82.542969 116.007812 83.164062 117.050781 82.703125 119.164062 C 82.660156 119.34375 82.546875 119.429688 82.363281 119.429688 Z M 82.363281 119.429688 "/>
<path style=" stroke:none;fill-rule:nonzero;fill:rgb(100%,100%,100%);fill-opacity:1;" d="M 99.4375 119.28125 L 89.921875 119.058594 C 89.71875 119.054688 89.523438 119.011719 89.332031 118.9375 C 89.144531 118.859375 88.976562 118.753906 88.824219 118.613281 C 88.675781 118.476562 88.554688 118.316406 88.460938 118.132812 C 88.367188 117.953125 88.308594 117.761719 88.285156 117.558594 C 88.238281 117.183594 88.238281 116.8125 88.285156 116.441406 C 88.472656 115.195312 89.355469 113.960938 92.113281 113.960938 C 97.703125 113.960938 100.144531 114.242188 100.144531 114.242188 L 101.351562 108.261719 C 101.351562 108.261719 105.359375 111.472656 106.578125 114.425781 C 107.625 116.949219 106.644531 119.28125 99.4375 119.28125 Z M 99.4375 119.28125 "/>
<path style=" stroke:none;fill-rule:nonzero;fill:rgb(83.918762%,83.918762%,83.918762%);fill-opacity:1;" d="M 99.4375 119.28125 L 89.921875 119.058594 C 89.71875 119.054688 89.523438 119.011719 89.332031 118.9375 C 89.144531 118.859375 88.976562 118.753906 88.824219 118.613281 C 88.675781 118.476562 88.554688 118.316406 88.460938 118.132812 C 88.367188 117.953125 88.308594 117.761719 88.285156 117.558594 C 88.238281 117.183594 88.238281 116.8125 88.285156 116.441406 C 88.503906 116.539062 88.699219 116.667969 88.871094 116.835938 C 89.636719 117.585938 103.976562 118.617188 105.894531 115.894531 C 106.207031 115.445312 106.433594 114.957031 106.574219 114.425781 C 107.625 116.949219 106.644531 119.28125 99.4375 119.28125 Z M 99.4375 119.28125 "/>
<path style=" stroke:none;fill-rule:nonzero;fill:rgb(2.749634%,3.138733%,5.488586%);fill-opacity:1;" d="M 99.433594 119.628906 L 89.777344 119.40625 C 89.558594 119.402344 89.34375 119.359375 89.136719 119.28125 C 88.933594 119.199219 88.746094 119.085938 88.578125 118.941406 C 88.414062 118.792969 88.277344 118.625 88.171875 118.429688 C 88.066406 118.234375 88 118.027344 87.96875 117.808594 C 87.78125 116.582031 88.011719 115.554688 88.628906 114.835938 C 89.328125 114.023438 90.496094 113.613281 92.117188 113.613281 C 97.664062 113.613281 100.09375 113.882812 100.1875 113.894531 C 100.285156 113.90625 100.363281 113.949219 100.421875 114.023438 C 100.480469 114.101562 100.503906 114.1875 100.492188 114.28125 C 100.484375 114.375 100.441406 114.453125 100.363281 114.515625 C 100.289062 114.574219 100.203125 114.597656 100.109375 114.585938 C 100.082031 114.585938 97.617188 114.308594 92.117188 114.308594 C 90.714844 114.308594 89.71875 114.640625 89.160156 115.289062 C 88.550781 116 88.550781 116.988281 88.652344 117.703125 C 88.691406 117.988281 88.820312 118.226562 89.039062 118.414062 C 89.253906 118.605469 89.503906 118.703125 89.792969 118.707031 L 99.4375 118.929688 C 103.511719 118.929688 105.945312 118.148438 106.464844 116.675781 C 107.332031 114.203125 102.910156 109.960938 101.132812 108.535156 C 101.058594 108.476562 101.015625 108.398438 101.007812 108.304688 C 100.996094 108.207031 101.019531 108.121094 101.082031 108.046875 C 101.140625 107.972656 101.21875 107.929688 101.316406 107.917969 C 101.410156 107.910156 101.496094 107.933594 101.570312 107.992188 C 101.847656 108.214844 108.332031 113.460938 107.125 116.90625 C 106.488281 118.738281 103.96875 119.628906 99.433594 119.628906 Z M 99.433594 119.628906 "/>
<path style=" stroke:none;fill-rule:nonzero;fill:rgb(2.749634%,3.138733%,5.488586%);fill-opacity:1;" d="M 90.175781 119.429688 C 89.984375 119.433594 89.871094 119.34375 89.835938 119.15625 C 89.375 117.042969 90.003906 116 90.023438 115.957031 C 90.074219 115.875 90.148438 115.820312 90.242188 115.796875 C 90.335938 115.773438 90.425781 115.789062 90.511719 115.839844 C 90.59375 115.890625 90.648438 115.964844 90.667969 116.058594 C 90.691406 116.152344 90.679688 116.242188 90.628906 116.328125 C 90.617188 116.347656 90.132812 117.214844 90.523438 119.011719 C 90.542969 119.105469 90.527344 119.195312 90.476562 119.277344 C 90.425781 119.355469 90.351562 119.40625 90.257812 119.429688 C 90.230469 119.433594 90.203125 119.433594 90.175781 119.429688 Z M 90.175781 119.429688 "/>
<path style=" stroke:none;fill-rule:nonzero;fill:rgb(2.749634%,3.138733%,5.488586%);fill-opacity:1;" d="M 91.917969 119.429688 C 91.730469 119.429688 91.617188 119.339844 91.578125 119.15625 C 91.117188 117.042969 91.746094 116 91.769531 115.957031 C 91.820312 115.882812 91.894531 115.835938 91.984375 115.816406 C 92.074219 115.796875 92.15625 115.8125 92.234375 115.859375 C 92.316406 115.910156 92.367188 115.976562 92.390625 116.066406 C 92.414062 116.15625 92.40625 116.238281 92.363281 116.320312 C 92.351562 116.34375 91.867188 117.210938 92.261719 119.007812 C 92.28125 119.101562 92.265625 119.1875 92.214844 119.269531 C 92.160156 119.351562 92.089844 119.402344 91.992188 119.421875 C 91.96875 119.429688 91.941406 119.429688 91.917969 119.429688 Z M 91.917969 119.429688 "/>
<path style=" stroke:none;fill-rule:nonzero;fill:rgb(100%,100%,100%);fill-opacity:1;" d="M 67.28125 111.945312 C 67.285156 111.886719 67.304688 111.832031 67.34375 111.789062 C 67.339844 111.800781 67.316406 111.859375 67.28125 111.945312 Z M 67.28125 111.945312 "/>
<path style=" stroke:none;fill-rule:nonzero;fill:rgb(100%,100%,100%);fill-opacity:1;" d="M 106.035156 110.105469 L 105.933594 109.914062 C 105.960938 109.960938 105.996094 110.023438 106.035156 110.105469 Z M 106.035156 110.105469 "/>
<g clip-path="url(#clip1)" clip-rule="nonzero">
<g clip-path="url(#clip2)" clip-rule="nonzero">
<g clip-path="url(#clip3)" clip-rule="nonzero">
<g clip-path="url(#clip4)" clip-rule="nonzero">
<path style=" stroke:none;fill-rule:nonzero;fill:rgb(97.648621%,94.119263%,42.349243%);fill-opacity:1;" d="M 72.40625 60.792969 C 72.230469 61.148438 71.996094 61.457031 71.707031 61.726562 C 71.417969 61.996094 71.089844 62.203125 70.726562 62.351562 C 70.363281 62.5 69.984375 62.574219 69.59375 62.582031 C 69.203125 62.585938 68.828125 62.519531 68.464844 62.382812 C 68.101562 62.246094 67.777344 62.046875 67.488281 61.785156 C 67.199219 61.523438 66.96875 61.21875 66.792969 60.867188 C 66.617188 60.515625 66.511719 60.144531 66.476562 59.753906 C 66.4375 59.359375 66.472656 58.972656 66.578125 58.59375 L 54.160156 52.417969 C 53.996094 52.632812 53.808594 52.824219 53.59375 52.992188 C 53.382812 53.160156 53.152344 53.296875 52.90625 53.40625 C 52.660156 53.515625 52.40625 53.589844 52.140625 53.632812 C 51.875 53.675781 51.609375 53.683594 51.34375 53.660156 C 51.078125 53.632812 50.824219 53.574219 50.574219 53.484375 C 50.324219 53.390625 50.089844 53.269531 49.871094 53.117188 C 49.652344 52.964844 49.460938 52.785156 49.289062 52.582031 C 49.113281 52.375 48.972656 52.152344 48.855469 51.910156 C 48.742188 51.667969 48.65625 51.414062 48.605469 51.152344 C 48.554688 50.886719 48.539062 50.621094 48.554688 50.347656 C 48.570312 50.078125 48.621094 49.816406 48.703125 49.554688 C 48.785156 49.296875 48.898438 49.054688 49.042969 48.824219 C 49.1875 48.59375 49.355469 48.382812 49.550781 48.195312 C 49.746094 48.007812 49.964844 47.847656 50.199219 47.714844 C 50.433594 47.585938 50.679688 47.484375 50.9375 47.414062 C 51.199219 47.34375 51.460938 47.308594 51.730469 47.308594 C 51.570312 47.09375 51.4375 46.863281 51.335938 46.617188 C 51.234375 46.367188 51.167969 46.109375 51.128906 45.84375 C 51.09375 45.574219 51.089844 45.304688 51.121094 45.039062 C 51.152344 44.769531 51.21875 44.507812 51.316406 44.253906 C 51.410156 44 51.539062 43.761719 51.695312 43.539062 C 51.851562 43.316406 52.03125 43.117188 52.238281 42.941406 C 52.441406 42.765625 52.667969 42.621094 52.910156 42.5 C 53.148438 42.382812 53.402344 42.296875 53.664062 42.242188 C 53.925781 42.1875 54.191406 42.167969 54.457031 42.179688 C 54.726562 42.195312 54.984375 42.242188 55.238281 42.324219 C 55.492188 42.40625 55.730469 42.515625 55.953125 42.660156 C 56.179688 42.804688 56.382812 42.972656 56.5625 43.171875 C 56.742188 43.367188 56.894531 43.582031 57.019531 43.820312 C 57.144531 44.058594 57.238281 44.304688 57.300781 44.566406 C 57.363281 44.832031 57.390625 45.097656 57.386719 45.367188 C 57.382812 45.636719 57.34375 45.902344 57.269531 46.164062 L 69.6875 52.339844 C 69.851562 52.125 70.042969 51.933594 70.253906 51.765625 C 70.464844 51.597656 70.695312 51.460938 70.941406 51.351562 C 71.1875 51.242188 71.445312 51.167969 71.707031 51.125 C 71.972656 51.082031 72.238281 51.070312 72.503906 51.097656 C 72.769531 51.121094 73.027344 51.179688 73.277344 51.273438 C 73.523438 51.367188 73.757812 51.488281 73.976562 51.640625 C 74.195312 51.792969 74.390625 51.972656 74.5625 52.175781 C 74.734375 52.378906 74.875 52.605469 74.992188 52.847656 C 75.105469 53.085938 75.191406 53.339844 75.242188 53.605469 C 75.292969 53.871094 75.308594 54.136719 75.292969 54.40625 C 75.277344 54.679688 75.226562 54.941406 75.144531 55.199219 C 75.0625 55.460938 74.949219 55.703125 74.804688 55.933594 C 74.660156 56.164062 74.492188 56.375 74.296875 56.5625 C 74.101562 56.75 73.886719 56.90625 73.652344 57.039062 C 73.414062 57.171875 73.167969 57.273438 72.910156 57.34375 C 72.648438 57.410156 72.386719 57.445312 72.121094 57.449219 C 72.476562 57.925781 72.683594 58.46875 72.734375 59.070312 C 72.789062 59.671875 72.679688 60.246094 72.40625 60.792969 Z M 72.40625 60.792969 "/>
</g>
</g>
</g>
</g>
<g clip-path="url(#clip5)" clip-rule="nonzero">
<g clip-path="url(#clip6)" clip-rule="nonzero">
<g clip-path="url(#clip7)" clip-rule="nonzero">
<g clip-path="url(#clip8)" clip-rule="nonzero">
<path style=" stroke:none;fill-rule:nonzero;fill:rgb(98.81897%,96.078491%,71.759033%);fill-opacity:1;" d="M 66.898438 50.953125 L 58.511719 54.582031 L 56.410156 53.539062 L 64.980469 50 Z M 66.898438 50.953125 "/>
</g>
</g>
</g>
</g>
<g clip-path="url(#clip9)" clip-rule="nonzero">
<g clip-path="url(#clip10)" clip-rule="nonzero">
<g clip-path="url(#clip11)" clip-rule="nonzero">
<g clip-path="url(#clip12)" clip-rule="nonzero">
<path style=" stroke:none;fill-rule:nonzero;fill:rgb(98.81897%,96.078491%,71.759033%);fill-opacity:1;" d="M 68.375 51.6875 L 60.203125 55.421875 L 59.308594 54.976562 L 67.503906 51.253906 Z M 68.375 51.6875 "/>
</g>
</g>
</g>
</g>
<g clip-path="url(#clip13)" clip-rule="nonzero">
<g clip-path="url(#clip14)" clip-rule="nonzero">
<g clip-path="url(#clip15)" clip-rule="nonzero">
<g clip-path="url(#clip16)" clip-rule="nonzero">
<path style="fill:none;stroke-width:13;stroke-linecap:butt;stroke-linejoin:miter;stroke:rgb(13.729858%,12.159729%,12.548828%);stroke-opacity:1;stroke-miterlimit:10;" d="M 422.690876 131.832656 C 426.349569 129.984362 429.738448 127.737737 432.911714 125.06638 C 436.003828 122.368332 438.771927 119.298352 441.107612 115.90924 C 443.470248 112.57322 445.346268 108.944469 446.762624 105.076078 C 448.17898 101.207687 449.108423 97.179147 449.469502 93.09635 C 449.884782 88.987153 449.785602 84.929883 449.14501 80.871446 C 448.477467 76.759919 447.376319 72.859591 445.70651 69.03759 C 444.117854 65.24228 442.014142 61.764061 439.476826 58.497043 C 436.939509 55.230025 434.076394 52.386573 430.779376 49.886905 C 427.536559 47.360836 423.994894 45.311425 420.181631 43.659179 C 416.39532 42.060026 412.445515 40.937821 408.359167 40.345656 C 404.272819 39.753492 400.239481 39.665259 396.123802 40.080666 C 392.035074 40.549165 388.053558 41.495196 384.179253 42.918758 C 380.331899 44.395412 376.700159 46.296797 373.310982 48.676005 C 369.976007 51.028814 366.910844 53.779953 364.250848 56.929716 C 361.590852 60.079479 359.390521 63.468882 357.568404 67.203816 C 355.800487 70.91235 354.465284 74.807433 353.671194 78.836264 L 138.75688 78.824395 C 137.980936 74.765668 136.690234 70.891449 134.884775 67.201739 C 133.079316 63.512029 130.867203 60.086611 128.167285 56.898793 C 125.494318 53.764066 122.495552 51.052906 119.117084 48.659129 C 115.738617 46.265352 112.142454 44.374923 108.301645 42.934753 C 104.433884 41.44149 100.456532 40.53136 96.315686 40.098178 C 92.22904 39.638597 88.168156 39.762438 84.079131 40.36352 C 79.990106 40.964602 76.089444 42.069907 72.241793 43.679144 C 68.475295 45.315072 64.924409 47.375731 61.670288 49.887814 C 58.416167 52.399896 55.48606 55.283911 52.988369 58.487056 C 50.463428 61.769693 48.317 65.265279 46.711388 69.027196 C 45.051575 72.815513 43.932877 76.737578 43.301092 80.819792 C 42.669306 84.902006 42.524732 89.011786 42.97577 93.096331 C 43.372607 97.207276 44.256953 101.213203 45.683008 105.087713 C 47.082111 108.909132 48.995971 112.546042 51.343437 115.971752 C 53.718151 119.31797 56.418367 122.373205 59.552486 125.084656 C 62.659653 127.743017 66.092619 129.977811 69.797183 131.815439 C 66.057338 133.637042 62.668459 135.883667 59.522145 138.608115 C 56.430031 141.306164 53.716132 144.349744 51.353496 147.685764 C 49.017811 151.074875 47.08759 154.730026 45.671234 158.598417 C 44.254878 162.466809 43.379637 166.468948 42.964357 170.578145 C 42.549077 174.687342 42.648257 178.744613 43.288848 182.803049 C 43.956391 186.914577 45.057539 190.814904 46.700397 194.583814 C 48.370205 198.405816 50.419716 201.910434 52.957033 205.177452 C 55.467398 208.391379 58.411665 211.261522 61.654483 213.787591 C 64.951501 216.28726 68.438964 218.363071 72.306428 219.988916 C 76.092739 221.58807 79.988344 222.736675 84.074692 223.328839 C 88.16104 223.921004 92.248578 223.982837 96.364257 223.567429 C 100.452985 223.09893 104.380301 222.1793 108.254606 220.755737 C 112.101959 219.279084 115.7337 217.377698 119.122876 214.99849 C 122.512052 212.619282 125.523014 209.894542 128.18301 206.744779 C 130.843006 203.595016 133.097539 200.179214 134.865455 196.47068 C 136.687572 192.735745 137.968575 188.867063 138.762664 184.838232 L 353.676978 184.8501 C 354.452923 188.908828 355.797825 192.756646 357.549083 196.472756 C 359.354543 200.162466 361.566655 203.587885 364.239622 206.722611 C 366.912589 209.857338 369.938306 212.621589 373.316774 215.015367 C 376.66829 217.356052 380.291404 219.299572 384.186414 220.713343 C 388.027223 222.153514 391.977326 223.143136 396.118173 223.576317 C 400.177867 223.982807 404.265702 223.912057 408.354727 223.310975 C 412.443753 222.709893 416.398615 221.578188 420.192065 219.995352 C 423.958564 218.359424 427.509449 216.298764 430.76357 213.786682 C 434.017691 211.274599 436.947798 208.390585 439.49969 205.161039 C 442.024631 201.878402 444.089907 198.356125 445.695519 194.594208 C 447.355332 190.805891 448.47403 186.883826 449.132767 182.854703 C 449.764552 178.772489 449.909126 174.66271 449.512289 170.551765 C 449.061251 166.46722 448.176905 162.461292 446.750851 158.586782 C 445.324796 154.712272 443.437887 151.128453 441.090422 147.702744 C 438.769908 144.330126 436.015491 141.301291 432.881373 138.589839 C 429.774206 135.931479 426.368489 133.617193 422.690876 131.832656 Z M 422.690876 131.832656 " transform="matrix(0.0577826,0.0287328,-0.0293331,0.0589898,51.563952,37.527355)"/>
</g>
</g>
</g>
</g>
<g clip-path="url(#clip17)" clip-rule="nonzero">
<g clip-path="url(#clip18)" clip-rule="nonzero">
<g clip-path="url(#clip19)" clip-rule="nonzero">
<g clip-path="url(#clip20)" clip-rule="nonzero">
<path style=" stroke:none;fill-rule:nonzero;fill:rgb(97.648621%,94.119263%,42.349243%);fill-opacity:1;" d="M 31.421875 43.199219 C 31.6875 43.492188 31.894531 43.824219 32.039062 44.191406 C 32.179688 44.5625 32.253906 44.941406 32.257812 45.335938 C 32.261719 45.726562 32.195312 46.105469 32.058594 46.472656 C 31.917969 46.835938 31.71875 47.164062 31.460938 47.449219 C 31.199219 47.738281 30.894531 47.96875 30.546875 48.140625 C 30.199219 48.3125 29.828125 48.414062 29.4375 48.449219 C 29.046875 48.480469 28.664062 48.445312 28.285156 48.332031 C 27.90625 48.222656 27.558594 48.050781 27.242188 47.8125 L 16.953125 57.09375 C 17.09375 57.324219 17.203125 57.570312 17.277344 57.832031 C 17.355469 58.089844 17.402344 58.355469 17.414062 58.625 C 17.421875 58.890625 17.402344 59.15625 17.34375 59.417969 C 17.285156 59.679688 17.199219 59.929688 17.078125 60.167969 C 16.957031 60.40625 16.808594 60.625 16.632812 60.824219 C 16.453125 61.019531 16.253906 61.191406 16.03125 61.339844 C 15.808594 61.484375 15.574219 61.601562 15.320312 61.6875 C 15.066406 61.773438 14.808594 61.824219 14.539062 61.839844 C 14.273438 61.859375 14.007812 61.84375 13.742188 61.792969 C 13.476562 61.746094 13.222656 61.664062 12.976562 61.546875 C 12.730469 61.433594 12.503906 61.289062 12.292969 61.117188 C 12.082031 60.945312 11.894531 60.75 11.734375 60.535156 C 11.574219 60.316406 11.441406 60.082031 11.335938 59.828125 C 11.234375 59.578125 11.164062 59.320312 11.128906 59.050781 C 11.089844 58.785156 11.085938 58.519531 11.117188 58.25 C 11.148438 57.984375 11.210938 57.726562 11.308594 57.480469 C 11.050781 57.550781 10.789062 57.585938 10.519531 57.589844 C 10.25 57.59375 9.984375 57.5625 9.722656 57.496094 C 9.460938 57.433594 9.210938 57.335938 8.972656 57.207031 C 8.734375 57.078125 8.515625 56.925781 8.3125 56.742188 C 8.113281 56.558594 7.9375 56.351562 7.789062 56.125 C 7.640625 55.898438 7.519531 55.65625 7.433594 55.402344 C 7.34375 55.144531 7.289062 54.882812 7.265625 54.613281 C 7.242188 54.347656 7.253906 54.078125 7.300781 53.816406 C 7.347656 53.550781 7.425781 53.296875 7.535156 53.054688 C 7.644531 52.8125 7.785156 52.589844 7.953125 52.382812 C 8.121094 52.175781 8.3125 51.996094 8.53125 51.839844 C 8.746094 51.683594 8.976562 51.558594 9.226562 51.464844 C 9.472656 51.367188 9.730469 51.304688 10 51.277344 C 10.265625 51.246094 10.53125 51.25 10.796875 51.289062 C 11.0625 51.328125 11.320312 51.398438 11.570312 51.503906 C 11.820312 51.605469 12.054688 51.742188 12.273438 51.902344 L 22.5625 42.625 C 22.421875 42.390625 22.3125 42.144531 22.234375 41.886719 C 22.15625 41.625 22.113281 41.363281 22.101562 41.09375 C 22.089844 40.824219 22.113281 40.558594 22.171875 40.296875 C 22.226562 40.035156 22.316406 39.785156 22.4375 39.546875 C 22.558594 39.308594 22.707031 39.09375 22.882812 38.894531 C 23.058594 38.695312 23.257812 38.523438 23.480469 38.375 C 23.703125 38.230469 23.941406 38.113281 24.195312 38.03125 C 24.445312 37.945312 24.707031 37.894531 24.972656 37.875 C 25.242188 37.855469 25.507812 37.871094 25.773438 37.921875 C 26.039062 37.972656 26.292969 38.054688 26.539062 38.167969 C 26.785156 38.28125 27.011719 38.425781 27.222656 38.597656 C 27.433594 38.769531 27.617188 38.964844 27.78125 39.183594 C 27.941406 39.402344 28.074219 39.636719 28.175781 39.886719 C 28.277344 40.136719 28.347656 40.398438 28.386719 40.664062 C 28.421875 40.929688 28.425781 41.199219 28.394531 41.464844 C 28.367188 41.730469 28.300781 41.988281 28.207031 42.238281 C 28.78125 42.078125 29.359375 42.085938 29.941406 42.261719 C 30.519531 42.433594 31.015625 42.746094 31.421875 43.199219 Z M 31.421875 43.199219 "/>
</g>
</g>
</g>
</g>
<g clip-path="url(#clip21)" clip-rule="nonzero">
<g clip-path="url(#clip22)" clip-rule="nonzero">
<g clip-path="url(#clip23)" clip-rule="nonzero">
<g clip-path="url(#clip24)" clip-rule="nonzero">
<path style=" stroke:none;fill-rule:nonzero;fill:rgb(98.81897%,96.078491%,71.759033%);fill-opacity:1;" d="M 20.25 44.707031 L 20.558594 53.839844 L 18.816406 55.410156 L 18.660156 46.140625 Z M 20.25 44.707031 "/>
</g>
</g>
</g>
</g>
<g clip-path="url(#clip25)" clip-rule="nonzero">
<g clip-path="url(#clip26)" clip-rule="nonzero">
<g clip-path="url(#clip27)" clip-rule="nonzero">
<g clip-path="url(#clip28)" clip-rule="nonzero">
<path style=" stroke:none;fill-rule:nonzero;fill:rgb(98.81897%,96.078491%,71.759033%);fill-opacity:1;" d="M 21.472656 43.605469 L 21.960938 52.578125 L 21.21875 53.246094 L 20.753906 44.253906 Z M 21.472656 43.605469 "/>
</g>
</g>
</g>
</g>
<g clip-path="url(#clip29)" clip-rule="nonzero">
<g clip-path="url(#clip30)" clip-rule="nonzero">
<g clip-path="url(#clip31)" clip-rule="nonzero">
<g clip-path="url(#clip32)" clip-rule="nonzero">
<path style="fill:none;stroke-width:13;stroke-linecap:butt;stroke-linejoin:miter;stroke:rgb(13.729858%,12.159729%,12.548828%);stroke-opacity:1;stroke-miterlimit:10;" d="M 422.671593 131.850168 C 426.347824 129.986809 429.790324 127.757674 432.909129 125.083397 C 435.982952 122.369437 438.782471 119.333696 441.091595 115.945119 C 443.486274 112.552229 445.354393 108.934178 446.736527 105.046969 C 448.163643 101.199443 449.068609 97.210435 449.496409 93.119629 C 449.879226 88.98914 449.793695 84.924212 449.149852 80.845477 C 448.506009 76.766743 447.398227 72.837248 445.740952 69.061307 C 444.083677 65.285366 442.011855 61.782028 439.480504 58.51161 C 436.949154 55.241192 434.052648 52.36674 430.790988 49.888254 C 427.484346 47.370085 423.943086 45.283253 420.171619 43.711436 C 416.395742 42.05594 412.434639 40.955143 408.369457 40.321054 C 404.308684 39.770644 400.229386 39.682628 396.09099 40.101002 C 391.997577 40.55906 388.056749 41.470886 384.18736 42.924472 C 380.317971 44.378059 376.686723 46.281101 373.338597 48.673282 C 369.945488 51.02578 366.916648 53.779423 364.252076 56.934214 C 361.587503 60.089004 359.363934 63.473268 357.545207 67.214682 C 355.767051 70.912101 354.470473 74.794997 353.696044 78.819375 L 138.81183 78.828512 C 137.956304 74.802399 136.677412 70.881531 134.853436 67.197895 C 133.070033 63.470263 130.831511 60.05923 128.178442 56.920801 C 125.525373 53.782372 122.50715 51.039909 119.123771 48.693411 C 115.735984 46.263235 112.117988 44.348074 108.269785 42.94793 C 104.417172 41.464106 100.464888 40.530668 96.367952 40.107934 C 92.226034 39.645516 88.155555 39.724859 84.07096 40.350276 C 79.986366 40.975693 76.054357 42.054878 72.279343 43.671511 C 68.504328 45.288144 64.967454 47.354232 61.668719 49.869776 C 58.410558 52.341324 55.476092 55.258014 52.987039 58.487858 C 50.457413 61.761698 48.368792 65.265012 46.725583 69.08148 C 45.077965 72.814269 43.956907 76.772219 43.313015 80.831967 C 42.669123 84.891716 42.542971 89.009266 42.930149 93.100939 C 43.36231 97.232296 44.298981 101.170416 45.704001 105.042975 C 47.10902 108.915535 48.973569 112.555174 51.338219 115.917898 C 53.662296 119.324617 56.396511 122.375054 59.540862 125.069208 C 62.685213 127.763362 66.064182 130.02618 69.763323 131.853348 C 66.082683 133.633027 62.685165 135.901845 59.56636 138.576122 C 56.406982 141.294396 53.693018 144.325823 51.383894 147.7144 C 48.989215 151.10729 47.121095 154.725342 45.69398 158.572867 C 44.271273 162.504073 43.366307 166.49308 42.938507 170.583886 C 42.551281 174.630696 42.681794 178.735308 43.325637 182.814042 C 43.96948 186.892777 45.077262 190.822271 46.734537 194.598212 C 48.35124 198.418149 50.423061 201.921487 52.994985 205.147909 C 55.526335 208.418327 58.422841 211.292779 61.684501 213.771265 C 64.95057 216.33343 68.446847 218.38058 72.263297 219.992079 C 76.079747 221.603579 79.995867 222.664693 84.06105 223.298782 C 88.166805 223.888876 92.246103 223.976892 96.343926 223.602514 C 100.437339 223.144456 104.41874 222.188634 108.288129 220.735047 C 112.157518 219.28146 115.743784 217.338735 119.136892 214.986237 C 122.530001 212.63374 125.513859 209.840413 128.182841 206.769302 C 130.847413 203.614512 133.066572 200.146568 134.844727 196.44915 C 136.708438 192.747419 138.005016 188.864523 138.779445 184.840145 L 353.663659 184.831008 C 354.478613 188.901116 355.753095 192.738305 357.536498 196.465937 C 359.360474 200.149573 361.558423 203.604602 364.297047 206.738718 C 366.950116 209.877148 369.968339 212.619611 373.311145 215.010104 C 376.694523 217.356601 380.312519 219.271762 384.165132 220.755586 C 388.013335 222.15573 392.010601 223.128851 396.107537 223.551586 C 400.204473 223.97432 404.274952 223.894977 408.359546 223.26956 C 412.44855 222.727823 416.37615 221.564958 420.196146 219.988008 C 423.971161 218.371375 427.508035 216.305287 430.766197 213.833739 C 434.019949 211.278512 436.913842 208.405818 439.48845 205.171662 C 442.018076 201.897821 444.106697 198.394507 445.709333 194.622035 C 447.352541 190.805567 448.518582 186.8873 449.162474 182.827552 C 449.761384 178.72812 449.891945 174.694249 449.459785 170.562893 C 449.072607 166.47122 448.176508 162.489103 446.771488 158.616544 C 445.321486 154.704301 443.416365 151.108658 441.092288 147.701938 C 438.727638 144.339215 435.993423 141.288778 432.894054 138.634307 C 429.790276 135.896157 426.370734 133.677336 422.671593 131.850168 Z M 422.671593 131.850168 " transform="matrix(0.0478838,-0.0431898,0.0441578,0.048957,2.145712,54.038392)"/>
</g>
</g>
</g>
</g>
</g>
</svg>
