<?xml version="1.0" encoding="utf-8"?>
<!-- Generator: Adobe Illustrator 23.0.1, SVG Export Plug-In . SVG Version: 6.00 Build 0)  -->
<svg version="1.1" id="Layer_1" xmlns="http://www.w3.org/2000/svg" xmlns:xlink="http://www.w3.org/1999/xlink" x="0px" y="0px"
	 viewBox="0 0 156 40" style="enable-background:new 0 0 156 40;" xml:space="preserve">
<style type="text/css">
	.st0{fill:url(#SVGID_1_);}
	.st1{fill:url(#SVGID_2_);}
	.st2{fill:url(#SVGID_3_);}
	.st3{fill:url(#SVGID_4_);}
	.st4{fill:url(#SVGID_5_);}
	.st5{fill:url(#SVGID_6_);}
	.st6{fill:url(#SVGID_7_);}
	.st7{fill:url(#SVGID_8_);}
	.st8{fill:url(#SVGID_9_);}
	.st9{fill:url(#SVGID_10_);}
	.st10{fill:url(#SVGID_11_);}
	.st11{fill:url(#SVGID_12_);}
	.st12{fill:url(#SVGID_13_);}
	.st13{fill:url(#SVGID_14_);}
	.st14{fill:url(#SVGID_15_);}
	.st15{fill:url(#SVGID_16_);}
</style>
<g>
	
		<radialGradient id="SVGID_1_" cx="20.0028" cy="21.09" r="16.75" gradientTransform="matrix(1.0386 0 0 -1.1455 -2.9695 42.7384)" gradientUnits="userSpaceOnUse">
		<stop  offset="2.000000e-02" style="stop-color:#F6D775"/>
		<stop  offset="0.5" style="stop-color:#BC8B00"/>
		<stop  offset="0.57" style="stop-color:#BE8D03"/>
		<stop  offset="0.62" style="stop-color:#C2930D"/>
		<stop  offset="0.66" style="stop-color:#CB9E1E"/>
		<stop  offset="0.7" style="stop-color:#D6AD35"/>
		<stop  offset="0.74" style="stop-color:#E5C153"/>
		<stop  offset="0.78" style="stop-color:#F6D775"/>
		<stop  offset="1" style="stop-color:#BC8B00"/>
	</radialGradient>
	<path class="st0" d="M10,10.6c-0.2,0.5-0.3,1-0.5,1.5c0,0.1-0.3,0.2-0.4,0.3c-0.9,0.2-1.7,0.5-2.4,1.1c-1,0.7-1.8,1.8-2.2,3
		c-0.6,1.7,0.2,3.6,1.7,4.3c0.7,0.4,1.5,0.6,2.3,0.5c1.5,0,3,0,4.4,0c1,0,2,0.2,2.8,0.7c0.9,0.5,1.7,1.3,2.2,2.3
		c0.1,0.1,0.1,0.2,0.2,0.3c0.2-0.4,0.5-0.8,0.7-1.1c0.9-1.2,2.3-2,3.7-2.2c0.2,0,0.3,0.1,0.4,0.2c0.2,0.3,0.3,0.6,0.4,0.9
		c0.1,0.4,0,0.5-0.4,0.6c-0.9,0.1-1.7,0.4-2.4,1c-1.2,1-1.5,2.7-0.8,4.1c0.6-0.1,1.2-0.3,1.7-0.6c1.2-0.6,2.1-1.7,2.5-3
		c0.5-1.2,0.4-2.5-0.3-3.6c-0.5-0.7-1.1-1.1-1.9-1.4c-0.5-0.2-0.9-0.2-1.4-0.2c-1.5,0-3,0-4.5,0c-1,0-1.9-0.2-2.8-0.6
		c-1.8-0.8-3-2.8-2.9-5c0.1-1.6,0.7-3.2,1.8-4.3c1.3-1.4,3-2.3,4.8-2.6C19,6.5,21.2,7.1,23,8.5c0.5,0.5,1,1,1.5,1.6
		c0.1,0.1,0.2,0.3,0.3,0.5c1.2-0.1,2.5,0.1,3.6,0.5c2.3,0.7,4,2.7,4.6,5.2c0.3,1.4,0.1,2.9-0.4,4.2c-0.3,0.6-0.8,1.2-1.3,1.5
		c-1.1,0.8-2.4,1.2-3.8,1.1c-0.6,0-1.1,0-1.7,0c-0.1,0.5-0.2,1-0.3,1.5c-0.4,1.6-1.3,3-2.6,3.9c-1.5,1.2-3.4,1.7-5.2,1.6
		c-0.2,0-0.4,0.1-0.5,0.3c-1.2,1.7-2.9,2.9-4.8,3.3c-1.1,0.2-2.3,0.2-3.4,0.1c-0.7-0.1-1.3-0.4-1.8-1c-0.7-0.8-1.3-1.6-1.7-2.6
		c-0.1-0.1-0.1-0.3-0.1-0.4c0.3,0.4,0.7,0.7,1,1c1.2,0.9,2.6,1.4,4,1.4c1.4,0,2.7-0.4,3.9-1.1c1.6-0.9,2.5-2.7,2.5-4.6
		c0-0.9-0.4-1.6-1-2.2c-0.8-0.8-1.9-1.2-3-1.1c-1.3,0-2.6,0-3.9-0.1c-0.5,0-1,0-1.4,0c-1.4-0.1-2.7-0.8-3.6-2
		c-0.6-0.8-0.9-1.7-0.9-2.7c-0.2-1.9,0.4-3.7,1.6-5c1.1-1.3,2.4-2.2,3.9-2.6C8.9,10.6,9.5,10.6,10,10.6z M25.8,14.1h-1.5
		c-0.1-0.5-0.2-0.9-0.3-1.4c-0.4-1.4-1.3-2.6-2.5-3.2c-2.3-1.4-5.1-1.4-7.4,0.2c-0.5,0.3-0.9,0.7-1.2,1.1c2.3,0.7,4.1,2.5,5,4.9
		c0.1-0.2,0.1-0.3,0.2-0.4c0.4-1,1-2,1.8-2.6c0.5-0.5,1.1-0.9,1.8-1.1c0.2-0.1,0.5-0.1,0.7,0.1c0.3,0.3,0.5,0.7,0.5,1.1
		c-0.9,0.4-1.8,1-2.5,1.9c-0.7,0.8-1.1,1.9-1.1,3.1c2.8-0.1,5,0.7,6.2,3.7c0.8,0,1.6,0,2.4,0c1,0,2-0.4,2.7-1.1c0.7-0.6,1-1.5,1-2.4
		c0-1.3-0.5-2.5-1.3-3.4c-1-1.1-2.3-1.9-3.8-2.1c-0.4-0.1-0.7-0.1-1.1,0L25.8,14.1z M16.7,17.6c0.1-2.3-2.4-4.8-4.6-5.1
		c-0.7,1.3-0.4,3,0.6,4C13.8,17.4,15.3,17.8,16.7,17.6L16.7,17.6z"/>
	
		<radialGradient id="SVGID_2_" cx="20.0028" cy="21.09" r="16.75" gradientTransform="matrix(1.0386 0 0 -1.1455 -2.9695 42.7384)" gradientUnits="userSpaceOnUse">
		<stop  offset="2.000000e-02" style="stop-color:#F6D775"/>
		<stop  offset="0.5" style="stop-color:#BC8B00"/>
		<stop  offset="0.57" style="stop-color:#BE8D03"/>
		<stop  offset="0.62" style="stop-color:#C2930D"/>
		<stop  offset="0.66" style="stop-color:#CB9E1E"/>
		<stop  offset="0.7" style="stop-color:#D6AD35"/>
		<stop  offset="0.74" style="stop-color:#E5C153"/>
		<stop  offset="0.78" style="stop-color:#F6D775"/>
		<stop  offset="1" style="stop-color:#BC8B00"/>
	</radialGradient>
	<path class="st1" d="M30.5,30c-0.4,1.5-1.3,2.8-2.6,3.6c-0.2,0.1-0.4,0.1-0.6,0.1c-0.7,0.1-1.4,0.1-2.1,0.2c-1.9,0-3.8-0.8-5.3-2.2
		c-0.2-0.2-0.4-0.4-0.5-0.6c0.6-0.2,1.2-0.3,1.7-0.4c0.2,0,0.3,0.1,0.4,0.2c2.5,1.8,5.8,1.7,8.2-0.2L30.5,30z"/>
	
		<radialGradient id="SVGID_3_" cx="20.0028" cy="21.09" r="16.75" gradientTransform="matrix(1.0386 0 0 -1.1455 -2.9695 42.7384)" gradientUnits="userSpaceOnUse">
		<stop  offset="2.000000e-02" style="stop-color:#F6D775"/>
		<stop  offset="0.5" style="stop-color:#BC8B00"/>
		<stop  offset="0.57" style="stop-color:#BE8D03"/>
		<stop  offset="0.62" style="stop-color:#C2930D"/>
		<stop  offset="0.66" style="stop-color:#CB9E1E"/>
		<stop  offset="0.7" style="stop-color:#D6AD35"/>
		<stop  offset="0.74" style="stop-color:#E5C153"/>
		<stop  offset="0.78" style="stop-color:#F6D775"/>
		<stop  offset="1" style="stop-color:#BC8B00"/>
	</radialGradient>
	<path class="st2" d="M10.4,24c0.4,0,0.8,0,1.2,0c0.2,0,0.3,0.2,0.4,0.4c0.5,1.4,1.5,2.6,2.8,3.2l0.6,0.4c0,0,0,0.1,0.1,0.1
		c-0.1,0.5-0.4,0.9-0.7,1.1c-0.2,0.1-0.3,0.1-0.5,0c-1.2-0.6-2.3-1.5-3-2.7C10.8,25.8,10.5,24.9,10.4,24z"/>
	
		<radialGradient id="SVGID_4_" cx="20.0028" cy="21.09" r="16.75" gradientTransform="matrix(1.0386 0 0 -1.1455 -2.9695 42.7384)" gradientUnits="userSpaceOnUse">
		<stop  offset="2.000000e-02" style="stop-color:#F6D775"/>
		<stop  offset="0.5" style="stop-color:#BC8B00"/>
		<stop  offset="0.57" style="stop-color:#BE8D03"/>
		<stop  offset="0.62" style="stop-color:#C2930D"/>
		<stop  offset="0.66" style="stop-color:#CB9E1E"/>
		<stop  offset="0.7" style="stop-color:#D6AD35"/>
		<stop  offset="0.74" style="stop-color:#E5C153"/>
		<stop  offset="0.78" style="stop-color:#F6D775"/>
		<stop  offset="1" style="stop-color:#BC8B00"/>
	</radialGradient>
	<path class="st3" d="M18,40.3c-10,0-18.1-9-18.1-20c0-11,8.1-20,18.1-20c10,0,18.1,9,18.1,20C36.2,31.4,28,40.3,18,40.3z M18,2.1
		c-9.1,0-16.5,8.1-16.5,18.2S8.9,38.5,18,38.5s16.5-8.1,16.5-18.2c0,0,0,0,0,0C34.5,10.3,27.1,2.1,18,2.1z"/>
	
		<linearGradient id="SVGID_5_" gradientUnits="userSpaceOnUse" x1="43.0545" y1="18.0059" x2="48.4339" y2="-6.0132" gradientTransform="matrix(1 0 0 -1 0 39.89)">
		<stop  offset="2.000000e-02" style="stop-color:#F6D775"/>
		<stop  offset="0.5" style="stop-color:#BC8B00"/>
		<stop  offset="0.57" style="stop-color:#BE8D03"/>
		<stop  offset="0.62" style="stop-color:#C2930D"/>
		<stop  offset="0.66" style="stop-color:#CB9E1E"/>
		<stop  offset="0.7" style="stop-color:#D6AD35"/>
		<stop  offset="0.74" style="stop-color:#E5C153"/>
		<stop  offset="0.78" style="stop-color:#F6D775"/>
		<stop  offset="1" style="stop-color:#BC8B00"/>
	</linearGradient>
	<path class="st4" d="M46.8,14.6V17l-2.6-1v-1.7c0-0.6-0.5-1.1-1-1.1h-0.5c-0.6,0-1,0.5-1,1.1v2.7c0,0.7,0.3,1.4,0.9,1.8
		c1.2,0.6,1.5,0.3,1.5,0.3s0,0.3,0.6,0.9l0.3,0.2c0.3,0.2,0.6,0.4,0.8,0.6c0.7,0.7,1.2,1.7,1.2,2.8v4.6c0,2-1.4,3.6-3.2,3.6
		c0,0,0,0,0,0h-1.3c-1.8,0-3.2-1.6-3.2-3.6c0,0,0,0,0,0v-2.1l2.6-1v3.4c0,0.6,0.5,1.1,1,1.1h0.4c0.6,0,1-0.5,1-1.1v-4.2
		c0-0.7-0.3-1.4-0.8-1.8c-1.1-0.5-1.5-0.3-1.5-0.3s0-0.4-0.6-1l-0.3-0.2c-0.3-0.2-0.5-0.3-0.7-0.6c-0.7-0.7-1.2-1.8-1.2-2.9v-3.1
		c0-2,1.5-3.6,3.2-3.6h1.3C45.3,11,46.8,12.5,46.8,14.6C46.8,14.5,46.8,14.6,46.8,14.6z"/>
	
		<linearGradient id="SVGID_6_" gradientUnits="userSpaceOnUse" x1="51.135" y1="19.9998" x2="56.4795" y2="-3.8631" gradientTransform="matrix(1 0 0 -1 0 39.89)">
		<stop  offset="2.000000e-02" style="stop-color:#F6D775"/>
		<stop  offset="0.5" style="stop-color:#BC8B00"/>
		<stop  offset="0.57" style="stop-color:#BE8D03"/>
		<stop  offset="0.62" style="stop-color:#C2930D"/>
		<stop  offset="0.66" style="stop-color:#CB9E1E"/>
		<stop  offset="0.7" style="stop-color:#D6AD35"/>
		<stop  offset="0.74" style="stop-color:#E5C153"/>
		<stop  offset="0.78" style="stop-color:#F6D775"/>
		<stop  offset="1" style="stop-color:#BC8B00"/>
	</linearGradient>
	<path class="st5" d="M51.2,16v3.7h3l-0.3,2.6h-0.1c0,0-0.3-0.6-2.5-0.7v5.5h0.5c2.5,0,2.8-0.7,2.8-0.7l0.2,0.1l0.3,2.6h-6.8
		l-0.1-0.2c0,0,0.6-0.4,0.6-3.2v-1.9c0-2-0.5-2.3-0.5-2.3s0.5-0.3,0.5-2.3v-1.9c0-2.8-0.6-3.2-0.6-3.2l0.1-0.2h6.8l-0.3,2.6
		l-0.2,0.1c0,0-0.2-0.7-2.8-0.7H51.2z"/>
	
		<linearGradient id="SVGID_7_" gradientUnits="userSpaceOnUse" x1="58.8216" y1="21.9168" x2="64.1601" y2="-1.9193" gradientTransform="matrix(1 0 0 -1 0 39.89)">
		<stop  offset="2.000000e-02" style="stop-color:#F6D775"/>
		<stop  offset="0.5" style="stop-color:#BC8B00"/>
		<stop  offset="0.57" style="stop-color:#BE8D03"/>
		<stop  offset="0.62" style="stop-color:#C2930D"/>
		<stop  offset="0.66" style="stop-color:#CB9E1E"/>
		<stop  offset="0.7" style="stop-color:#D6AD35"/>
		<stop  offset="0.74" style="stop-color:#E5C153"/>
		<stop  offset="0.78" style="stop-color:#F6D775"/>
		<stop  offset="1" style="stop-color:#BC8B00"/>
	</linearGradient>
	<path class="st6" d="M65,29v0.2h-3.6L61.3,29c0,0,0.6-0.4,0.3-3.2v-0.2h-2.5v0.2c-0.3,2.8,0.3,3.2,0.3,3.2l-0.1,0.2h-3.6V29
		c0,0,0.7-0.4,0.9-3.2l0.2-1.9c0.2-2-0.2-2.3-0.2-2.3s0.5-0.3,0.7-2.3l0.2-1.9c0.2-2.8-0.3-3.2-0.3-3.2l0.1-0.2h6.2l0.1,0.2
		c0,0-0.6,0.4-0.3,3.2l0.2,2c0.2,2,0.7,2.3,0.7,2.3s-0.4,0.3-0.2,2.3l0.2,1.9C64.3,28.6,65,29,65,29z M61.4,23.6L60.6,16h-0.6
		l-0.8,7.6H61.4z"/>
	
		<linearGradient id="SVGID_8_" gradientUnits="userSpaceOnUse" x1="70.9504" y1="24.8212" x2="76.2669" y2="1.1335" gradientTransform="matrix(1 0 0 -1 0 39.89)">
		<stop  offset="2.000000e-02" style="stop-color:#F6D775"/>
		<stop  offset="0.5" style="stop-color:#BC8B00"/>
		<stop  offset="0.57" style="stop-color:#BE8D03"/>
		<stop  offset="0.62" style="stop-color:#C2930D"/>
		<stop  offset="0.66" style="stop-color:#CB9E1E"/>
		<stop  offset="0.7" style="stop-color:#D6AD35"/>
		<stop  offset="0.74" style="stop-color:#E5C153"/>
		<stop  offset="0.78" style="stop-color:#F6D775"/>
		<stop  offset="1" style="stop-color:#BC8B00"/>
	</linearGradient>
	<path class="st7" d="M78.5,17.4v1.9c0,2,0.5,2.3,0.5,2.3s-0.5,0.3-0.5,2.3v1.9c0,2.8,0.6,3.2,0.6,3.2l0,0.1h-3.7v-0.2
		c0,0,0.6-0.4,0.6-3.2v-6.4l-3,9.7h-1l-3-9.7v6.4c0,2.8,0.6,3.2,0.6,3.2l-0.1,0.2h-3.6L65.8,29c0,0,0.6-0.4,0.6-3.2v-1.9
		c0-2-0.5-2.3-0.5-2.3s0.5-0.3,0.5-2.3v-1.9c0-2.8-0.6-3.2-0.6-3.2l0.1-0.2h4.4l0.1,0.2c0,0-0.5,0.4,0.4,3.2l1.7,5.3l1.7-5.3
		c0.9-2.8,0.4-3.2,0.4-3.2l0.1-0.2H79v0.1C79,14.2,78.5,14.7,78.5,17.4z"/>
	
		<linearGradient id="SVGID_9_" gradientUnits="userSpaceOnUse" x1="80.2022" y1="27.1855" x2="85.5589" y2="3.3183" gradientTransform="matrix(1 0 0 -1 0 39.89)">
		<stop  offset="2.000000e-02" style="stop-color:#F6D775"/>
		<stop  offset="0.5" style="stop-color:#BC8B00"/>
		<stop  offset="0.57" style="stop-color:#BE8D03"/>
		<stop  offset="0.62" style="stop-color:#C2930D"/>
		<stop  offset="0.66" style="stop-color:#CB9E1E"/>
		<stop  offset="0.7" style="stop-color:#D6AD35"/>
		<stop  offset="0.74" style="stop-color:#E5C153"/>
		<stop  offset="0.78" style="stop-color:#F6D775"/>
		<stop  offset="1" style="stop-color:#BC8B00"/>
	</linearGradient>
	<path class="st8" d="M86.7,26.6l0.3,2.6h-6.7l-0.1-0.2c0,0,0.6-0.4,0.6-3.2v-1.9c0-2-0.4-2.3-0.4-2.3s0.4-0.3,0.4-2.3v-1.9
		c0-2.8-0.6-3.2-0.6-3.2l0.1-0.2H84v0.2c0,0-0.6,0.4-0.6,3.2v1.9c0,2,0.5,2.3,0.5,2.3s-0.5,0.3-0.5,2.3v3.2h0.3
		c2.5,0,2.8-0.7,2.8-0.7L86.7,26.6z"/>
	
		<linearGradient id="SVGID_10_" gradientUnits="userSpaceOnUse" x1="88.8065" y1="29.2704" x2="94.151" y2="5.4075" gradientTransform="matrix(1 0 0 -1 0 39.89)">
		<stop  offset="2.000000e-02" style="stop-color:#F6D775"/>
		<stop  offset="0.5" style="stop-color:#BC8B00"/>
		<stop  offset="0.57" style="stop-color:#BE8D03"/>
		<stop  offset="0.62" style="stop-color:#C2930D"/>
		<stop  offset="0.66" style="stop-color:#CB9E1E"/>
		<stop  offset="0.7" style="stop-color:#D6AD35"/>
		<stop  offset="0.74" style="stop-color:#E5C153"/>
		<stop  offset="0.78" style="stop-color:#F6D775"/>
		<stop  offset="1" style="stop-color:#BC8B00"/>
	</linearGradient>
	<path class="st9" d="M90.9,16v3.7h3l-0.4,2.6h-0.1c0,0-0.3-0.6-2.5-0.7v5.5h0.5c2.5,0,2.8-0.7,2.8-0.7l0.2,0.1l0.4,2.6h-6.8
		l-0.1-0.2c0,0,0.6-0.4,0.6-3.2v-1.9c0-2-0.5-2.3-0.5-2.3s0.5-0.3,0.5-2.3v-1.9c0-2.8-0.6-3.2-0.6-3.2l0.1-0.2h6.8l-0.3,2.6
		l-0.2,0.1c0,0-0.2-0.7-2.8-0.7H90.9z"/>
	
		<linearGradient id="SVGID_11_" gradientUnits="userSpaceOnUse" x1="96.3985" y1="31.2146" x2="101.7744" y2="7.2116" gradientTransform="matrix(1 0 0 -1 0 39.89)">
		<stop  offset="2.000000e-02" style="stop-color:#F6D775"/>
		<stop  offset="0.5" style="stop-color:#BC8B00"/>
		<stop  offset="0.57" style="stop-color:#BE8D03"/>
		<stop  offset="0.62" style="stop-color:#C2930D"/>
		<stop  offset="0.66" style="stop-color:#CB9E1E"/>
		<stop  offset="0.7" style="stop-color:#D6AD35"/>
		<stop  offset="0.74" style="stop-color:#E5C153"/>
		<stop  offset="0.78" style="stop-color:#F6D775"/>
		<stop  offset="1" style="stop-color:#BC8B00"/>
	</linearGradient>
	<path class="st10" d="M103.1,25.4V26c0,1.9-1.4,3.4-3.1,3.4h-1.2c-1.7,0-3.1-1.5-3.1-3.4v-1.6l2.6-1v3c0,0.6,0.5,1.1,1,1.1h0.4
		c0.6,0,1-0.5,1-1.1v-0.6c-0.1-0.8-0.4-1.6-0.9-2.2c-1.3-1.4-1.7-1.3-1.7-1.3s0.1-0.4-0.9-1.6c-0.1-0.1-0.2-0.2-0.3-0.3
		c-0.8-0.8-1.2-1.8-1.3-2.9v-0.3c0-1.9,1.4-3.4,3.1-3.4h1c1.7,0,3.1,1.5,3.1,3.4v2l-2.5-1v-1.3c0-0.6-0.5-1.1-1-1.1h-0.2
		c-0.6,0-1,0.5-1,1.1V17c0.1,0.8,0.4,1.6,1,2.1c1.3,1.4,1.7,1.1,1.7,1.1s-0.1,0.3,0.5,1.1c0.2,0.2,0.4,0.5,0.6,0.8v0.1l0,0
		C102.7,23.1,103.1,24.2,103.1,25.4z"/>
	
		<linearGradient id="SVGID_12_" gradientUnits="userSpaceOnUse" x1="104.6788" y1="33.2671" x2="110.0556" y2="9.26" gradientTransform="matrix(1 0 0 -1 0 39.89)">
		<stop  offset="2.000000e-02" style="stop-color:#F6D775"/>
		<stop  offset="0.5" style="stop-color:#BC8B00"/>
		<stop  offset="0.57" style="stop-color:#BE8D03"/>
		<stop  offset="0.62" style="stop-color:#C2930D"/>
		<stop  offset="0.66" style="stop-color:#CB9E1E"/>
		<stop  offset="0.7" style="stop-color:#D6AD35"/>
		<stop  offset="0.74" style="stop-color:#E5C153"/>
		<stop  offset="0.78" style="stop-color:#F6D775"/>
		<stop  offset="1" style="stop-color:#BC8B00"/>
	</linearGradient>
	<path class="st11" d="M111.8,25.4V26c0,1.9-1.4,3.4-3.1,3.4h-1.2c-1.7,0-3.1-1.5-3.1-3.4v-1.6l2.5-1v3c0,0.6,0.5,1.1,1,1.1h0.4
		c0.6,0,1-0.5,1-1.1v-0.6c0-0.8-0.3-1.6-0.7-2.2c-1.3-1.4-1.7-1.3-1.7-1.3s0.1-0.4-0.9-1.6c-0.1-0.1-0.2-0.2-0.3-0.3
		c-0.8-0.8-1.2-1.8-1.3-2.9v-0.3c0-1.9,1.4-3.4,3.1-3.4h1c1.7,0,3.1,1.5,3.1,3.4v2l-2.5-1v-1.3c0-0.6-0.5-1.1-1-1.1H108
		c-0.6,0-1,0.5-1,1.1V17c0.1,0.8,0.4,1.6,1,2.1c1.3,1.4,1.7,1.1,1.7,1.1s-0.1,0.3,0.5,1.1c0.2,0.2,0.4,0.5,0.6,0.8l0.1,0.1l0,0
		C111.4,23.1,111.8,24.2,111.8,25.4z"/>
	
		<linearGradient id="SVGID_13_" gradientUnits="userSpaceOnUse" x1="112.398" y1="39.8272" x2="119.212" y2="9.4095" gradientTransform="matrix(1 0 0 -1 0 39.89)">
		<stop  offset="2.000000e-02" style="stop-color:#F6D775"/>
		<stop  offset="0.5" style="stop-color:#BC8B00"/>
		<stop  offset="0.57" style="stop-color:#BE8D03"/>
		<stop  offset="0.62" style="stop-color:#C2930D"/>
		<stop  offset="0.66" style="stop-color:#CB9E1E"/>
		<stop  offset="0.7" style="stop-color:#D6AD35"/>
		<stop  offset="0.74" style="stop-color:#E5C153"/>
		<stop  offset="0.78" style="stop-color:#F6D775"/>
		<stop  offset="1" style="stop-color:#BC8B00"/>
	</linearGradient>
	<path class="st12" d="M122,26.4v0.9c0,2.4-1.7,4.3-3.9,4.3c0,0,0,0,0,0h-1.5c-2.2,0-3.9-1.9-3.9-4.3c0,0,0,0,0,0v-2.1l3.2-1.3v3.8
		c0,0.8,0.6,1.4,1.2,1.4h0.5c0.7,0,1.2-0.6,1.2-1.4V27c0-1-0.3-2-0.9-2.8c-1.6-1.8-2.1-1.6-2.1-1.6s0.2-0.6-1.1-2.1
		c-0.1-0.1-0.2-0.2-0.3-0.4c-1-1-1.6-2.3-1.7-3.7V16c0-2.4,1.8-4.3,3.9-4.3h1.3c2.2,0,3.9,1.9,3.9,4.3v2.5l-3.2-1.3v-1.7
		c0-0.8-0.6-1.4-1.3-1.4h-0.2c-0.7,0-1.3,0.6-1.2,1.4c0,0,0,0,0,0v0.3c0.1,1,0.5,2,1.2,2.7c1.6,1.7,2.2,1.5,2.2,1.5
		s-0.1,0.4,0.6,1.5c0.3,0.3,0.5,0.6,0.8,1l0.1,0.1l0,0C121.5,23.6,122,24.9,122,26.4z"/>
	
		<linearGradient id="SVGID_14_" gradientUnits="userSpaceOnUse" x1="126.3953" y1="38.0397" x2="131.6927" y2="14.3758" gradientTransform="matrix(1 0 0 -1 0 39.89)">
		<stop  offset="2.000000e-02" style="stop-color:#F6D775"/>
		<stop  offset="0.5" style="stop-color:#BC8B00"/>
		<stop  offset="0.57" style="stop-color:#BE8D03"/>
		<stop  offset="0.62" style="stop-color:#C2930D"/>
		<stop  offset="0.66" style="stop-color:#CB9E1E"/>
		<stop  offset="0.7" style="stop-color:#D6AD35"/>
		<stop  offset="0.74" style="stop-color:#E5C153"/>
		<stop  offset="0.78" style="stop-color:#F6D775"/>
		<stop  offset="1" style="stop-color:#BC8B00"/>
	</linearGradient>
	<path class="st13" d="M138.2,14.1l0.1,0.1c0,0-0.7,0.4-0.9,3.2l-0.2,1.9c-0.2,2,0.2,2.3,0.2,2.3s-0.5,0.3-0.7,2.3l-0.2,1.9
		c-0.2,2.8,0.3,3.2,0.3,3.2l-0.1,0.2h-6l-0.1-0.2c0,0,0.6-0.4,0-3.2l-0.6-3l-0.6,3c-0.5,2.8,0,3.2,0,3.2l-0.1,0.2h-6l-0.1-0.2
		c0,0,0.6-0.4,0.3-3.2l-0.2-1.9c-0.2-2-0.7-2.3-0.7-2.3s0.4-0.3,0.3-2.3l-0.2-1.9c-0.3-2.8-0.9-3.2-0.9-3.2l0.1-0.2h3.6l0.1,0.2
		c0,0-0.6,0.4-0.3,3.2l0.9,9.7h0.4l1.8-9.7c0.1-0.5,0.2-0.9,0.2-1.4c0.1-1.5-0.2-1.7-0.2-1.7l0.1-0.2h2.9l0.1,0.2
		c0,0-0.3,0.3-0.2,1.7c0,0.5,0.1,1,0.2,1.4l1.8,9.7h0.4l0.9-9.7c0.3-2.8-0.3-3.2-0.3-3.2l0.1-0.2L138.2,14.1z"/>
	
		<linearGradient id="SVGID_15_" gradientUnits="userSpaceOnUse" x1="137.108" y1="40.8908" x2="142.4462" y2="17.0445" gradientTransform="matrix(1 0 0 -1 0 39.89)">
		<stop  offset="2.000000e-02" style="stop-color:#F6D775"/>
		<stop  offset="0.5" style="stop-color:#BC8B00"/>
		<stop  offset="0.57" style="stop-color:#BE8D03"/>
		<stop  offset="0.62" style="stop-color:#C2930D"/>
		<stop  offset="0.66" style="stop-color:#CB9E1E"/>
		<stop  offset="0.7" style="stop-color:#D6AD35"/>
		<stop  offset="0.74" style="stop-color:#E5C153"/>
		<stop  offset="0.78" style="stop-color:#F6D775"/>
		<stop  offset="1" style="stop-color:#BC8B00"/>
	</linearGradient>
	<path class="st14" d="M147.5,29v0.2h-3.6l-0.1-0.2c0,0,0.6-0.4,0.3-3.2v-0.2h-2.4v0.2c-0.3,2.8,0.3,3.2,0.3,3.2l-0.1,0.2h-3.7V29
		c0,0,0.7-0.4,0.9-3.2l0.2-1.9c0.2-2-0.2-2.3-0.2-2.3s0.5-0.3,0.7-2.3l0.2-1.9c0.3-2.8-0.3-3.2-0.3-3.2l0.1-0.2h6.3l0.1,0.2
		c0,0-0.6,0.4-0.3,3.2l0.2,1.9c0.2,2,0.7,2.3,0.7,2.3s-0.4,0.3-0.3,2.3l0.2,1.9C146.9,28.6,147.5,29,147.5,29z M143.9,23.6l-0.7-7.6
		h-0.6l-0.7,7.6H143.9z"/>
	
		<linearGradient id="SVGID_16_" gradientUnits="userSpaceOnUse" x1="146.2879" y1="43.2136" x2="151.666" y2="19.2514" gradientTransform="matrix(1 0 0 -1 0 39.89)">
		<stop  offset="2.000000e-02" style="stop-color:#F6D775"/>
		<stop  offset="0.5" style="stop-color:#BC8B00"/>
		<stop  offset="0.57" style="stop-color:#BE8D03"/>
		<stop  offset="0.62" style="stop-color:#C2930D"/>
		<stop  offset="0.66" style="stop-color:#CB9E1E"/>
		<stop  offset="0.7" style="stop-color:#D6AD35"/>
		<stop  offset="0.74" style="stop-color:#E5C153"/>
		<stop  offset="0.78" style="stop-color:#F6D775"/>
		<stop  offset="1" style="stop-color:#BC8B00"/>
	</linearGradient>
	<path class="st15" d="M155.9,16.8V21c0,1.5-1.1,2.7-2.4,2.7h-2.1v2.2c0,2.8,0.6,3.2,0.6,3.2v0.2h-3.6V29c0,0,0.6-0.4,0.6-3.2v-1.9
		c0-2-0.5-2.3-0.5-2.3s0.5-0.3,0.5-2.3v-1.9c0-2.8-0.6-3.2-0.6-3.2v-0.2h5.1C154.8,14.1,155.9,15.3,155.9,16.8
		C155.9,16.8,155.9,16.8,155.9,16.8z M153.4,18.1v-1.3c0-0.4-0.3-0.8-0.7-0.8h-1.2v5.6h1.2c0.4,0,0.7-0.4,0.7-0.8L153.4,18.1z"/>
</g>
</svg>
