<?xml version="1.0" encoding="UTF-8"?>
<svg xmlns="http://www.w3.org/2000/svg" xmlns:xlink="http://www.w3.org/1999/xlink" width="1081.5pt" height="137.249994pt" viewBox="0 0 1081.5 137.249994" version="1.2">
<defs>
<clipPath id="clip1">
  <path d="M 2.691406 134 L 6 134 L 6 136.503906 L 2.691406 136.503906 Z M 2.691406 134 "/>
</clipPath>
</defs>
<g id="surface1">
<g clip-path="url(#clip1)" clip-rule="nonzero">
<path style=" stroke:none;fill-rule:nonzero;fill:rgb(93.328857%,91.758728%,95.689392%);fill-opacity:1;" d="M 1.199219 134.390625 C 0.90625 134.390625 0.621094 134.417969 0.335938 134.476562 C 0.0507812 134.53125 -0.222656 134.617188 -0.492188 134.726562 C -0.757812 134.839844 -1.015625 134.972656 -1.253906 135.136719 C -1.496094 135.296875 -1.71875 135.480469 -1.925781 135.683594 C -2.128906 135.890625 -2.3125 136.113281 -2.472656 136.351562 C -2.632812 136.59375 -2.769531 136.847656 -2.882812 137.117188 C -2.992188 137.382812 -3.074219 137.660156 -3.132812 137.945312 C -3.1875 138.230469 -3.21875 138.515625 -3.21875 138.804688 C -3.21875 139.097656 -3.1875 139.382812 -3.132812 139.667969 C -3.074219 139.953125 -2.992188 140.226562 -2.882812 140.496094 C -2.769531 140.761719 -2.632812 141.019531 -2.472656 141.257812 C -2.3125 141.5 -2.128906 141.722656 -1.925781 141.929688 C -1.71875 142.132812 -1.496094 142.316406 -1.253906 142.476562 C -1.015625 142.636719 -0.757812 142.773438 -0.492188 142.882812 C -0.222656 142.996094 0.0507812 143.078125 0.335938 143.136719 C 0.621094 143.191406 0.90625 143.222656 1.199219 143.222656 C 1.488281 143.222656 1.773438 143.191406 2.058594 143.136719 C 2.34375 143.078125 2.621094 142.996094 2.886719 142.882812 C 3.15625 142.773438 3.410156 142.636719 3.652344 142.476562 C 3.890625 142.316406 4.113281 142.132812 4.320312 141.929688 C 4.523438 141.722656 4.707031 141.5 4.867188 141.257812 C 5.03125 141.019531 5.164062 140.761719 5.277344 140.496094 C 5.386719 140.226562 5.472656 139.953125 5.527344 139.667969 C 5.585938 139.382812 5.613281 139.097656 5.613281 138.804688 C 5.613281 138.515625 5.585938 138.230469 5.527344 137.945312 C 5.472656 137.660156 5.386719 137.382812 5.277344 137.117188 C 5.164062 136.847656 5.03125 136.59375 4.867188 136.351562 C 4.707031 136.113281 4.523438 135.890625 4.320312 135.683594 C 4.113281 135.480469 3.890625 135.296875 3.652344 135.136719 C 3.410156 134.972656 3.15625 134.839844 2.886719 134.726562 C 2.621094 134.617188 2.34375 134.53125 2.058594 134.476562 C 1.773438 134.417969 1.488281 134.390625 1.199219 134.390625 Z M 1.199219 134.390625 "/>
</g>
</g>
</svg>
